<ttFont>
<head>
    <!-- Most of this table will be recalculated by the compiler -->
    <tableVersion value="1.0"/>
    <fontRevision value="1.0"/>
    <checkSumAdjustment value="0xce3d941e"/>
    <magicNumber value="0x5f0f3cf5"/>
    <flags value="00000000 00000011"/>
    <unitsPerEm value="2048"/>
    <created value="Thu Aug 15 19:12:38 2019"/>
    <modified value="Fri Aug 16 02:19:11 2019"/>
    <xMin value="-436"/>
    <yMin value="-531"/>
    <xMax value="3387"/>
    <yMax value="1977"/>
<macStyle value="00000000 00000010"/>
    <lowestRecPPEM value="3"/>
    <fontDirectionHint value="2"/>
    <indexToLocFormat value="0"/>
    <glyphDataFormat value="0"/>
  </head>
          <CharString index="0">
            -67 callsubr
            109 hhcurveto
            return
          </CharString>
          <CharString index="1">
            94 107 44 61 48 hvcurveto
            15 71 rlineto
            -29 -34 return
          </CharString>
          <CharString index="2">
            rmoveto
            -235 120 -131 151 return
          </CharString>
          <CharString index="3">
            -215 -45 86 -140 196 hhcurveto
            145 131 92 172 76 hvcurveto
            -1 -4 return
          </CharString>
          <CharString index="4">
            rmoveto
            -37 callsubr
            21 callsubr
            endchar
          </CharString>
          <CharString index="5">
            92 108 44 61 48 hvcurveto
            15 71 rlineto
            -29 -35 -50 -13 -33 hhcurveto
            -47 -17 32 59 return
          </CharString>
          <CharString index="6">
            20 callsubr
            endchar
          </CharString>
          <CharString index="7">
            142 callsubr
            endchar
          </CharString>
          <CharString index="8">
            -12 -56 -4 vvcurveto
            -127 -24 47 -68 110 hhcurveto
            return
          </CharString>
          <CharString index="9">
            50 -12 10 -18 -11 -50 return
          </CharString>
          <CharString index="10">
            rmoveto
            330 -95 callgsubr
            105 callsubr
            54 callsubr
            hvcurveto
            5 89 rmoveto
            -105 -65 92 185 1 hvcurveto
            25 callsubr
            endchar
          </CharString>
          <CharString index="11">
            rmoveto
            51 callgsubr
            return
          </CharString>
          <CharString index="12">
            rmoveto
            -1036 hlineto
            -31 callsubr
            1081 -36 callsubr
            endchar
          </CharString>
          <CharString index="13">
            -126 -592 rcurveline
            -153 -33 51 -72 return
          </CharString>
          <CharString index="14">
            rmoveto
            -391 -49 -14 -65 77 -14 rlineto
            return
          </CharString>
          <CharString index="15">
            52 callsubr
            75 0 return
          </CharString>
          <CharString index="16">
            18 callsubr
            endchar
          </CharString>
          <CharString index="17">
            rmoveto
            325 223 210 356 79 hvcurveto
            148 663 29 126 23 27 131 21 rlinecurve
            15 68 -421 0 -14 60 callsubr
            201 callsubr
            endchar
          </CharString>
          <CharString index="18">
            135 -14 13 -20 -39 callsubr
            46 callsubr
            -70 callgsubr
            endchar
          </CharString>
          <CharString index="19">
            -7 callsubr
            endchar
          </CharString>
          <CharString index="20">
            rmoveto
            -63 -52 -51 -64 -59 45 -46 62 64 52 51 64 59 -46 46 -62 hvcurveto
            endchar
          </CharString>
          <CharString index="21">
            rmoveto
            225 1062 19 89 21 18 142 16 rlinecurve
            14 68 -565 0 -14 -68 return
          </CharString>
          <CharString index="22">
            26 callsubr
            endchar
          </CharString>
          <CharString index="23">
            1554 rmoveto
            216 148 return
          </CharString>
          <CharString index="24">
            1859 rmoveto
            -215 return
          </CharString>
          <CharString index="25">
            47 callsubr
            -68 -69 -57 -54 -68 1 vhcurveto
            -63 50 -48 68 vhcurveto
            endchar
          </CharString>
          <CharString index="26">
            rmoveto
            519 hlineto
            27 129 rlineto
            -519 hlineto
            endchar
          </CharString>
          <CharString index="27">
            1508 rmoveto
            -244 -369 return
          </CharString>
          <CharString index="28">
            367 275 rlineto
            7 vlineto
            return
          </CharString>
          <CharString index="29">
            1585 rmoveto
            63 52 51 64 59 return
          </CharString>
          <CharString index="30">
            rmoveto
            -348 -49 -13 -66 70 -12 53 -12 15 -16 4 -50 rlinecurve
            71 -869 -121 -118 -191 -160 -140 -102 rlinecurve
            -16 249 vlineto
            103 127 94 115 89 110 56 67 55 68 50 64 rrcurveto
            304 391 135 255 140 vvcurveto
            85 -1 -57 56 -79 hhcurveto
            -77 -59 -55 -73 hvcurveto
            -70 1 57 -56 71 hhcurveto
            7 6 1 1 6 hvcurveto
            -48 -170 -123 -200 -190 -245 rrcurveto
            endchar
          </CharString>
          <CharString index="31">
            184 345 -105 callsubr
            return
          </CharString>
          <CharString index="32">
            50 -12 10 -18 -10 -49 rlinecurve
            return
          </CharString>
          <CharString index="33">
            -13 -63 rlineto
            2 21 1 return
          </CharString>
          <CharString index="34">
            -45 46 -62 -64 -52 -51 return
          </CharString>
          <CharString index="35">
            -64 -59 46 -46 62 hvcurveto
            return
          </CharString>
          <CharString index="36">
            rmoveto
            193 -536 -96 -455 -19 -87 -22 -19 -160 -16 rlinecurve
            -15 -68 188 callsubr
            endchar
          </CharString>
          <CharString index="37">
            1508 rmoveto
            -245 -369 89 0 return
          </CharString>
          <CharString index="38">
            -108 -504 -18 -89 -23 -19 -135 -15 -87 callgsubr
            -133 16 -17 20 20 90 rlinecurve
            225 1056 19 89 25 21 140 16 rlinecurve
            14 68 -562 0 -14 -68 128 -15 15 -19 -19 -89 rlinecurve
            -100 -472 -639 0 100 472 19 89 25 19 133 15 61 callsubr
            134 -16 15 -21 -19 -89 rlinecurve
            -225 -1056 -20 -89 -22 -21 -142 -16 rlinecurve
            -14 -68 return
          </CharString>
          <CharString index="39">
            -149 -146 149 -75 0 126 -284 145 0 245 284 rlineto
            return
          </CharString>
          <CharString index="40">
            142 118 90 167 65 vhcurveto
            -1 -4 -10 -49 -4 vvcurveto
            -127 -25 47 -68 return
          </CharString>
          <CharString index="41">
            -381 -49 -15 -65 78 -14 49 -12 10 -18 -10 -50 rlinecurve
            return
          </CharString>
          <CharString index="42">
            rmoveto
            149 96 67 113 106 -78 66 return
          </CharString>
          <CharString index="43">
            147 -148 108 callgsubr
            return
          </CharString>
          <CharString index="44">
            89 0 422 358 rlineto
            11 vlineto
            return
          </CharString>
          <CharString index="45">
            423 358 rlineto
            11 vlineto
            return
          </CharString>
          <CharString index="46">
            1159 rmoveto
            186 114 134 212 9 hvcurveto
            -72 hlineto
            -113 return
          </CharString>
          <CharString index="47">
            -284 26 114 callsubr
            168 callsubr
            return
          </CharString>
          <CharString index="48">
            125 589 rlineto
            177 144 callsubr
            return
          </CharString>
          <CharString index="49">
            100 405 rlineto
            -61 hlineto
            -110 -266 return
          </CharString>
          <CharString index="50">
            1591 rmoveto
            59 49 48 61 return
          </CharString>
          <CharString index="51">
            -273 -1285 234 0 return
          </CharString>
          <CharString index="52">
            323 hmoveto
            59 49 48 61 return
          </CharString>
          <CharString index="53">
            rmoveto
            259 238 123 200 140 -90 92 -196 38 hvcurveto
            -183 36 -92 18 -22 27 -1 36 rlinecurve
            39 36 33 64 18 vhcurveto
            -8 35 38 -4 41 hhcurveto
            268 -1 155 173 200 vvcurveto
            72 -22 67 -46 53 vhcurveto
            229 -24 21 104 -332 -13 rlineto
            33 -59 -76 19 -94 hhcurveto
            -267 -155 -168 -202 -124 69 -108 131 -51 hvcurveto
            -149 -34 -73 -69 1 -91 1 -67 38 -57 86 -34 rrcurveto
            -187 -32 -117 -83 -106 vvcurveto
            -156 197 -89 254 vhcurveto
            -23 1065 rmoveto
            158 69 174 128 99 49 -89 -114 -159 -69 -173 -129 -99 -48 89 114 vhcurveto
            -241 -799 rmoveto
            82 63 60 124 38 vhcurveto
            -1 3 4 -1 3 hhcurveto
            176 -33 rlineto
            137 -25 50 -53 -73 vvcurveto
            -107 -127 -68 -156 -167 -110 74 107 vhcurveto
            endchar
          </CharString>
          <CharString index="54">
            rmoveto
            446 245 330 316 213 120 -122 -250 9 vhcurveto
            60 -3 58 322 rlineto
            75 -90 -190 74 -224 hhcurveto
            -470 -324 -342 -478 -2 hvcurveto
            return
          </CharString>
          <CharString index="55">
            1195 rmoveto
            76 60 60 75 70 -53 54 -73 -75 -61 -60 -75 -70 54 -54 72 hvcurveto
            return
          </CharString>
          <CharString index="56">
            1139 rmoveto
            246 200 154 -200 35 callsubr
            return
          </CharString>
          <CharString index="57">
            1500 rmoveto
            535 -92 15 72 -518 172 rlineto
            return
          </CharString>
          <CharString index="58">
            1139 rmoveto
            245 200 154 -200 return
          </CharString>
          <CharString index="59">
            712 53 callsubr
            81 callsubr
            return
          </CharString>
          <CharString index="60">
            4 hhcurveto
            74 43 -31 -52 -48 -39 -31 -67 -1 hvcurveto
            return
          </CharString>
          <CharString index="61">
            1195 rmoveto
            75 60 60 75 70 -53 54 return
          </CharString>
          <CharString index="62">
            1189 rmoveto
            80 63 63 79 73 -56 57 return
          </CharString>
          <CharString index="63">
            rmoveto
            300 107 254 -107 16 73 return
          </CharString>
          <CharString index="64">
            1836 -54 callgsubr
            return
          </CharString>
          <CharString index="65">
            -11 hvcurveto
            -54 -12 34 -40 54 hhcurveto
            return
          </CharString>
          <CharString index="66">
            rmoveto
            -391 -45 -14 -66 77 -14 return
          </CharString>
          <CharString index="67">
            366 275 rlineto
            7 vlineto
            return
          </CharString>
          <CharString index="68">
            -19 -89 rlinecurve
            -226 -1062 return
          </CharString>
          <CharString index="69">
            rmoveto
            -428 -3 299 -250 368 hhcurveto
            179 190 55 74 95 hvcurveto
            85 396 19 87 17 20 127 14 rlinecurve
            15 68 -536 0 -14 -68 rlineto
            148 -16 11 -17 -18 -87 -79 -376 rcurveline
            -35 -47 -85 -18 -80 hhcurveto
            -247 -165 210 319 446 245 330 317 215 119 -122 -250 9 hvcurveto
            61 -3 58 322 rlineto
            75 -91 -190 74 -225 hhcurveto
            -470 -325 -342 -478 -2 hvcurveto
            endchar
          </CharString>
          <CharString index="70">
            -154 1180 -177 0 -649 -1166 -96 -170 -32 -27 -119 -16 rlinecurve
            -14 -68 430 0 14 68 -143 21 -14 31 85 158 rlinecurve
            116 218 462 0 25 -228 return
          </CharString>
          <CharString index="71">
            0 101 405 rlineto
            -61 hlineto
            -108 -265 -80 -42 -275 -10 rrcurveto
            -231 169 callsubr
            104 487 rlineto
            -58 161 callsubr
            57 -46 7 -223 rlinecurve
            60 hlineto
            return
          </CharString>
          <CharString index="72">
            rmoveto
            168 137 97 150 25 hvcurveto
            -75 hlineto
            -65 -16 -95 -43 -114 hhcurveto
            -114 -77 43 65 11 hvcurveto
            -74 hlineto
            -150 -40 97 -97 167 hhcurveto
            return
          </CharString>
          <CharString index="73">
            1312 1559 1444 rmoveto
            -1193 hlineto
            28 callsubr
            97 callsubr
            111 callsubr
            91 callsubr
            return
          </CharString>
          <CharString index="74">
            40 54 -38 callgsubr
            -54 -51 -41 -54 return
          </CharString>
          <CharString index="75">
            108 435 rlineto
            -61 hlineto
            -121 -282 -98 -57 -224 -9 rrcurveto
            -202 -8 return
          </CharString>
          <CharString index="76">
            -14 -68 134 -16 14 -18 -39 callsubr
            -19 -104 callgsubr
            return
          </CharString>
          <CharString index="77">
            1203 rmoveto
            71 56 56 71 66 -50 50 -68 -70 -58 -56 -71 -65 return
          </CharString>
          <CharString index="78">
            86 hlineto
            153 58 93 70 94 vvcurveto
            87 -74 67 -112 vhcurveto
            return
          </CharString>
          <CharString index="79">
            1500 rmoveto
            33 152 -592 -172 -15 -72 rlineto
            return
          </CharString>
          <CharString index="80">
            rmoveto
            -347 -88 callgsubr
            183 callsubr
            endchar
          </CharString>
          <CharString index="81">
            hlineto
            -54 -52 -41 -54 -11 hvcurveto
            -54 -12 34 -40 55 hhcurveto
            return
          </CharString>
          <CharString index="82">
            -215 182 -48 0 -291 -182 rlineto
            return
          </CharString>
          <CharString index="83">
            -44 callsubr
            -216 182 -47 0 return
          </CharString>
          <CharString index="84">
            1571 826 17 callsubr
            return
          </CharString>
          <CharString index="85">
            -76 -79 -64 -63 -79 -73 56 -57 76 hvcurveto
            return
          </CharString>
          <CharString index="86">
            191 rmoveto
            107 504 639 0 return
          </CharString>
          <CharString index="87">
            rmoveto
            227 181 145 -181 return
          </CharString>
          <CharString index="88">
            rmoveto
            109 514 139 0 279 -705 327 0 14 64 -66 22 -43 47 -85 211 rlinecurve
            -213 533 298 272 172 155 63 50 122 22 rlinecurve
            14 68 -462 0 -14 -68 142 -14 6 -45 -123 -122 rlinecurve
            -415 -408 -137 0 99 466 18 89 22 19 131 15 rlinecurve
            14 68 -555 0 -14 -68 135 -16 13 -18 -39 callsubr
            -18 -104 callgsubr
            554 0 14 68 -124 15 -13 19 19 89 rlinecurve
            endchar
          </CharString>
          <CharString index="89">
            rmoveto
            109 -1180 173 0 569 1118 85 -1118 176 0 601 1165 89 174 38 24 118 16 rlinecurve
            14 68 -425 0 -15 -68 139 -18 9 -32 -78 -159 rlinecurve
            -444 -918 -60 926 -10 154 16 27 143 20 rlinecurve
            15 68 -548 0 -15 -68 138 -19 8 -33 -74 -154 rlinecurve
            -444 -921 -64 927 -10 148 19 33 146 19 rlinecurve
            15 68 -569 0 -13 -68 102 -15 33 -25 14 -159 rlinecurve
            endchar
          </CharString>
          <CharString index="90">
            -51 -13 -33 hhcurveto
            -46 -17 32 59 13 hvcurveto
            271 1280 -390 -45 -15 -66 77 -14 rlineto
            51 -12 9 -18 -10 -49 -75 -353 rcurveline
            47 -35 -68 39 -106 hhcurveto
            -311 -211 -320 -353 hvcurveto
            return
          </CharString>
          <CharString index="91">
            249 1174 19 89 22 18 150 16 rlinecurve
            15 68 -575 0 -14 -68 rlineto
            135 -15 12 -20 -19 -93 -225 -1057 rcurveline
            -18 -88 -21 -18 -142 -17 -15 -68 rcurveline
            return
          </CharString>
          <CharString index="92">
            1203 rmoveto
            69 callgsubr
            416 hmoveto
            71 56 56 71 66 -50 50 -68 -71 -57 -56 -71 -65 50 -51 69 hvcurveto
            return
          </CharString>
          <CharString index="93">
            rmoveto
            133 132 56 93 68 hvcurveto
            15 74 rlineto
            135 callsubr
            -285 188 -141 197 vhcurveto
            endchar
          </CharString>
          <CharString index="94">
            1516 rmoveto
            -246 -200 -154 200 -80 0 128 -369 155 0 284 369 rlineto
            return
          </CharString>
          <CharString index="95">
            -432 -3 291 -246 366 hhcurveto
            180 162 46 66 88 hvcurveto
            152 callsubr
          </CharString>
          <CharString index="96">
            -93 -66 -51 -22 -40 -40 hvcurveto
            -13 -59 rlineto
            6 15 29 4 26 hhcurveto
            57 40 -29 -46 -50 -45 -29 return
          </CharString>
          <CharString index="97">
            1148 1081 hmoveto
            -32 callsubr
            -16 callsubr
            return
          </CharString>
          <CharString index="98">
            -100 -39 -282 116 callsubr
            -11 callgsubr
            endchar
          </CharString>
          <CharString index="99">
            1239 rmoveto
            558 hlineto
            30 143 rlineto
            -558 hlineto
            return
          </CharString>
          <CharString index="100">
            13 hvcurveto
            171 124 callsubr
            -20 callgsubr
            return
          </CharString>
          <CharString index="101">
            rmoveto
            -156 -381 102 0 292 371 rlineto
            10 vlineto
            return
          </CharString>
          <CharString index="102">
            1837 rmoveto
            -179 -6 hlineto
            212 -278 rlineto
            return
          </CharString>
          <CharString index="103">
            56 -42 44 -58 -60 -49 -48 -62 -56 43 -43 58 hvcurveto
            return
          </CharString>
          <CharString index="104">
            1516 rmoveto
            -245 -200 -154 200 return
          </CharString>
          <CharString index="105">
            1170 606 1010 -96 callsubr
            return
          </CharString>
          <CharString index="106">
            57 -42 44 -58 -60 -49 -48 -62 -56 43 -44 57 return
          </CharString>
          <CharString index="107">
            676 506 191 -86 callsubr
            return
          </CharString>
          <CharString index="108">
            rmoveto
            227 181 144 -181 75 0 return
          </CharString>
          <CharString index="109">
            rmoveto
            95 81 55 113 23 hvcurveto
            -76 hlineto
            -45 return
          </CharString>
          <CharString index="110">
            rmoveto
            172 137 82 128 20 hvcurveto
            return
          </CharString>
          <CharString index="111">
            -90 13 61 -227 155 -49 0 return
          </CharString>
          <CharString index="112">
            rmoveto
            54 51 40 54 12 hvcurveto
            54 11 return
          </CharString>
          <CharString index="113">
            rmoveto
            -391 -49 -15 -65 78 -14 return
          </CharString>
          <CharString index="114">
            -474 -102 callgsubr
            return
          </CharString>
          <CharString index="115">
            -122 -49 callgsubr
          </CharString>
          <CharString index="116">
            rmoveto
            168 -132 133 return
          </CharString>
          <CharString index="117">
            rmoveto
            -144 -173 -46 -26 -120 -15 rrcurveto
            -14 -68 441 0 14 68 -144 22 1 32 111 141 rlinecurve
            290 369 158 -389 48 -117 -13 -35 -148 -22 rlinecurve
            -14 -68 579 0 15 68 -93 22 -35 24 -49 120 rlinecurve
            -210 518 350 416 139 165 46 27 119 15 rlinecurve
            15 68 -441 0 -15 -68 145 -22 -1 -31 -111 -142 rlinecurve
            -276 -352 -152 373 -49 120 15 33 147 21 rlinecurve
            14 68 -581 0 -15 -68 rlineto
            98 -21 33 -25 48 -120 203 -501 rcurveline
            endchar
          </CharString>
          <CharString index="118">
            299 hlineto
            14 64 rlineto
            -71 19 -36 44 -84 211 -132 339 rcurveline
            213 60 158 129 212 vvcurveto
            231 -191 135 -335 vhcurveto
            -526 hlineto
            -14 -68 134 -15 15 -17 -19 -90 rlinecurve
            -227 -1064 -19 -89 -20 -17 -143 -16 rlinecurve
            -14 -68 556 0 14 68 rlineto
            -125 15 -13 18 19 90 94 445 rcurveline
            118 hlineto
            31 30 1 2 30 hvcurveto
            342 435 rmoveto
            -222 -161 -126 -257 -8 vhcurveto
            -116 -4 139 650 99 -3 rlineto
            190 -7 106 -103 -177 vvcurveto
            return
          </CharString>
          <CharString index="119">
            rmoveto
            -374 -1 243 -285 399 hhcurveto
            462 303 395 436 253 -113 211 -193 110 hvcurveto
            -6 35 39 -3 43 hhcurveto
            176 150 72 150 82 -45 75 -59 41 hvcurveto
            -64 hlineto
            7 -16 4 -28 -27 vvcurveto
            -149 -100 -130 -182 vhcurveto
            -114 -78 24 -147 hhcurveto
            -463 -302 -395 -436 hvcurveto
            273 -75 rmoveto
            -98 callgsubr
            -96 callgsubr
            -416 -210 -394 -300 -210 -140 165 323 vhcurveto
            endchar
          </CharString>
          <CharString index="120">
            rmoveto
            -420 -90 239 -203 315 hhcurveto
            325 222 210 356 80 hvcurveto
            193 861 rlineto
            -2 13 14 -1 15 hhcurveto
            154 1 103 74 131 vvcurveto
            78 -42 73 -55 39 vhcurveto
            -63 hlineto
            8 -16 3 -28 -27 vvcurveto
            -152 -110 -126 -207 vhcurveto
            -98 hlineto
            -15 60 callsubr
            -122 -134 -652 rcurveline
            -301 -62 -182 -142 110 callsubr
            -2 callgsubr
            endchar
          </CharString>
          <CharString index="121">
            14 68 rlineto
            -155 16 -13 27 18 86 79 367 rcurveline
            137 hlineto
            376 320 150 326 243 -177 161 -373 hvcurveto
            -509 hlineto
            -14 -68 rlineto
            136 -15 14 -22 -19 -88 -225 -1058 rcurveline
            -20 -88 -22 -22 -142 -15 -15 -68 rcurveline
            703 1365 rmoveto
            88 -4 rlineto
            197 -8 113 -109 -189 vvcurveto
            -260 -179 -139 -268 -9 vhcurveto
            -105 -4 rlineto
            endchar
          </CharString>
          <CharString index="122">
            rmoveto
            -420 hlineto
            -14 -68 126 -16 15 -33 -26 -108 rlinecurve
            -231 -978 -30 -125 -26 -28 -137 -20 rlinecurve
            -14 -68 422 0 14 68 -135 20 -11 27 27 126 rlinecurve
            210 989 195 -1230 119 0 167 305 528 927 -197 -1043 -16 -88 -22 -17 -142 -16 rlinecurve
            -15 -68 -29 callgsubr
            endchar
          </CharString>
          <CharString index="123">
            rmoveto
            -392 -49 -14 -66 78 -14 rlineto
            49 -11 10 -19 -11 -49 -99 -468 rcurveline
            -214 -44 85 -140 196 hhcurveto
            146 130 92 171 76 hvcurveto
            -3 -13 -56 -3 vvcurveto
            -127 -24 47 -68 110 hhcurveto
            91 110 43 59 48 hvcurveto
            16 70 rlineto
            -30 -36 -51 -11 -32 hhcurveto
            -47 -17 32 59 12 hvcurveto
            189 callsubr
            endchar
          </CharString>
          <CharString index="124">
            rmoveto
            375 -1 -279 243 -452 hhcurveto
            -477 hlineto
            -14 -68 rlineto
            134 -16 14 -18 -18 -89 -227 -1062 rcurveline
            -19 -89 -21 -18 -141 -16 -15 -68 rcurveline
            517 hlineto
            574 425 337 489 hvcurveto
            return
          </CharString>
          <CharString index="125">
            rmoveto
            133 129 56 93 70 hvcurveto
            15 74 rlineto
            150 callsubr
            -283 182 -142 202 vhcurveto
            136 952 rmoveto
            71 32 -42 -75 -137 -132 -107 -73 callgsubr
            146 hhcurveto
            return
          </CharString>
          <CharString index="126">
            240 130 248 221 hvcurveto
            171 1 -86 162 -185 hhcurveto
            -238 -131 -244 -224 hvcurveto
            -173 -1 87 -161 183 hhcurveto
            return
          </CharString>
          <CharString index="127">
            -50 -13 -33 hhcurveto
            -48 -16 32 59 13 hvcurveto
            169 788 -125 0 -101 -97 rlineto
            62 -31 -75 56 -127 -75 callgsubr
            -83 callgsubr
            return
          </CharString>
          <CharString index="128">
            16 -145 -25 -35 -147 -20 rlinecurve
            -15 -68 576 0 -39 callgsubr
            -707 316 rmoveto
            334 630 72 -630 rlineto
            return
          </CharString>
          <CharString index="129">
            -20 -77 -66 -131 hhcurveto
            -108 -73 63 83 12 1 12 2 9 hvcurveto
            -72 hlineto
            -90 callgsubr
            107 -103 154 vhcurveto
            return
          </CharString>
          <CharString index="130">
            -32 -41 hhcurveto
            -29 -23 15 27 -32 hvcurveto
            -33 29 rlineto
            36 -43 -43 23 -56 hhcurveto
            -94 -73 -70 -222 -26 hvcurveto
            return
          </CharString>
          <CharString index="131">
            rmoveto
            67 -62 125 151 1 1 59 -40 rlineto
            -87 131 72 -23 90 hhcurveto
            79 callsubr
            endchar
          </CharString>
          <CharString index="132">
            255 1 94 329 197 hhcurveto
            105 64 -93 -184 hvcurveto
            -255 -1 -94 -329 -197 hhcurveto
            return
          </CharString>
          <CharString index="133">
            121 hhcurveto
            94 107 44 61 49 hvcurveto
            15 71 rlineto
            -29 -35 -50 -13 -33 hhcurveto
            -47 -16 32 59 12 hvcurveto
            return
          </CharString>
          <CharString index="134">
            67 hlineto
            197 284 rmoveto
            -171 -6 hlineto
            145 -278 rlineto
            62 hlineto
            return
          </CharString>
          <CharString index="135">
            -90 -366 rlineto
            62 hlineto
            88 224 79 49 261 12 rrcurveto
            53 2 return
          </CharString>
          <CharString index="136">
            58 41 -49 -137 1 hvcurveto
            -230 1 -76 -253 -123 hhcurveto
            return
          </CharString>
          <CharString index="137">
            1507 rmoveto
            -245 -10 hlineto
            273 -359 rlineto
            77 hlineto
            return
          </CharString>
          <CharString index="138">
            1507 rmoveto
            -216 -7 hlineto
            252 -362 rlineto
            83 hlineto
            return
          </CharString>
          <CharString index="139">
            10 -33 34 -51 hhcurveto
            -10 hlineto
            -52 -47 -34 -46 -10 hvcurveto
            -46 -10 return
          </CharString>
          <CharString index="140">
            1628 rmoveto
            504 hlineto
            27 127 rlineto
            -503 hlineto
            return
          </CharString>
          <CharString index="141">
            1628 rmoveto
            503 hlineto
            27 127 rlineto
            -503 hlineto
            return
          </CharString>
          <CharString index="142">
            80 0 -128 369 -155 0 -284 -369 rlineto
            return
          </CharString>
          <CharString index="143">
            rmoveto
            113 hlineto
            1230 1444 rlineto
            -113 hlineto
            return
          </CharString>
          <CharString index="144">
            1585 rmoveto
            63 53 51 64 59 -46 46 -62 return
          </CharString>
          <CharString index="145">
            1495 rmoveto
            -186 -114 -134 -211 return
          </CharString>
          <CharString index="146">
            1130 1158 653 51 callsubr
            return
          </CharString>
          <CharString index="147">
            rmoveto
            54 callsubr
            185 callsubr
            endchar
          </CharString>
          <CharString index="148">
            72 69 223 27 hvcurveto
            -76 hlineto
            -110 -18 return
          </CharString>
          <CharString index="149">
            rmoveto
            28 130 -600 -147 -12 -61 rlineto
            return
          </CharString>
          <CharString index="150">
            -155 -729 -57 -267 -53 -140 return
          </CharString>
          <CharString index="151">
            706 464 -18 77 callsubr
            return
          </CharString>
          <CharString index="152">
            77 109 102 -73 68 -117 10 hvcurveto
            return
          </CharString>
          <CharString index="153">
            -19 -89 -20 -18 -142 -16 rlinecurve
            -15 -68 return
          </CharString>
          <CharString index="154">
            rmoveto
            70 56 54 68 -1 hvcurveto
            62 -50 49 return
          </CharString>
          <CharString index="155">
            -138 -115 -85 -160 -66 vhcurveto
            return
          </CharString>
          <CharString index="156">
            326 hmoveto
            52 48 34 46 9 hvcurveto
            return
          </CharString>
          <CharString index="157">
            47 34 46 10 hvcurveto
            46 10 -33 34 return
          </CharString>
          <CharString index="158">
            rmoveto
            233 -120 132 -151 return
          </CharString>
          <CharString index="159">
            1837 rmoveto
            -214 -283 return
          </CharString>
          <CharString index="160">
            1489 -41 callsubr
            return
          </CharString>
          <CharString index="161">
            -253 149 -189 257 return
          </CharString>
          <CharString index="162">
            243 1 -80 callgsubr
            return
          </CharString>
          <CharString index="163">
            46 10 -32 34 -52 hhcurveto
            -10 hlineto
            return
          </CharString>
          <CharString index="164">
            37 56 9 hvcurveto
            -77 hlineto
            -128 return
          </CharString>
          <CharString index="165">
            2 7 hvcurveto
            -67 hlineto
            -11 -26 -7 return
          </CharString>
          <CharString index="166">
            -31 -48 -60 -62 -61 -99 -59 hvcurveto
            return
          </CharString>
          <CharString index="167">
            -68 rlineto
            141 -21 11 -27 -26 return
          </CharString>
          <CharString index="168">
            rlinecurve
            14 68 -561 0 -14 -68 return
          </CharString>
          <CharString index="169">
            rmoveto
            -69 49 -52 73 86 60 54 204 119 vhcurveto
            73 127 42 -130 rlineto
            -180 58 60 -73 116 hhcurveto
            92 71 43 61 38 hvcurveto
            15 70 rlineto
            -24 -25 -33 -15 -34 hhcurveto
            -54 -43 35 148 -46 hvcurveto
            -77 240 108 175 41 66 31 45 27 31 rlinecurve
            -48 15 44 -35 53 hhcurveto
            68 52 56 67 69 -48 52 -74 -86 -63 -54 -205 -115 hvcurveto
            -79 -139 -124 388 -318 -47 -13 -66 73 -12 55 -10 15 -16 17 -53 rlinecurve
            115 -358 -103 -164 -41 -65 -31 -45 -27 -31 rlinecurve
            48 -15 -44 35 -53 hhcurveto
            -68 -52 -56 -67 hvcurveto
            endchar
          </CharString>
          <CharString index="170">
            rmoveto
            287 246 167 275 161 -78 120 -182 120 hvcurveto
            -91 61 rlineto
            -143 93 -52 78 102 vvcurveto
            137 110 87 156 184 110 -117 -222 10 vhcurveto
            61 hlineto
            49 323 rlineto
            62 -76 -160 51 -179 hhcurveto
            -314 -195 -169 -242 -161 89 -117 177 -117 hvcurveto
            91 -61 rlineto
            142 -93 47 -82 -110 vvcurveto
            -158 -133 -91 -158 -192 -139 114 230 -7 vhcurveto
            -61 hlineto
            -53 -325 rlineto
            -63 83 198 -53 173 hhcurveto
            return
          </CharString>
          <CharString index="171">
            rmoveto
            279 229 235 396 63 hvcurveto
            261 40 -76 147 -141 hhcurveto
            -86 -71 -77 -116 10 hvcurveto
            152 -38 56 -146 -30 -182 rrcurveto
            -209 -35 -118 -142 -161 hhcurveto
            -138 -50 88 162 34 hvcurveto
            8 37 69 290 14 65 rrcurveto
            182 38 -67 76 -144 hhcurveto
            -81 -78 -28 -33 -47 hvcurveto
            -14 -66 rlineto
            7 14 18 4 24 hhcurveto
            70 43 -38 -107 -22 hvcurveto
            -18 -82 -68 -292 -8 -39 rrcurveto
            -211 -45 93 -144 244 hhcurveto
            endchar
          </CharString>
          <CharString index="172">
            rmoveto
            -171 -801 -97 callgsubr
            178 41 113 133 108 hhcurveto
            91 38 -75 -117 -24 hvcurveto
            -149 -697 -97 callgsubr
            177 40 112 134 110 hhcurveto
            90 39 -75 -125 -27 hvcurveto
            -102 -480 rlineto
            -153 -32 -1 callgsubr
            196 callsubr
            endchar
          </CharString>
          <CharString index="173">
            rmoveto
            -61 67 128 -42 139 hhcurveto
            230 160 135 175 119 -49 86 -132 84 hvcurveto
            -74 48 rlineto
            -90 58 -35 44 69 vvcurveto
            80 57 54 102 132 70 -100 -139 -2 vhcurveto
            61 hlineto
            51 250 rlineto
            45 -63 -105 31 -144 hhcurveto
            -234 -143 -125 -171 -113 60 -88 124 -79 hvcurveto
            75 -48 rlineto
            93 -60 29 -49 -74 vvcurveto
            -90 -67 -55 -106 -129 -95 93 175 -3 vhcurveto
            -61 hlineto
            return
          </CharString>
          <CharString index="174">
            rmoveto
            -377 hlineto
            -15 -68 128 -16 14 -37 -23 -106 rlinecurve
            -214 -971 -29 -132 -24 -28 -131 -17 rlinecurve
            -15 -69 423 0 14 69 -142 18 -12 26 26 133 rlinecurve
            189 961 554 -1207 189 0 264 1201 29 129 24 28 131 18 rlinecurve
            14 68 -422 0 -14 -68 rlineto
            142 -19 10 -26 -25 -130 -178 -917 rcurveline
            return
          </CharString>
          <CharString index="175">
            162 716 -391 -45 -15 -66 78 -14 -75 callsubr
            -273 -1285 125 0 99 97 rlineto
            -63 31 75 -55 127 hhcurveto
            90 callgsubr
            -1 -106 -324 -214 hhcurveto
            -79 -55 39 46 -13 hvcurveto
            94 437 rlineto
            188 42 98 101 96 hhcurveto
            87 52 -67 -170 -1 hvcurveto
            return
          </CharString>
          <CharString index="176">
            1646 932 -28 rmoveto
            428 346 342 472 374 -284 314 -401 -427 -347 -343 -471 -375 285 -313 400 hvcurveto
            -1 65 rmoveto
            -352 -258 281 342 440 326 309 375 353 257 -283 -340 -442 -325 -307 -376 hvcurveto
            return
          </CharString>
          <CharString index="177">
            rmoveto
            212 997 19 89 20 19 142 15 rlinecurve
            14 69 -564 0 -15 -69 135 -15 14 -18 -19 -90 rlinecurve
            -206 -971 -74 -344 218 callsubr
            197 138 77 358 rlinecurve
            endchar
          </CharString>
          <CharString index="178">
            1186 rmoveto
            96 41 callsubr
            -28 -32 -41 hhcurveto
            -28 -24 15 27 -31 hvcurveto
            -33 29 rlineto
            36 -44 -43 23 -55 hhcurveto
            -94 -74 -70 -222 -26 hvcurveto
            76 hlineto
            110 18 27 31 41 hhcurveto
            29 23 -14 -28 32 hvcurveto
            33 -28 42 -36 45 -24 54 1 rlinecurve
            return
          </CharString>
          <CharString index="179">
            rmoveto
            -140 -711 rlineto
            -209 -42 86 -98 163 hhcurveto
            116 107 54 64 65 hvcurveto
            13 65 rlineto
            -31 -40 -57 -11 -56 hhcurveto
            -108 -49 57 145 34 hvcurveto
            12 49 138 580 12 46 rrcurveto
            endchar
          </CharString>
          <CharString index="180">
            1487 778 -27 rmoveto
            325 223 210 356 79 hvcurveto
            148 663 29 126 23 27 131 21 rlinecurve
            15 68 -421 0 -14 60 callsubr
            201 callsubr
            return
          </CharString>
          <CharString index="181">
            109 91 125 119 -104 73 -135 -165 -109 -91 -125 vhcurveto
            156 -17 rmoveto
            89 55 70 61 53 31 -38 -64 -89 -54 -70 -62 -53 -31 38 64 vhcurveto
            return
          </CharString>
          <CharString index="182">
            566 659 rmoveto
            240 130 248 220 172 -86 162 -184 -238 -132 -245 -224 1 hvcurveto
            -173 -1 87 -160 183 hhcurveto
            return
          </CharString>
          <CharString index="183">
            51 -51 68 hvcurveto
            415 hmoveto
            69 callgsubr
            return
          </CharString>
          <CharString index="184">
            rmoveto
            108 111 35 callgsubr
            118 558 153 callsubr
            -118 -559 rlineto
            -209 -44 86 -127 179 hhcurveto
            return
          </CharString>
          <CharString index="185">
            rmoveto
            -58 -40 47 136 -2 hvcurveto
            228 -1 76 257 123 hhcurveto
            57 41 -49 -136 2 hvcurveto
            -230 1 -77 -253 -122 hhcurveto
            return
          </CharString>
          <CharString index="186">
            122 123 74 186 91 hvcurveto
            -47 39 rlineto
            -87 -53 -58 -29 -56 hhcurveto
            -81 4 callgsubr
            26 17 92 hhcurveto
            330 hlineto
            return
          </CharString>
          <CharString index="187">
            1583 rmoveto
            169 102 116 106 callgsubr
            return
          </CharString>
          <CharString index="188">
            rlineto
            50 -12 10 -18 -10 -49 -229 -1076 rcurveline
            -153 -33 -84 callgsubr
            -50 -13 -33 hhcurveto
            -47 -17 32 59 12 hvcurveto
            return
          </CharString>
          <CharString index="189">
            708 1445 -7 callgsubr
            -9 -50 424 0 10 50 -100 10 -26 12 12 54 rlinecurve
            return
          </CharString>
          <CharString index="190">
            -76 hlineto
            -56 -16 -95 -37 -117 hhcurveto
            -117 -79 57 callsubr
            -36 103 -82 172 hhcurveto
            endchar
          </CharString>
          <CharString index="191">
            hhcurveto
            -10 hlineto
            -51 -48 126 callsubr
            return
          </CharString>
          <CharString index="192">
            rmoveto
            -391 -49 -15 -65 77 -14 50 -12 10 -18 -10 -50 rlinecurve
            -156 21 callgsubr
          </CharString>
          <CharString index="193">
            1395 rmoveto
            58 46 43 58 57 -46 44 -58 -58 -46 -44 -57 -58 46 -43 58 hvcurveto
            return
          </CharString>
          <CharString index="194">
            1515 rmoveto
            -90 -77 -40 -55 -42 hvcurveto
            -13 -62 rlineto
            24 31 46 16 50 hhcurveto
            73 return
          </CharString>
          <CharString index="195">
            -20 hvcurveto
            66 hlineto
            89 14 23 25 33 hhcurveto
            24 19 -12 -22 26 hvcurveto
            26 -22 rlineto
            -29 return
          </CharString>
          <CharString index="196">
            rmoveto
            -64 -52 -51 -64 -59 46 -46 62 63 53 51 64 59 -47 46 -61 hvcurveto
            endchar
          </CharString>
          <CharString index="197">
            1184 618 1009 rmoveto
            -66 callsubr
            134 callsubr
            return
          </CharString>
          <CharString index="198">
            250 1175 52 -2 253 -12 60 -45 -5 -228 rlinecurve
            62 hlineto
            return
          </CharString>
          <CharString index="199">
            1507 rmoveto
            -127 -380 97 0 257 370 rlineto
            10 vlineto
            return
          </CharString>
          <CharString index="200">
            59 49 49 61 56 -42 44 -58 -60 -49 -48 -62 -56 43 -44 58 hvcurveto
            return
          </CharString>
          <CharString index="201">
            -52 hhcurveto
            -9 hlineto
            -52 -47 -34 -46 -11 hvcurveto
            -46 -9 33 -34 52 hhcurveto
            endchar
          </CharString>
          <CharString index="202">
            -148 73 0 -127 283 -141 0 -245 -283 rlineto
            return
          </CharString>
          <CharString index="203">
            1507 rmoveto
            -244 -10 hlineto
            272 -359 rlineto
            77 hlineto
            return
          </CharString>
          <CharString index="204">
            -250 -1175 -18 -87 -23 -19 -160 -16 rlinecurve
            -15 -68 return
          </CharString>
          <CharString index="205">
            -17 callsubr
            55 callsubr
            -83 callgsubr
            return
          </CharString>
          <CharString index="206">
            -55 1 -49 17 -33 25 -16 -65 rcurveline
            -46 44 66 -31 86 hhcurveto
            return
          </CharString>
          <CharString index="207">
            1879 rmoveto
            -78 -68 -34 -46 -36 hvcurveto
            -12 -52 rlineto
            20 return
          </CharString>
          <CharString index="208">
            1595 rmoveto
            80 61 57 183 21 hvcurveto
            -66 hlineto
            -89 return
          </CharString>
          <CharString index="209">
            1515 rmoveto
            -89 -78 -40 -55 -41 hvcurveto
            -14 -62 rlineto
            24 return
          </CharString>
          <CharString index="210">
            1457 rmoveto
            555 hlineto
            24 116 rlineto
            -554 hlineto
            return
          </CharString>
          <CharString index="211">
            1239 rmoveto
            558 hlineto
            31 143 rlineto
            -559 hlineto
            return
          </CharString>
          <CharString index="212">
            -149 189 -257 -330 -209 -281 -316 return
          </CharString>
          <CharString index="213">
            243 369 rmoveto
            -206 -7 hlineto
            169 -362 rlineto
            return
          </CharString>
          <CharString index="214">
            67 63 201 23 hvcurveto
            -70 hlineto
            -100 -16 -26 -28 -38 hhcurveto
            return
          </CharString>
          <CharString index="215">
            -80 0 128 -369 155 0 283 369 rlineto
            return
          </CharString>
          <CharString index="216">
            1486 728 1444 67 callsubr
            return
          </CharString>
          <CharString index="217">
            -203 hhcurveto
            -224 -146 145 339 73 hvcurveto
            return
          </CharString>
          <CharString index="218">
            606 0 15 68 -155 17 -14 18 18 87 rlinecurve
            return
          </CharString>
          <CharString index="219">
            0 128 -369 156 0 283 369 rlineto
            return
          </CharString>
          <CharString index="220">
            -67 -70 -56 -54 -68 vhcurveto
            -63 1 50 -48 67 hhcurveto
            endchar
          </CharString>
          <CharString index="221">
            rmoveto
            -417 -263 -332 -443 -20 vhcurveto
            -99 -4 return
          </CharString>
          <CharString index="222">
            rmoveto
            262 419 -198 0 -132 -419 rlineto
            return
          </CharString>
          <CharString index="223">
            -10 rrcurveto
            -282 -11 1011 1301 13 64 return
          </CharString>
          <CharString index="224">
            -45 callgsubr
            hvcurveto
            -56 -1 43 -43 58 hhcurveto
            return
          </CharString>
          <CharString index="225">
            1882 rmoveto
            -169 -102 -116 -183 return
          </CharString>
          <CharString index="226">
            -15 19 -18 -20 -90 rlinecurve
            -248 -1166 return
          </CharString>
          <CharString index="227">
            -33 -30 vvcurveto
            -122 2 98 -88 141 hhcurveto
            return
          </CharString>
          <CharString index="228">
            -94 -65 -52 -22 -40 -39 hvcurveto
            -14 -59 rlineto
            6 return
          </CharString>
          <CharString index="229">
            rmoveto
            551 -78 13 61 -538 147 rlineto
            return
          </CharString>
          <CharString index="230">
            1079 932 -16 131 callsubr
            return
          </CharString>
          <CharString index="231">
            801 -390 -54 -13 -61 75 -14 rlineto
            return
          </CharString>
          <CharString index="232">
            9 -47 hhcurveto
            -94 -82 -54 -113 -23 hvcurveto
            return
          </CharString>
          <CharString index="233">
            -34 -46 -10 hvcurveto
            -46 -10 33 -34 52 hhcurveto
            return
          </CharString>
          <CharString index="234">
            -72 -75 -61 -60 -75 -70 53 -54 73 hvcurveto
            return
          </CharString>
          <CharString index="235">
            rmoveto
            -66 54 -49 64 67 53 53 63 44 -25 39 -36 18 vhcurveto
            19 40 50 12 56 hhcurveto
            167 63 -118 -190 -26 hvcurveto
            -8 -52 -153 -14 rlineto
            -318 -29 -170 -110 -189 vvcurveto
            -143 118 -96 166 176 121 107 187 49 vhcurveto
            -193 41 140 -101 175 hhcurveto
            142 122 60 88 67 hvcurveto
            15 72 rlineto
            -57 -63 -81 -35 -87 hhcurveto
            -168 -88 126 208 hvcurveto
            15 1 16 15 vvcurveto
            70 5 385 26 137 122 1 150 rlinecurve
            144 1 -125 84 -181 hhcurveto
            -124 -118 -54 -96 -93 hvcurveto
            95 -55 -108 55 -154 hhcurveto
            -203 -157 -102 -129 hvcurveto
            1000 143 rmoveto
            78 41 -54 -74 -1 hvcurveto
            -2 -108 -82 -106 -244 -23 -59 -5 rcurveline
            213 29 104 157 136 hhcurveto
            -890 -677 rmoveto
            121 94 80 202 22 vhcurveto
            102 10 -8 -52 rlineto
            -238 -36 -90 -87 -118 hhcurveto
            -85 -61 49 95 hvcurveto
            endchar
          </CharString>
          <CharString index="236">
            rmoveto
            -995 hlineto
            -826 -1189 -102 -148 -40 -25 -121 -14 rlinecurve
            -14 -68 448 0 14 68 -148 19 -8 29 92 139 rlinecurve
            225 334 441 0 -72 -378 -21 -109 -11 -18 -151 -16 rlinecurve
            -14 -68 1076 0 102 405 rlineto
            -58 hlineto
            -104 -252 -93 -52 -266 -12 rrcurveto
            -233 -10 117 617 225 -2 91 -2 19 -37 -6 -164 rlinecurve
            58 hlineto
            102 489 rlineto
            -59 hlineto
            -64 -163 -33 -32 -90 -2 rrcurveto
            -226 -1 110 583 217 -10 247 -11 37 -47 11 -219 rlinecurve
            60 hlineto
            -896 280 rmoveto
            73 hlineto
            -131 -679 rlineto
            -398 hlineto
            endchar
          </CharString>
          <CharString index="237">
            1355 507 191 rmoveto
            109 514 139 0 279 -705 327 0 14 64 -66 22 -43 47 -85 211 rlinecurve
            -213 533 298 272 172 155 63 50 122 22 rlinecurve
            14 68 -462 0 -14 -68 142 -14 6 -45 -123 -122 rlinecurve
            -415 -408 -137 0 99 466 18 89 22 19 131 15 rlinecurve
            14 68 -555 0 -14 -68 135 -16 13 -18 -39 callsubr
            -18 -104 callgsubr
            554 0 14 68 -124 15 -13 19 19 89 rlinecurve
            return
          </CharString>
          <CharString index="238">
            rmoveto
            90 67 41 61 39 hvcurveto
            15 71 rlineto
            -24 -23 -31 -15 -32 hhcurveto
            -53 -41 39 154 -54 hvcurveto
            -115 335 140 112 163 129 68 33 94 19 rlinecurve
            11 58 -419 0 -12 -58 125 -13 10 -30 -118 -102 rlinecurve
            -335 -289 209 984 -391 -45 -14 -66 77 -14 -75 callsubr
            -56 callsubr
            88 415 110 86 82 -249 rlineto
            -186 61 65 -82 113 hhcurveto
            return
          </CharString>
          <CharString index="239">
            -141 -116 -88 -163 -66 vhcurveto
            54 242 -382 -49 -14 -65 77 -14 -98 callsubr
            rlinecurve
            -232 -1096 -13 -59 -21 -15 -126 -21 rlinecurve
            -14 -70 552 0 14 70 rlineto
            -151 23 -19 12 12 62 76 360 rcurveline
            -48 35 69 -40 106 hhcurveto
            90 callgsubr
            -108 -324 -213 -80 -54 39 46 -13 vhcurveto
            93 437 rlineto
            188 43 98 101 96 hhcurveto
            87 52 -67 -170 -1 hvcurveto
            endchar
          </CharString>
          <CharString index="240">
            rmoveto
            92 82 64 133 27 -44 callgsubr
            7 16 -36 hvcurveto
            -27 11 rlineto
            17 -39 -39 11 -46 hhcurveto
            -91 -82 -64 -132 -29 hvcurveto
            76 hlineto
            52 11 31 21 42 hhcurveto
            26 25 -7 -15 36 hvcurveto
            27 -11 rlineto
            -17 39 38 -12 47 hhcurveto
            -276 -1166 -97 callsubr
          </CharString>
          <CharString index="241">
            -171 -801 235 0 122 577 rlineto
            179 41 120 133 113 98 callgsubr
            -84 callgsubr
            -51 -13 -33 hhcurveto
            -47 -17 32 59 13 hvcurveto
            100 465 rlineto
            216 46 -85 128 -192 hhcurveto
            -156 -126 -98 -182 -78 hvcurveto
            return
          </CharString>
          <CharString index="242">
            -66 -69 -90 -27 -74 hhcurveto
            -152 -105 118 205 271 132 225 190 39 32 -9 -15 27 hvcurveto
            -55 -13 -40 -48 -58 vvcurveto
            -67 52 -52 68 73 56 55 72 127 -106 98 -178 vhcurveto
            -300 -1 -233 -265 -347 vvcurveto
            return
          </CharString>
          <CharString index="243">
            rmoveto
            -376 -49 -14 -65 77 -14 -98 callsubr
            rlinecurve
            -170 -801 234 0 134 662 rlineto
            100 68 112 60 119 hhcurveto
            38 33 -5 -9 20 hvcurveto
            12 18 11 35 34 vvcurveto
            70 -34 46 -66 -92 -74 -73 -214 -140 vhcurveto
            return
          </CharString>
          <CharString index="244">
            1162 rmoveto
            157 151 89 186 61 hvcurveto
            -73 26 rlineto
            -149 -53 -108 -73 -125 hhcurveto
            -44 -38 11 19 -29 hvcurveto
            51 6 43 49 59 vvcurveto
            68 -53 50 -64 -75 -52 -57 -75 -124 108 -85 143 vhcurveto
            return
          </CharString>
          <CharString index="245">
            rmoveto
            165 109 64 86 71 hvcurveto
            16 72 rlineto
            -70 -79 -99 -35 -116 hhcurveto
            -112 -77 51 82 85 43 53 154 58 hvcurveto
            44 17 rlineto
            179 65 117 79 174 vvcurveto
            163 return
          </CharString>
          <CharString index="246">
            144 hlineto
            35 168 117 0 26 122 -117 0 101 480 -101 0 -515 -530 -15 -72 rlineto
            360 hlineto
            27 122 rmoveto
            -242 hlineto
            310 320 rlineto
            endchar
          </CharString>
          <CharString index="247">
            63 201 24 hvcurveto
            -71 hlineto
            -100 -16 -25 -28 -38 hhcurveto
            -27 -22 13 25 -29 hvcurveto
            -31 25 rlineto
            33 -41 -40 20 -52 hhcurveto
            -87 -68 -63 -200 -23 hvcurveto
            71 hlineto
            100 16 25 28 38 hhcurveto
            return
          </CharString>
          <CharString index="248">
            -9 -32 -19 -42 hhcurveto
            -26 -27 -93 callgsubr
            -40 -41 125 callsubr
            77 hlineto
            45 9 31 18 42 hhcurveto
            28 25 -6 -13 37 hvcurveto
            29 -10 rlineto
            -14 41 40 -10 47 hhcurveto
            endchar
          </CharString>
          <CharString index="249">
            rmoveto
            463 302 395 435 78 callgsubr
            -375 242 -285 399 hvcurveto
            -18 96 rmoveto
            -210 -141 165 322 400 33 callgsubr
            return
          </CharString>
          <CharString index="250">
            -93 -66 -52 -22 -40 -39 hvcurveto
            -13 -59 rlineto
            6 15 29 4 26 hhcurveto
            56 41 -29 -46 -50 -45 -29 -67 -48 -41 18 19 -30 hvcurveto
            -13 -61 rlineto
            -36 35 64 -27 74 hhcurveto
            endchar
          </CharString>
          <CharString index="251">
            40 124 123 108 98 callgsubr
            -1 callgsubr
            100 465 rlineto
            216 46 -85 128 -192 hhcurveto
            -152 -128 -92 -189 -81 hvcurveto
            return
          </CharString>
          <CharString index="252">
            16 80 -262 0 39 172 -239 -19 -32 -153 -158 0 -16 -80 157 0 -258 -1215 234 0 125 589 rlineto
            177 return
          </CharString>
          <CharString index="253">
            -6 hvcurveto
            67 hlineto
            98 18 69 58 118 hhcurveto
            97 66 -54 -72 -12 -1 -10 -1 -8 hvcurveto
            67 hlineto
            10 26 8 33 31 vvcurveto
            121 -2 -99 88 -140 hhcurveto
            return
          </CharString>
          <CharString index="254">
            -54 -52 -41 -54 -11 hvcurveto
            -53 -12 34 -41 54 hhcurveto
            344 hmoveto
            54 51 41 53 -38 callgsubr
            -53 -52 -41 -54 -12 hvcurveto
            -53 -11 34 -41 54 hhcurveto
            return
          </CharString>
          <CharString index="255">
            rmoveto
            222 7 158 149 196 vvcurveto
            116 -65 65 -82 -96 -58 -85 -96 -2 vhcurveto
            77 -15 51 -44 -71 vvcurveto
            -84 -79 -62 -111 -9 vhcurveto
            endchar
          </CharString>
          <CharString index="256">
            rmoveto
            93 81 64 133 27 hvcurveto
            -74 hlineto
            -52 -12 -31 -22 -41 hhcurveto
            -25 -26 7 16 -36 hvcurveto
            -27 11 rlineto
            17 -39 -39 11 -18 callgsubr
            endchar
          </CharString>
          <CharString index="257">
            -66 -69 -92 -27 -74 hhcurveto
            -145 -103 68 callgsubr
            131 -113 82 -172 -283 -251 -261 -353 return
          </CharString>
          <CharString index="258">
            hlineto
            -14 -68 132 -16 15 -17 -19 -90 rlinecurve
            -225 -1062 -20 -90 -20 -16 -141 -17 rlinecurve
            -15 -68 587 0 return
          </CharString>
          <CharString index="259">
            70 329 -62 -1 rlineto
            -230 -95 -144 -114 -175 hhcurveto
            -240 -159 220 310 hvcurveto
            endchar
          </CharString>
          <CharString index="260">
            270 -5 21 100 -272 -12 51 239 -244 -37 -43 -200 -153 -28 -12 -62 145 0 return
          </CharString>
          <CharString index="261">
            16 50 hhcurveto
            74 36 59 callsubr
            87 hlineto
            152 58 93 70 94 vvcurveto
            87 -73 67 -113 vhcurveto
            return
          </CharString>
          <CharString index="262">
            -66 54 72 11 0 11 2 7 hvcurveto
            -67 hlineto
            -10 -26 -7 -33 -30 vvcurveto
            -122 1 98 -88 141 hhcurveto
            return
          </CharString>
          <CharString index="263">
            hhcurveto
            56 40 -29 -46 -50 -45 -29 -66 -48 -42 18 19 -29 hvcurveto
            -14 -61 rlineto
            -36 36 64 -27 74 hhcurveto
            endchar
          </CharString>
          <CharString index="264">
            rmoveto
            71 55 54 68 hvcurveto
            62 -1 -50 49 -67 hhcurveto
            -70 -56 -54 -68 hvcurveto
            -63 1 50 -48 67 hhcurveto
            endchar
          </CharString>
          <CharString index="265">
            rmoveto
            70 55 54 68 hvcurveto
            62 -1 -49 49 -68 hhcurveto
            -70 -56 -54 -68 1 hvcurveto
            -63 50 -48 68 vhcurveto
            endchar
          </CharString>
          <CharString index="266">
            32 -26 -42 -50 -55 -51 -87 -51 hvcurveto
            75 hlineto
            133 49 82 60 80 vvcurveto
            74 -64 56 -101 vhcurveto
            return
          </CharString>
          <CharString index="267">
            -12 -1 -10 -2 -8 hvcurveto
            68 hlineto
            10 26 7 33 31 vvcurveto
            121 -1 -99 88 -140 hhcurveto
            return
          </CharString>
          <CharString index="268">
            hlineto
            -67 -165 -33 -33 -91 -2 rrcurveto
            -233 -1 125 586 221 -9 232 -9 return
          </CharString>
          <CharString index="269">
            474 1253 rmoveto
            -225 -1062 rlineto
            -20 -92 -24 -15 -137 -16 -14 -68 rcurveline
            return
          </CharString>
          <CharString index="270">
            168 -761 47 callsubr
            -67 -70 -56 -54 -68 -63 51 -48 67 vhcurveto
            endchar
          </CharString>
          <CharString index="271">
            1859 rmoveto
            -214 -57 callgsubr
            145 0 245 284 rlineto
            return
          </CharString>
          <CharString index="272">
            rmoveto
            -63 -53 -51 -64 -59 46 -46 62 64 52 51 64 59 -46 46 -62 hvcurveto
            endchar
          </CharString>
          <CharString index="273">
            1823 rmoveto
            568 hlineto
            21 98 rlineto
            -568 hlineto
            41 -367 rmoveto
            52 return
          </CharString>
          <CharString index="274">
            1477 rmoveto
            535 -92 15 71 -518 173 rlineto
            -97 -460 rmoveto
            return
          </CharString>
          <CharString index="275">
            273 1286 78 -4 rlineto
            309 -17 145 -214 -278 vvcurveto
            return
          </CharString>
          <CharString index="276">
            -9 131 621 233 -2 91 -2 19 -37 -6 -166 rlinecurve
            58 hlineto
            return
          </CharString>
          <CharString index="277">
            1583 rmoveto
            168 103 116 183 6 hvcurveto
            -68 hlineto
            -97 -18 return
          </CharString>
          <CharString index="278">
            396 435 164 -46 147 -86 113 hvcurveto
            164 164 -60 60 -160 -160 rlineto
            107 -110 -154 65 -189 hhcurveto
            -463 -303 -396 -435 1 hvcurveto
            -164 46 -147 86 -114 vhcurveto
            -165 -164 60 -60 161 161 rlineto
            -108 110 154 -64 189 hhcurveto
            -368 584 rmoveto
            -98 callgsubr
            136 108 -70 -138 58 vhcurveto
            -793 -791 rlineto
            -12 55 -7 63 71 vvcurveto
            350 -488 rmoveto
            -137 -107 70 139 -58 hvcurveto
            793 791 rlineto
            13 -56 6 -63 -71 vvcurveto
            -416 -210 -394 -300 vhcurveto
            endchar
          </CharString>
          <CharString index="279">
            rmoveto
            -225 -16 117 -166 211 hhcurveto
            151 107 98 170 60 hvcurveto
            -175 3 123 -93 161 hhcurveto
            279 183 272 331 16 hvcurveto
            274 14 -117 162 -144 hhcurveto
            -91 -66 -80 -114 10 hvcurveto
            165 -37 107 -136 -9 -198 rrcurveto
            -189 -8 -111 -161 -140 hhcurveto
            -135 -79 100 279 62 hvcurveto
            51 232 -223 0 -51 -243 rlineto
            -270 -57 -67 -98 -111 hhcurveto
            -99 -56 83 181 10 hvcurveto
            12 267 113 224 172 102 rrcurveto
            -29 47 -316 -89 -186 -265 -16 -283 rlinecurve
            endchar
          </CharString>
          <CharString index="280">
            -231 25 vhcurveto
            218 23 202 104 3 211 rrcurveto
            200 2 -178 129 -358 hhcurveto
            -500 hlineto
            -14 -68 rlineto
            135 -16 13 -18 -18 -90 -227 -1061 rcurveline
            -19 -89 -21 -18 -140 -16 -15 -68 rcurveline
            535 hlineto
            455 290 169 282 hvcurveto
            -205 659 rmoveto
            -179 -128 -132 -223 -1 vhcurveto
            -146 hlineto
            121 567 100 -3 rlineto
            183 -7 93 -86 -159 vvcurveto
            -72 -668 rmoveto
            -211 -149 -138 -327 -11 vhcurveto
            -101 -3 136 640 145 -2 rlineto
            192 -1 104 -108 -166 vvcurveto
            return
          </CharString>
          <CharString index="281">
            rmoveto
            146 118 88 179 111 hvcurveto
            -192 14 63 -69 118 hhcurveto
            69 76 43 44 36 hvcurveto
            14 66 rlineto
            -11 -15 -30 -9 -26 hhcurveto
            -82 -32 24 228 -33 hvcurveto
            -13 86 308 541 rlineto
            -247 hlineto
            -21 -84 -46 -129 -42 -111 rrcurveto
            244 -24 -90 101 -178 hhcurveto
            -256 -215 -265 -365 -16 hvcurveto
            -240 -18 95 -169 216 hhcurveto
            -49 448 rmoveto
            313 15 110 180 132 hhcurveto
            108 20 -107 -372 28 hvcurveto
            3 -59 rlineto
            -191 -90 -89 -80 -95 hhcurveto
            -103 -53 101 215 14 hvcurveto
            endchar
          </CharString>
          <CharString index="282">
            rmoveto
            218 166 76 121 91 hvcurveto
            13 74 rlineto
            -74 -71 -150 -58 -147 hhcurveto
            -146 -78 60 96 2 hvcurveto
            125 2 113 57 235 hhcurveto
            54 hlineto
            8 161 rlineto
            -72 hlineto
            -203 -63 58 89 4 hvcurveto
            99 3 82 68 166 hhcurveto
            86 65 -16 -26 45 hvcurveto
            -45 -16 -24 -47 -42 vvcurveto
            -57 47 -51 69 65 51 50 71 117 -96 104 -272 -311 -152 -134 -167 -3 vhcurveto
            -4 -111 71 -88 146 -29 -197 -24 -121 -89 -4 -149 rrcurveto
            -144 -5 127 -104 235 hhcurveto
            endchar
          </CharString>
          <CharString index="283">
            rmoveto
            329 207 282 315 102 -25 92 -46 73 hvcurveto
            112 114 -57 56 -105 -107 rlineto
            69 -68 -96 41 -119 hhcurveto
            -328 -207 -282 -314 -104 25 -93 47 -74 hvcurveto
            -107 -108 57 -56 101 102 rlineto
            -68 68 95 -40 117 hhcurveto
            -167 367 rmoveto
            256 1 95 327 198 hhcurveto
            79 57 -51 -103 23 hvcurveto
            -452 -459 rlineto
            -1 10 0 10 10 vvcurveto
            172 -280 rmoveto
            -78 -56 50 99 -24 hvcurveto
            451 458 rlineto
            -7 0 -9 -8 vvcurveto
            -256 -95 -327 -198 vhcurveto
            endchar
          </CharString>
          <CharString index="284">
            702 1249 rmoveto
            3 -117 -163 -28 -114 -11 -11 -55 rcurveline
            1 12 18 3 22 hhcurveto
            118 59 -65 -77 hvcurveto
            -110 1 -82 -62 -93 hhcurveto
            -44 -34 9 15 -25 hvcurveto
            22 13 14 24 27 vvcurveto
            41 -30 33 -43 -44 -33 -33 -44 -94 118 -60 121 158 158 89 161 vhcurveto
            -2 94 -64 73 -107 27 109 14 119 61 -1 111 rrcurveto
            113 -110 58 -114 -124 -110 -72 -128 -43 vhcurveto
            40 -17 rlineto
            73 38 57 38 73 hhcurveto
            85 45 -51 -54 1 hvcurveto
            return
          </CharString>
          <CharString index="285">
            rmoveto
            80 61 34 44 32 hvcurveto
            14 67 rlineto
            -17 -21 -28 -12 -32 hhcurveto
            -62 -40 58 85 66 28 70 60 63 hvcurveto
            456 7 297 393 431 vvcurveto
            374 -242 286 -399 -463 -303 -396 -435 1 vhcurveto
            -354 217 -275 362 -29 vhcurveto
            -132 -84 -82 -103 -104 vvcurveto
            -99 82 -70 114 vhcurveto
            62 554 rmoveto
            -209 -141 165 323 -98 callgsubr
            -96 callgsubr
            -416 -210 -394 -300 hvcurveto
            endchar
          </CharString>
          <CharString index="286">
            243 hlineto
            121 582 rlineto
            202 44 104 105 120 hhcurveto
            92 67 -67 -181 -37 hvcurveto
            -32 -156 -152 -694 -55 -251 rrcurveto
            242 hlineto
            11 49 213 1025 12 57 rrcurveto
            236 48 -111 111 -186 hhcurveto
            -172 -117 -113 -148 -62 hvcurveto
            190 26 -73 61 -118 hhcurveto
            -76 -70 -25 -33 -52 hvcurveto
            -15 -66 rlineto
            5 16 20 4 26 hhcurveto
            66 44 -37 -124 -23 hvcurveto
            -26 -148 -99 -423 -39 -161 rrcurveto
            endchar
          </CharString>
          <CharString index="287">
            rmoveto
            -15 -86 -146 -25 -13 -62 144 0 -159 -929 -44 -258 -61 -76 -88 -11 rlinecurve
            17 20 10 26 29 vvcurveto
            63 -49 47 -59 -61 -50 -48 -65 -89 72 -71 123 206 172 173 509 89 vhcurveto
            120 685 234 -5 22 100 -243 -10 27 152 rlineto
            219 37 64 78 91 hhcurveto
            5 hlineto
            -22 -20 -15 -30 -34 vvcurveto
            -64 50 -48 60 65 51 50 66 93 -83 74 -146 -207 -143 -156 -297 -55 vhcurveto
            endchar
          </CharString>
          <CharString index="288">
            rmoveto
            -79 62 -61 93 171 128 109 332 231 vhcurveto
            553 794 87 125 38 26 128 18 rlinecurve
            14 68 -446 0 -14 -68 164 -18 -4 -21 -83 -127 rlinecurve
            -437 -663 -163 675 -30 122 0 13 178 19 rlinecurve
            14 68 -605 0 -14 -68 121 -18 26 -19 31 -114 rlinecurve
            255 -929 -79 -107 -73 -74 -78 -35 rlinecurve
            4 12 2 13 14 vvcurveto
            75 -59 58 -74 -78 -63 -63 -77 vhcurveto
            endchar
          </CharString>
          <CharString index="289">
            rmoveto
            -1009 hlineto
            -14 -68 136 -16 12 -18 -18 -89 rlinecurve
            -227 -1062 -19 -89 -20 -18 -142 -16 rlinecurve
            -14 -68 586 0 15 68 -155 17 -15 18 19 87 rlinecurve
            106 501 212 -1 88 -2 19 -36 -7 -167 rlinecurve
            57 hlineto
            104 487 rlineto
            -58 hlineto
            -66 -165 -32 -32 -88 -2 rrcurveto
            -212 -2 126 594 198 -8 226 -9 60 -47 6 -223 rlinecurve
            62 hlineto
            endchar
          </CharString>
          <CharString index="290">
            13 -17 3 -48 66 -810 rcurveline
            148 hlineto
            160 219 125 222 61 168 40 -609 rcurveline
            145 hlineto
            280 307 248 393 179 vvcurveto
            86 -56 56 -80 -77 -59 -56 -73 -69 57 -56 72 vhcurveto
            4 4 0 4 hhcurveto
            -55 -194 -128 -203 -156 -189 rrcurveto
            -52 831 -215 -35 8 -122 -11 -202 -136 -244 -122 -209 rlinecurve
            return
          </CharString>
          <CharString index="291">
            rmoveto
            86 80 53 54 37 hvcurveto
            14 73 rlineto
            -26 -37 -31 -12 -30 hhcurveto
            -46 -38 27 74 -40 hvcurveto
            -206 373 109 110 70 73 46 50 37 33 rlinecurve
            -60 10 47 -42 66 hhcurveto
            67 58 55 71 -1 hvcurveto
            67 -45 61 -85 -93 -69 -71 -168 -154 vhcurveto
            -248 -275 108 505 26 callgsubr
            106 495 190 -339 rlineto
            -124 63 50 -48 95 hhcurveto
            endchar
          </CharString>
          <CharString index="292">
            330 209 280 314 162 -63 139 -125 75 vhcurveto
            -12 45 53 -8 51 hhcurveto
            179 122 73 139 79 -41 70 -56 38 hvcurveto
            -61 hlineto
            6 -16 4 -27 -27 vvcurveto
            -144 -109 -115 -165 vhcurveto
            -76 -61 19 -97 hhcurveto
            -332 -219 -262 -335 hvcurveto
            242 -76 rmoveto
            25 callsubr
            -105 -65 92 185 1 hvcurveto
            return
          </CharString>
          <CharString index="293">
            rmoveto
            77 69 33 45 35 hvcurveto
            15 67 rlineto
            -17 -21 -30 -12 -31 hhcurveto
            -61 -43 51 88 70 29 76 47 60 hvcurveto
            308 21 193 271 304 vvcurveto
            253 105 callsubr
            -238 132 -181 229 -21 vhcurveto
            -122 -83 -71 -103 -103 vvcurveto
            -100 76 -73 114 vhcurveto
            53 549 rmoveto
            -105 -65 92 185 1 hvcurveto
            25 callsubr
            endchar
          </CharString>
          <CharString index="294">
            561 hlineto
            14 68 -126 15 -19 18 19 90 rlinecurve
            8 40 828 824 -184 -864 -19 -92 -20 -15 -139 -16 rlinecurve
            -14 216 callsubr
            -56 callgsubr
            14 68 -561 0 -14 -68 130 -16 15 -15 -19 -92 rlinecurve
            -10 -48 -828 -824 185 872 19 91 24 16 -48 callgsubr
            70 callgsubr
            endchar
          </CharString>
          <CharString index="295">
            605 0 15 68 -154 17 -15 18 18 87 rlinecurve
            99 462 407 515 131 166 38 26 110 17 rlinecurve
            15 68 -417 0 -14 -68 139 -18 2 -36 -112 -150 rlinecurve
            -326 -439 -150 450 -46 137 16 38 144 18 rlinecurve
            15 68 -570 0 -14 -68 100 -16 28 -26 55 -153 rlinecurve
            return
          </CharString>
          <CharString index="296">
            160 749 rlineto
            -1 10 12 -1 11 hhcurveto
            120 91 65 122 77 -40 69 -58 38 hvcurveto
            -60 hlineto
            6 -16 4 -27 -27 vvcurveto
            -148 -92 -101 -260 -34 vhcurveto
            -122 -17 -13 -60 74 -14 rlineto
            49 -13 10 -18 -10 -49 -86 -404 rcurveline
            -167 -38 -102 -118 -124 hhcurveto
            -99 -42 72 131 28 hvcurveto
            return
          </CharString>
          <CharString index="297">
            1329 490 rmoveto
            219 -169 161 -366 1 vhcurveto
            -146 1 80 382 19 89 25 16 144 17 rlinecurve
            14 68 -570 0 -14 -68 rlineto
            131 -16 17 -17 -20 -90 -225 -1062 rcurveline
            -19 -90 -21 -16 -141 -17 -14 -68 rcurveline
            565 hlineto
            423 287 195 295 hvcurveto
            return
          </CharString>
          <CharString index="298">
            154 -1180 177 0 649 1164 96 172 32 27 119 16 rlinecurve
            14 68 -429 0 -15 -68 142 -21 16 -30 -86 -160 rlinecurve
            -496 -935 -107 946 -16 145 25 35 148 20 rlinecurve
            14 68 -576 0 -14 -68 104 -15 28 -27 21 -157 rlinecurve
            return
          </CharString>
          <CharString index="299">
            rmoveto
            332 202 282 313 254 -153 190 -256 -332 -202 -283 -312 -254 152 -190 257 hvcurveto
            2 89 rmoveto
            -107 -62 93 185 1 hvcurveto
            254 102 329 186 108 61 -93 -186 vhcurveto
            -253 -1 -101 -329 -187 hhcurveto
            endchar
          </CharString>
          <CharString index="300">
            247 -314 rmoveto
            130 95 54 83 17 hvcurveto
            82 17 -71 55 -130 hhcurveto
            -72 hlineto
            -127 -97 -55 -82 -17 hvcurveto
            -83 -18 74 -54 127 hhcurveto
            78 72 rmoveto
            -54 hlineto
            -44 -19 27 38 8 hvcurveto
            38 8 32 27 43 hhcurveto
            54 hlineto
            46 18 -27 -38 -8 hvcurveto
            -38 -8 -31 -27 -45 hhcurveto
            return
          </CharString>
          <CharString index="301">
            -10 -49 -82 -387 rcurveline
            -277 -59 129 89 callgsubr
            -172 92 -214 -67 -64 -10 -12 -39 hvcurveto
            -56 -265 rmoveto
            39 185 rlineto
            9 33 45 7 45 hhcurveto
            137 73 -74 -137 -160 -95 -116 -131 -133 -52 106 180 39 hvcurveto
            endchar
          </CharString>
          <CharString index="302">
            -242 -34 -122 -574 rlineto
            -166 -38 -114 -129 -120 hhcurveto
            -92 -31 74 122 26 hvcurveto
            151 707 -244 -32 -121 -579 rlineto
            -165 -39 -114 -127 -119 hhcurveto
            -92 -30 74 122 25 hvcurveto
            return
          </CharString>
          <CharString index="303">
            101 468 rlineto
            216 47 -88 125 -187 hhcurveto
            -150 -126 -106 -173 -66 hvcurveto
            4 1 2 5 0 hhcurveto
            162 18 -78 108 -175 hhcurveto
            -151 -119 -93 -187 -76 hvcurveto
            58 271 -66 callsubr
            return
          </CharString>
          <CharString index="304">
            rmoveto
            -276 hlineto
            -11 -50 73 42 callgsubr
            245 0 11 50 -75 10 -7 15 15 -27 callgsubr
            -74 8 -8 10 9 46 rlinecurve
            101 541 9 44 13 12 79 9 rlinecurve
            11 50 -290 0 -297 -526 rlineto
            return
          </CharString>
          <CharString index="305">
            12 -17 5 -48 68 -810 rcurveline
            149 hlineto
            290 315 251 383 182 vvcurveto
            85 -58 56 -78 -77 -59 -56 -73 -69 57 -56 72 5 5 0 1 4 vhcurveto
            -56 -190 -136 -205 -158 -192 rrcurveto
            return
          </CharString>
          <CharString index="306">
            1638 rmoveto
            -76 -69 -31 -34 -41 hvcurveto
            -14 83 callgsubr
            -39 -26 -77 -20 rrcurveto
            50 -45 125 30 79 44 19 86 rlinecurve
            85 18 -78 47 -97 hhcurveto
            -587 -525 -44 callsubr
            -25 callsubr
            return
          </CharString>
          <CharString index="307">
            -483 rmoveto
            80 71 31 42 37 hvcurveto
            15 67 rlineto
            -18 -28 -34 -11 -38 hhcurveto
            -60 -39 29 66 79 52 88 154 93 hvcurveto
            84 50 -73 0 -95 -50 rlineto
            -223 -122 -82 -91 -102 vvcurveto
            -92 76 -59 103 vhcurveto
            endchar
          </CharString>
          <CharString index="308">
            -126 -132 -648 rcurveline
            -300 -62 -182 -143 110 callsubr
            40 callgsubr
            rlineto
            117 -20 16 -20 -21 -95 -137 -645 rcurveline
            -420 -89 238 -203 316 hhcurveto
            return
          </CharString>
          <CharString index="309">
            308 -813 rmoveto
            66 -60 callgsubr
            72 -23 90 hhcurveto
            121 123 74 186 92 hvcurveto
            -47 39 rlineto
            -87 -53 -59 -29 -56 hhcurveto
            -80 4 callgsubr
            25 17 93 hhcurveto
            330 hlineto
            endchar
          </CharString>
          <CharString index="310">
            rrcurveto
            219 6 146 87 150 hhcurveto
            47 41 -9 -14 34 hvcurveto
            -39 -16 -29 -35 -51 vvcurveto
            -60 43 -54 71 64 51 51 65 119 -124 98 -208 -243 -245 -146 -301 -7 vhcurveto
            return
          </CharString>
          <CharString index="311">
            0 195 126 rlineto
            207 136 71 71 117 vvcurveto
            121 -102 67 -122 -141 -97 -80 -123 -45 vhcurveto
            39 -17 rlineto
            76 40 57 38 70 hhcurveto
            84 47 -50 -69 2 hvcurveto
            1 -89 return
          </CharString>
          <CharString index="312">
            1655 rmoveto
            -300 -106 -254 106 -16 -73 216 -182 47 0 292 182 rlineto
            -545 -446 5 callsubr
            -33 41 return
          </CharString>
          <CharString index="313">
            -544 0 248 1167 19 91 20 16 137 15 rlinecurve
            14 68 -555 0 -14 -68 126 -14 17 -18 -19 -90 rlinecurve
            -248 -1167 -545 0 248 1166 return
          </CharString>
          <CharString index="314">
            1007 222 290 rmoveto
            61 -45 110 -37 139 -6 rrcurveto
            -43 -202 64 0 42 201 rlineto
            252 6 158 131 178 vvcurveto
            114 -56 88 -152 86 vhcurveto
            return
          </CharString>
          <CharString index="315">
            147 3 239 rlinecurve
            380 3 200 253 314 hhcurveto
            256 155 -172 -287 -3 hvcurveto
            -3 -307 -163 -254 -292 -77 rrcurveto
            -60 -276 610 0 return
          </CharString>
          <CharString index="316">
            1773 rmoveto
            94 81 55 112 28 callgsubr
            -40 10 -48 hhcurveto
            -93 -83 -55 -113 -23 hvcurveto
            77 hlineto
            45 10 30 19 43 0 callgsubr
            -63 callgsubr
            return
          </CharString>
          <CharString index="317">
            -513 -326 rmoveto
            65 51 50 64 60 -46 45 -61 -64 -52 -50 -65 -59 46 -45 61 hvcurveto
            585 hmoveto
            64 51 50 64 60 -45 45 -62 -64 -52 -50 -65 -59 46 -45 62 hvcurveto
            return
          </CharString>
          <CharString index="318">
            545 1465 rmoveto
            -64 -1 -45 -38 -13 -93 -10 -67 -2 -92 -3 -115 rrcurveto
            -3 -198 60 0 68 175 rlineto
            62 159 44 99 65 vvcurveto
            63 -32 43 -62 vhcurveto
            return
          </CharString>
          <CharString index="319">
            0 -14 -68 rlineto
            148 -18 24 -32 -30 -131 -40 -172 -31 -125 -61 -218 -71 -260 -65 -187 -84 -98 rrcurveto
            74 -4 -54 54 -79 hhcurveto
            -82 -61 -64 -78 return
          </CharString>
          <CharString index="320">
            -26 -25 8 15 -36 hvcurveto
            -28 11 rlineto
            17 -38 -39 11 -47 hhcurveto
            -91 -83 -64 -132 -27 hvcurveto
            75 hlineto
            52 12 30 21 42 hhcurveto
            26 25 -7 -15 36 hvcurveto
            28 -12 rlineto
            -16 return
          </CharString>
          <CharString index="321">
            -1 hvcurveto
            144 -91 101 -154 -192 -126 -145 return
          </CharString>
          <CharString index="322">
            -31 hvcurveto
            -33 29 rlineto
            36 -43 -44 23 -55 hhcurveto
            -94 -74 -70 return
          </CharString>
          <CharString index="323">
            -68 561 0 14 68 -128 15 -20 17 20 91 rlinecurve
            return
          </CharString>
          <CharString index="324">
            -98 -142 rrcurveto
            -15 -56 230 0 134 637 rlineto
            return
          </CharString>
          <CharString index="325">
            -103 -128 -234 -145 rlinecurve
            20 -58 365 153 return
          </CharString>
          <CharString index="326">
            hhcurveto
            327 hmoveto
            51 47 34 46 11 30 callgsubr
            return
          </CharString>
          <CharString index="327">
            rmoveto
            78 63 61 78 74 -61 60 -80 -78 -63 -61 -78 -74 return
          </CharString>
        <CharString name=".notdef">
          2048 33 -494 -59 callgsubr
          -108 -2444 rmoveto
          131 hlineto
          519 2444 rlineto
          -131 hlineto
          -110 -2444 -59 callgsubr
          -109 -2444 -59 callgsubr
          -110 -2444 rmoveto
          133 hlineto
          519 2444 rlineto
          -133 hlineto
          endchar
        </CharString>
        <CharString name=".null">
          0 endchar
        </CharString>
        <CharString name="A">
          1367 1234 267 -103 callsubr
        </CharString>
        <CharString name="AE">
          1949 2091 1444 129 callsubr
        </CharString>
        <CharString name="AEacute">
          1949 1621 -92 callsubr
          -40 callsubr
          243 -392 129 callsubr
        </CharString>
        <CharString name="AEmacron">
          1949 1267 34 callsubr
          797 -311 129 callsubr
        </CharString>
        <CharString name="Aacute">
          1367 1117 -92 callsubr
          -79 callsubr
          -111 -1569 -103 callsubr
        </CharString>
        <CharString name="Abreve">
          1367 1039 80 callsubr
          155 callsubr
          195 -1316 -103 callsubr
        </CharString>
        <CharString name="Abreveacute">
          1367 1345 1847 -41 callgsubr
          233 -238 3 callsubr
          -77 hlineto
          -56 -15 -95 -37 -118 hhcurveto
          -116 -80 57 callsubr
          -35 103 -82 172 hhcurveto
          240 -1263 -103 callsubr
        </CharString>
        <CharString name="Abrevecyrillic">
          1367 995 1591 rmoveto
          164 137 -21 callgsubr
          -67 -47 -52 -69 -103 88 -88 140 vhcurveto
          239 -1324 -103 callsubr
        </CharString>
        <CharString name="Abrevedotbelow">
          1367 1039 80 callsubr
          155 callsubr
          195 -1316 rmoveto
          -37 callsubr
          21 callsubr
          -358 -772 -87 callsubr
        </CharString>
        <CharString name="Abrevegrave">
          1367 777 1847 rmoveto
          552 73 callgsubr
          -77 hlineto
          -56 -15 -95 -37 -118 hhcurveto
          -116 -80 57 callsubr
          -35 103 -82 172 hhcurveto
          240 -1263 -103 callsubr
        </CharString>
        <CharString name="Abrevehookabove">
          1367 1064 1972 rmoveto
          -77 -70 -27 -28 -41 hvcurveto
          -12 -51 rlineto
          13 28 41 callgsubr
          126 25 81 37 15 73 rlinecurve
          73 15 -80 40 -100 hhcurveto
          -70 -442 3 callsubr
          -77 hlineto
          -56 -15 -95 -37 -118 hhcurveto
          -116 -80 57 callsubr
          -35 103 -82 172 hhcurveto
          240 -1263 -103 callsubr
        </CharString>
        <CharString name="Abrevetilde">
          1367 1171 1794 rmoveto
          94 81 54 113 28 callgsubr
          -41 10 -47 hhcurveto
          -93 -83 -55 -113 -23 hvcurveto
          76 hlineto
          45 11 30 18 43 hhcurveto
          26 27 -6 -13 37 hvcurveto
          29 -10 rlineto
          -14 40 40 -9 48 hhcurveto
          -177 -264 3 callsubr
          -77 hlineto
          -56 -15 -95 -37 -118 hhcurveto
          -116 -80 57 callsubr
          -35 103 -82 172 hhcurveto
          240 -1263 -103 callsubr
        </CharString>
        <CharString name="Acaron">
          1367 1244 164 callsubr
          -90 -1592 -103 callsubr
        </CharString>
        <CharString name="Acircumflex">
          1367 822 -84 callsubr
          146 95 callsubr
          490 -1287 -103 callsubr
        </CharString>
        <CharString name="Acircumflexacute">
          1367 1340 1826 rmoveto
          28 129 -600 -147 -12 -60 rlineto
          -54 -254 rmoveto
          304 90 264 4 callsubr
          -291 -155 rlineto
          518 -1288 -103 callsubr
        </CharString>
        <CharString name="Acircumflexdotbelow">
          1367 822 -84 callsubr
          146 95 callsubr
          490 -1287 rmoveto
          -37 callsubr
          21 callsubr
          -358 -772 -87 callsubr
        </CharString>
        <CharString name="Acircumflexgrave">
          1367 773 100 callgsubr
          -97 -461 rmoveto
          304 90 264 4 callsubr
          -291 -155 rlineto
          518 -1288 -103 callsubr
        </CharString>
        <CharString name="Acircumflexhookabove">
          1367 1315 1927 rmoveto
          -75 -66 -28 -28 -40 hvcurveto
          -11 -50 rlineto
          13 26 48 12 46 hhcurveto
          61 32 -22 -34 -8 hvcurveto
          -8 -34 -38 -23 -74 -17 rrcurveto
          51 -38 120 26 78 37 15 73 rlinecurve
          73 16 -78 40 -95 hhcurveto
          -613 -433 rmoveto
          304 90 264 4 callsubr
          -291 -155 rlineto
          518 -1288 -103 callsubr
        </CharString>
        <CharString name="Acircumflextilde">
          1367 1166 1773 rmoveto
          95 81 55 112 23 hvcurveto
          -76 hlineto
          -45 -10 -31 -18 -42 hhcurveto
          -27 -26 6 13 -37 hvcurveto
          -29 10 rlineto
          14 -41 -40 10 -47 hhcurveto
          -94 -82 -55 -113 -23 hvcurveto
          76 hlineto
          45 10 31 19 43 hhcurveto
          26 27 -7 -12 37 hvcurveto
          28 -11 rlineto
          -14 41 40 -9 47 hhcurveto
          -464 -279 rmoveto
          304 90 264 4 callsubr
          -291 -155 rlineto
          518 -1288 -103 callsubr
        </CharString>
        <CharString name="Acyrillic">
          1367 1234 267 -103 callsubr
        </CharString>
        <CharString name="Adblgrave">
          1367 828 -5 callsubr
          27 callsubr
          73 -1286 -103 callsubr
        </CharString>
        <CharString name="Adieresis">
          1367 864 -57 callsubr
          -4 callsubr
          -55 callsubr
          -4 callsubr
          47 -1324 -103 callsubr
        </CharString>
        <CharString name="Adieresismacron">
          1367 772 166 callsubr
          48 34 46 9 hvcurveto
          46 11 -34 34 -51 hhcurveto
          -9 hlineto
          -52 -47 -34 -46 -11 hvcurveto
          -46 -9 32 -34 52 hhcurveto
          326 hmoveto
          52 48 34 46 10 30 callgsubr
          92 -1287 -103 callsubr
        </CharString>
        <CharString name="Adotaccent">
          1367 1025 101 callgsubr
          209 -1318 -103 callsubr
        </CharString>
        <CharString name="Adotbelow">
          1367 1234 267 rmoveto
          -37 callsubr
          21 callsubr
          -358 -772 -87 callsubr
        </CharString>
        <CharString name="Adotmacron">
          1367 767 37 callgsubr
          41 37 49 48 -46 37 -55 -55 -41 -37 -48 -49 45 -37 56 hvcurveto
          215 -1282 -103 callsubr
        </CharString>
        <CharString name="Agrave">
          1367 966 -43 callsubr
          163 -1286 -103 callsubr
        </CharString>
        <CharString name="Ahookabove">
          1367 1057 100 callsubr
          28 40 -65 callgsubr
          -64 56 -101 vhcurveto
          177 -1612 -103 callsubr
        </CharString>
        <CharString name="Ainvertedbreve">
          1367 1033 118 callsubr
          146 callsubr
          201 -1615 -103 callsubr
        </CharString>
        <CharString name="Alphagreek">
          1367 1234 267 -103 callsubr
        </CharString>
        <CharString name="Alphatonosgreek">
          1367 1234 267 rmoveto
          -37 callsubr
          16 -145 -25 -35 -147 -20 rlinecurve
          -15 -68 576 0 -39 callgsubr
          -753 1177 -6 callsubr
          -192 -861 rmoveto
          334 630 72 -630 rlineto
          endchar
        </CharString>
        <CharString name="Amacron">
          1367 763 34 callsubr
          444 -1488 -103 callsubr
        </CharString>
        <CharString name="Aogonek">
          1367 1034 -481 rmoveto
          80 61 111 callgsubr
          -41 59 88 73 31 76 67 69 hvcurveto
          237 hlineto
          -39 callgsubr
          -37 callsubr
          rlineto
          16 -145 -25 -35 -147 -20 -15 -68 rcurveline
          266 hlineto
          -138 -89 -87 -110 -113 vvcurveto
          -99 82 -70 114 vhcurveto
          -507 1064 rmoveto
          334 630 72 -630 rlineto
          endchar
        </CharString>
        <CharString name="Aring">
          1367 808 -15 callgsubr
          -55 -48 -28 33 58 vhcurveto
          284 -1453 -103 callsubr
        </CharString>
        <CharString name="Aringacute">
          1367 1341 1830 42 callsubr
          267 -236 rmoveto
          124 87 41 62 13 hvcurveto
          62 13 -70 40 -123 hhcurveto
          -68 hlineto
          -121 -90 -40 -62 -13 hvcurveto
          -62 -13 72 -41 121 hhcurveto
          72 54 rmoveto
          -52 hlineto
          -42 -19 19 30 6 hvcurveto
          29 6 28 19 43 hhcurveto
          51 hlineto
          43 19 -19 -29 -6 hvcurveto
          -30 -6 -28 -19 -43 hhcurveto
          206 -1303 -103 callsubr
        </CharString>
        <CharString name="Aringbelow">
          1367 1234 267 rmoveto
          -37 callsubr
          21 callsubr
          -620 -892 rmoveto
          -104 3 -47 callgsubr
          95 callgsubr
          4 hvcurveto
          157 -14 rmoveto
          75 -2 51 58 62 hhcurveto
          52 33 -32 -53 2 hvcurveto
          -75 3 -52 -58 -61 hhcurveto
          -53 -33 31 54 -2 hvcurveto
          endchar
        </CharString>
        <CharString name="Atilde">
          1367 1126 -107 callgsubr
          22 hvcurveto
          -67 47 callgsubr
          -80 -61 -57 -183 -21 hvcurveto
          67 hlineto
          89 13 24 25 32 85 callgsubr
          108 -1328 -103 callsubr
        </CharString>
        <CharString name="B">
          1332 1336 451 9 callsubr
          173 callsubr
          endchar
        </CharString>
        <CharString name="Bdotaccent">
          1332 959 -78 callsubr
          -73 callsubr
          -72 callsubr
          377 -1134 9 callsubr
          173 callsubr
          endchar
        </CharString>
        <CharString name="Bdotbelow">
          50 callgsubr
          -482 -631 -87 callsubr
        </CharString>
        <CharString name="Becyrillic">
          1321 1342 466 rmoveto
          211 -168 157 -368 vhcurveto
          -154 hlineto
          113 530 223 -9 260 -10 41 -48 7 -212 rlinecurve
          61 hlineto
          63 359 -1060 0 -14 -68 rlineto
          144 -17 16 -16 -19 -90 -226 -1062 rcurveline
          -19 -90 -23 -16 -151 -17 -14 -68 rcurveline
          577 hlineto
          415 296 181 285 hvcurveto
          -271 3 rmoveto
          -216 -160 -159 -311 -10 vhcurveto
          -109 -4 142 668 123 -1 rlineto
          200 -2 115 -92 -184 vvcurveto
          endchar
        </CharString>
        <CharString name="Betagreek">
          1332 1336 451 9 callsubr
          173 callsubr
          endchar
        </CharString>
        <CharString name="Blinebelow">
          50 callgsubr
          -758 -804 -81 callsubr
        </CharString>
        <CharString name="C">
          1405 525 599 -53 callsubr
          -12 callsubr
        </CharString>
        <CharString name="Cacute">
          1405 1253 52 callsubr
          76 0 -40 callsubr
          -956 -1237 -53 callsubr
          -12 callsubr
        </CharString>
        <CharString name="Ccaron">
          1405 1381 -83 callsubr
          -68 callsubr
          -936 -1260 -53 callsubr
          -12 callsubr
        </CharString>
        <CharString name="Ccedilla">
          1405 525 599 -53 callsubr
          -3 -403 253 -241 330 -31 rrcurveto
          -114 -126 -13 -63 rlineto
          1 22 1 -47 callsubr
          -76 callgsubr
          155 95 45 callsubr
          73 81 175 2 157 45 86 65 rlinecurve
          152 callsubr
        </CharString>
        <CharString name="Ccedillaacute">
          1405 1253 52 callsubr
          76 0 -40 callsubr
          -956 -1237 -53 callsubr
          -3 -403 253 -241 330 -31 rrcurveto
          -114 -126 -13 -63 rlineto
          1 22 1 -47 callsubr
          -76 callgsubr
          155 95 45 callsubr
          73 81 175 2 157 45 86 65 rlinecurve
          152 callsubr
        </CharString>
        <CharString name="Ccircumflex">
          1405 958 -84 callsubr
          -64 callsubr
          -356 -955 -53 callsubr
          -12 callsubr
        </CharString>
        <CharString name="Cdotaccent">
          1405 1162 -78 callsubr
          -73 callsubr
          -72 callsubr
          -637 -986 -53 callsubr
          -12 callsubr
        </CharString>
        <CharString name="Checyrillic">
          1538 1117 190 rmoveto
          -19 -90 -23 -16 -148 -16 rrcurveto
          -15 -68 573 0 14 68 -129 15 -18 16 19 92 rlinecurve
          -56 callgsubr
          15 68 -561 0 -15 -68 rlineto
          129 -16 17 -16 -20 -91 -113 -532 rcurveline
          -31 -98 -93 -21 -110 hhcurveto
          -213 -89 119 247 53 hvcurveto
          47 219 20 90 22 18 133 14 rlinecurve
          14 68 -557 0 -14 -68 rlineto
          131 -15 16 -17 -19 -90 -45 -216 rcurveline
          -318 -68 169 -150 345 hhcurveto
          139 92 27 36 107 hvcurveto
          endchar
        </CharString>
        <CharString name="Chigreek">
          1324 324 282 10 callsubr
        </CharString>
        <CharString name="D">
          1510 -23 callsubr
          -60 callsubr
          endchar
        </CharString>
        <CharString name="Dbar">
          1510 204 700 rmoveto
          156 hlineto
          -109 -509 rlineto
          -19 -89 -21 -18 -141 -16 -15 -68 rcurveline
          517 hlineto
          574 425 337 489 375 -280 243 -452 hvcurveto
          -477 hlineto
          -14 -68 rlineto
          134 -16 14 -18 -18 -89 -101 -473 rcurveline
          -155 hlineto
          1065 72 114 callsubr
          132 621 262 0 17 80 -262 0 124 585 78 -4 rlineto
          309 -17 145 -214 -278 vvcurveto
          endchar
        </CharString>
        <CharString name="Dcaron">
          1510 1203 -83 callsubr
          -57 callgsubr
          146 0 245 284 rlineto
          288 -1033 17 callsubr
          -60 callsubr
          endchar
        </CharString>
        <CharString name="Dcircumflexbelow">
          1510 -23 callsubr
          -60 callsubr
          -918 -1317 1 callsubr
          8 callsubr
        </CharString>
        <CharString name="Dcommaaccent">
          1510 -23 callsubr
          -60 callsubr
          -728 -1326 -74 callgsubr
          -39 hvcurveto
          -14 -59 rlineto
          6 -105 callgsubr
        </CharString>
        <CharString name="Ddotaccent">
          1510 984 -78 callsubr
          -46 46 -62 -63 -52 -51 -72 callsubr
          587 -759 17 callsubr
          -60 callsubr
          endchar
        </CharString>
        <CharString name="Ddotbelow">
          1510 -23 callsubr
          -60 callsubr
          -698 -1041 165 callsubr
        </CharString>
        <CharString name="Decyrillic">
          1472 642 864 rmoveto
          46 169 52 217 25 105 rrcurveto
          508 hlineto
          -271 -1266 rlineto
          -679 hlineto
          115 126 97 225 107 424 rrcurveto
          819 -775 rmoveto
          -205 hlineto
          248 1164 19 91 25 16 137 16 rlinecurve
          14 68 -1205 0 -14 -68 rlineto
          152 -18 22 -32 -34 -150 -26 -112 -30 -114 -24 -83 -100 -397 -104 -256 -145 -125 rrcurveto
          -140 hlineto
          -91 -401 rlineto
          75 hlineto
          261 128 35 51 192 hhcurveto
          696 hlineto
          191 21 -46 -266 16 hvcurveto
          75 hlineto
          endchar
        </CharString>
        <CharString name="Deltagreek">
          1221 33 1 rmoveto
          1133 hlineto
          13 66 -193 1380 -168 0 -771 -1379 rlineto
          119 17 rmoveto
          603 1111 137 -1111 rlineto
          endchar
        </CharString>
        <CharString name="Djecyrillic">
          1690 1685 419 rmoveto
          269 -171 137 -300 -112 -82 -14 -24 -80 vhcurveto
          123 578 100 -4 230 -10 49 -37 1 -236 rlinecurve
          60 hlineto
          67 366 -1207 0 -87 -366 rlineto
          61 hlineto
          98 234 67 38 -28 callgsubr
          507 rcurveline
          19 72 72 10 83 hhcurveto
          182 102 -96 -202 -309 -149 -297 -303 -152 hvcurveto
          22 -57 rlineto
          425 140 258 311 355 vvcurveto
          endchar
        </CharString>
        <CharString name="Dlinebelow">
          1510 -23 callsubr
          -60 callsubr
          -974 -1214 -81 callsubr
        </CharString>
        <CharString name="Dzecyrillic">
          1132 593 -27 63 callsubr
          endchar
        </CharString>
        <CharString name="Dzhecyrillic">
          1556 162 callsubr
          517 hlineto
          104 16 -27 -286 -16 hvcurveto
          75 hlineto
          286 104 28 27 104 hhcurveto
          518 hlineto
          13 68 -132 16 -17 17 19 90 rlinecurve
          226 1062 19 91 22 15 141 17 rlinecurve
          15 68 -562 0 -13 -68 124 119 callsubr
          -630 0 248 1166 19 92 21 57 callgsubr
        </CharString>
        <CharString name="E">
          1226 1404 1444 -95 callsubr
        </CharString>
        <CharString name="Eacute">
          1226 1054 1837 rmoveto
          -213 -283 75 0 -40 callsubr
          122 -392 -95 callsubr
        </CharString>
        <CharString name="Ebreve">
          1226 977 170 callsubr
          -68 -58 -118 hhcurveto
          -97 -67 54 72 11 1 11 58 callsubr
          120 callsubr
          427 -139 -95 callsubr
        </CharString>
        <CharString name="Ecaron">
          1226 1182 -83 callsubr
          -68 callsubr
          142 -415 -95 callsubr
        </CharString>
        <CharString name="Ecedilla">
          1226 534 7 callsubr
          95 105 1 3 453 -36 callsubr
          66 366 -1036 0 -31 callsubr
          541 0 -136 -150 -74 callsubr
          -47 callsubr
          99 callsubr
          endchar
        </CharString>
        <CharString name="Ecedillabreve">
          1226 977 170 callsubr
          -68 -58 -118 hhcurveto
          -97 -67 54 72 11 1 11 58 callsubr
          120 callsubr
          -443 -2057 -102 callgsubr
          95 105 1 3 453 -36 callsubr
          66 366 -1036 0 -31 callsubr
          541 0 -136 -150 -74 callsubr
          -47 callsubr
          99 callsubr
          endchar
        </CharString>
        <CharString name="Ecircumflex">
          1226 759 -84 callsubr
          -64 callsubr
          722 -110 -95 callsubr
        </CharString>
        <CharString name="Ecircumflexacute">
          1226 1276 1826 rmoveto
          28 129 -599 -147 -12 -60 rlineto
          -54 -254 rmoveto
          303 90 265 4 callsubr
          -292 -155 rlineto
          752 -111 -95 callsubr
        </CharString>
        <CharString name="Ecircumflexbelow">
          1226 1404 1444 rmoveto
          -1036 hlineto
          -31 callsubr
          1081 -36 callsubr
          -993 -1543 1 callsubr
          -121 333 -145 0 -262 -333 rlineto
          endchar
        </CharString>
        <CharString name="Ecircumflexdotbelow">
          1226 759 -84 callsubr
          -64 callsubr
          722 -110 rmoveto
          -1036 hlineto
          -31 callsubr
          1081 -36 callsubr
          -773 -1267 -87 callsubr
        </CharString>
        <CharString name="Ecircumflexgrave">
          1226 709 9 callgsubr
          13 61 -227 155 -49 0 -292 -155 rlineto
          752 -111 -95 callsubr
        </CharString>
        <CharString name="Ecircumflexhookabove">
          1226 1251 1927 rmoveto
          -74 -66 -28 -28 -41 hvcurveto
          -11 -50 rlineto
          13 27 48 12 45 hhcurveto
          56 callgsubr
          78 37 15 73 rlinecurve
          73 15 -77 40 -96 hhcurveto
          -612 -433 rmoveto
          303 90 265 4 callsubr
          -292 -155 rlineto
          752 -111 -95 callsubr
        </CharString>
        <CharString name="Ecircumflextilde">
          1226 1103 1773 rmoveto
          95 81 55 112 23 hvcurveto
          -77 hlineto
          -45 -9 -31 -18 -43 hhcurveto
          -26 -27 6 13 -37 hvcurveto
          29 callgsubr
          19 42 0 callgsubr
          13 61 -227 155 -49 0 -292 -155 rlineto
          752 -111 -95 callsubr
        </CharString>
        <CharString name="Ecyrillic">
          1411 526 599 rmoveto
          32 2 32 2 31 vhcurveto
          655 -8 21 103 -665 -8 rlineto
          351 56 219 243 272 hhcurveto
          213 120 -122 -250 8 hvcurveto
          61 -3 58 322 rlineto
          75 -90 -190 74 -225 hhcurveto
          -470 -323 -342 -478 -3 hvcurveto
          -432 -2 291 -246 365 hhcurveto
          181 162 46 66 87 hvcurveto
          71 329 -62 -1 rlineto
          -230 -95 -144 -114 -176 hhcurveto
          -239 -160 220 310 hvcurveto
          endchar
        </CharString>
        <CharString name="Edblgrave">
          1226 766 -5 callsubr
          27 callsubr
          305 -109 -95 callsubr
        </CharString>
        <CharString name="Edieresis">
          1226 801 -57 callsubr
          1 hvcurveto
          56 -43 44 -57 -60 -49 -48 -62 vhcurveto
          -56 -1 43 -43 58 hhcurveto
          -55 callsubr
          -62 callgsubr
          44 -43 57 hhcurveto
          280 -147 -95 callsubr
        </CharString>
        <CharString name="Edotaccent">
          1226 963 -78 callsubr
          -73 callsubr
          -72 callsubr
          441 -141 -95 callsubr
        </CharString>
        <CharString name="Edotbelow">
          1226 1404 1444 rmoveto
          -1036 hlineto
          -31 callsubr
          1081 -36 callsubr
          -773 -1267 -87 callsubr
        </CharString>
        <CharString name="Efcyrillic">
          1861 210 682 rmoveto
          -273 238 -173 399 -26 vhcurveto
          -10 -45 -18 -86 -21 -18 -144 -14 rlinecurve
          -15 -69 567 0 14 69 rlineto
          -133 14 -19 18 18 86 9 42 rcurveline
          584 18 271 224 313 vvcurveto
          273 -239 174 -399 26 vhcurveto
          9 44 18 86 23 18 142 14 rlinecurve
          14 69 -566 0 -14 -69 rlineto
          135 -14 17 -18 -19 -86 -8 -42 rcurveline
          -583 -20 -270 -223 -312 vvcurveto
          281 -14 rmoveto
          278 154 181 399 23 vhcurveto
          -179 -852 rlineto
          -258 29 -116 138 203 vvcurveto
          1178 108 rmoveto
          -279 -154 -181 -402 -22 vhcurveto
          180 852 rlineto
          260 -28 116 -139 -203 vvcurveto
          endchar
        </CharString>
        <CharString name="Egrave">
          1226 903 -43 callsubr
          396 -109 -95 callsubr
        </CharString>
        <CharString name="Ehookabove">
          1226 995 1879 rmoveto
          -78 -69 -34 -46 -36 hvcurveto
          -11 -52 rlineto
          20 28 40 13 45 hhcurveto
          66 159 callsubr
          409 -435 -95 callsubr
        </CharString>
        <CharString name="Einvertedbreve">
          1226 971 118 callsubr
          -7 hvcurveto
          68 hlineto
          98 18 68 58 119 hhcurveto
          97 66 -54 -72 160 callsubr
          433 -438 -95 callsubr
        </CharString>
        <CharString name="Elcyrillic">
          1484 206 -27 rmoveto
          205 113 211 489 131 hvcurveto
          74 273 48 191 50 220 rrcurveto
          484 hlineto
          -249 -1166 -19 -92 -20 -15 -139 -16 -87 callgsubr
          -129 15 -19 17 19 91 rlinecurve
          226 1062 19 92 25 15 137 16 rlinecurve
          14 68 -1182 212 callsubr
          -86 59 -62 96 hvcurveto
          endchar
        </CharString>
        <CharString name="Emacron">
          1226 700 33 callsubr
          676 -311 -95 callsubr
        </CharString>
        <CharString name="Emacronacute">
          1226 1281 1847 rmoveto
          28 130 -599 -147 -13 -61 rlineto
          -61 callgsubr
          725 -241 -95 callsubr
        </CharString>
        <CharString name="Emacrongrave">
          1226 714 1847 rmoveto
          552 -78 12 61 -537 147 rlineto
          -83 -58 callgsubr
          725 -241 -95 callsubr
        </CharString>
        <CharString name="Emcyrillic">
          1789 797 1444 15 callsubr
        </CharString>
        <CharString name="Encyrillic">
          1569 506 -21 callsubr
          -69 callsubr
          -69 callgsubr
          endchar
        </CharString>
        <CharString name="Eogonek">
          1226 899 -481 rmoveto
          79 62 34 44 32 hvcurveto
          13 67 rlineto
          -17 -20 -29 -12 -31 hhcurveto
          -62 -40 59 88 73 31 76 66 69 hvcurveto
          142 hlineto
          101 405 rlineto
          -61 hlineto
          -108 -265 -80 -42 -275 -10 rrcurveto
          -231 169 callsubr
          104 487 rlineto
          -58 161 callsubr
          58 -46 6 -223 rlinecurve
          60 hlineto
          66 366 -1036 0 -14 -68 rlineto
          134 -16 14 -18 -19 -89 -226 -1062 rcurveline
          -19 -89 -21 -18 -142 -16 -14 -68 rcurveline
          867 hlineto
          -138 -89 -87 -110 -113 vvcurveto
          -99 81 -70 115 vhcurveto
          endchar
        </CharString>
        <CharString name="Epsilongreek">
          1226 1404 1444 -95 callsubr
        </CharString>
        <CharString name="Epsilontonosgreek">
          1573 1750 1444 rmoveto
          -1035 hlineto
          -15 -68 135 -16 14 -18 -39 callsubr
          -20 -89 -20 -18 -142 -16 rlinecurve
          -14 -68 1081 0 101 405 rlineto
          -61 hlineto
          -109 -265 -79 -42 -276 -10 rrcurveto
          -230 169 callsubr
          103 487 rlineto
          -57 161 callsubr
          56 -46 8 -223 rlinecurve
          60 hlineto
          -1301 366 -6 callsubr
          endchar
        </CharString>
        <CharString name="Ercyrillic">
          1292 643 hmoveto
          14 callsubr
        </CharString>
        <CharString name="Ereversedcyrillic">
          1448 434 1350 rmoveto
          -77 -324 rlineto
          61 hlineto
          249 99 148 101 177 hhcurveto
          265 126 -232 -317 -16 0 -15 -1 -15 hvcurveto
          -647 8 -22 -105 662 7 rlineto
          -345 -43 -205 -281 -310 hhcurveto
          -230 -124 133 209 -10 hvcurveto
          -61 hlineto
          -43 -314 rlineto
          -59 71 200 -61 205 hhcurveto
          493 343 354 457 413 -258 274 -403 -154 -164 -49 -72 -98 hvcurveto
          endchar
        </CharString>
        <CharString name="Escyrillic">
          1405 525 599 -53 callsubr
          -12 callsubr
        </CharString>
        <CharString name="Etagreek">
          1569 506 -21 callsubr
          -69 callsubr
          -69 callgsubr
          endchar
        </CharString>
        <CharString name="Etatonosgreek">
          1921 858 -21 callsubr
          -107 -504 -19 -89 -23 -19 -135 -15 rlinecurve
          -14 -68 561 0 15 68 -133 16 -17 20 19 90 rlinecurve
          226 1056 19 89 24 21 140 16 rlinecurve
          14 68 -561 0 -15 -68 129 -15 15 -19 -19 -89 rlinecurve
          -101 -472 -638 0 100 472 19 89 25 19 133 15 rlinecurve
          14 68 -562 0 -14 -68 135 -16 14 -21 -18 -89 rlinecurve
          -226 -1056 -19 -89 -23 -21 -142 -16 rlinecurve
          -14 -68 562 0 14 68 -125 15 -18 19 19 89 rlinecurve
          -474 1253 -6 callsubr
          endchar
        </CharString>
        <CharString name="Etilde">
          1226 1064 1595 25 callgsubr
          -27 22 rlineto
          30 -36 -37 17 -45 -81 callgsubr
          340 -151 -95 callsubr
        </CharString>
        <CharString name="Etildebelow">
          1226 1404 1444 rmoveto
          -1036 hlineto
          -31 callsubr
          1081 -36 callsubr
          -669 -1503 rmoveto
          89 66 140 callsubr
          27 21 -71 callgsubr
        </CharString>
        <CharString name="F">
          1134 1377 1444 182 callsubr
        </CharString>
        <CharString name="Fdotaccent">
          1134 956 37 callsubr
          -64 -52 -51 -72 callsubr
          421 -141 182 callsubr
        </CharString>
        <CharString name="G">
          1541 250 651 -38 callsubr
        </CharString>
        <CharString name="Gacute">
          1541 1239 -92 callsubr
          -79 callsubr
          -1217 -1185 -38 callsubr
        </CharString>
        <CharString name="Gammagreek">
          1171 1412 1444 rmoveto
          -1043 hlineto
          -14 -68 144 -17 16 -16 -19 -90 rlinecurve
          -225 -1062 -20 -90 -22 -16 -152 -17 rlinecurve
          -14 -68 609 0 14 68 -164 20 -16 16 19 86 rlinecurve
          249 1175 217 -9 254 -11 38 -47 6 -213 rlinecurve
          60 hlineto
          endchar
        </CharString>
        <CharString name="Gbreve">
          1541 1161 80 callsubr
          155 callsubr
          -911 -932 -38 callsubr
        </CharString>
        <CharString name="Gcaron">
          1541 1366 164 callsubr
          -1196 -1208 -38 callsubr
        </CharString>
        <CharString name="Gcircumflex">
          1541 944 -84 callsubr
          146 95 callsubr
          -616 -903 -38 callsubr
        </CharString>
        <CharString name="Gcommaaccent">
          1541 250 651 rmoveto
          -428 -3 299 -250 368 hhcurveto
          179 190 55 74 95 hvcurveto
          85 396 19 87 17 20 127 14 rlinecurve
          15 68 -536 0 -14 -68 rlineto
          148 -16 11 -17 -18 -87 -79 -376 rcurveline
          -35 -47 -85 -18 -80 hhcurveto
          -247 -165 210 319 446 245 330 317 215 119 -122 -250 9 hvcurveto
          61 -3 58 322 rlineto
          75 -91 -190 74 -225 hhcurveto
          -470 -325 -342 -478 -2 hvcurveto
          536 -1125 -65 callsubr
          -11 callsubr
          -67 -48 -41 -72 callgsubr
        </CharString>
        <CharString name="Gdotaccent">
          1541 1147 101 callgsubr
          -897 -934 -38 callsubr
        </CharString>
        <CharString name="Geacutecyrillic">
          1139 1017 -92 callsubr
          -79 callsubr
          139 -392 rmoveto
          -1023 151 callsubr
          -13 callgsubr
        </CharString>
        <CharString name="Gecyrillic">
          1139 1384 1444 rmoveto
          -1023 151 callsubr
          -13 callgsubr
        </CharString>
        <CharString name="Germandbls">
          1471 486 hmoveto
          288 1365 177 -7 rlineto
          239 -9 97 -87 -163 vvcurveto
          -146 -100 -101 -178 -28 vhcurveto
          -34 -155 rlineto
          178 -79 79 -116 -158 vvcurveto
          -155 -91 -94 -135 -131 -99 105 213 7 vhcurveto
          -62 hlineto
          -61 -307 rlineto
          -60 67 128 -45 151 hhcurveto
          239 218 150 268 185 -91 151 -179 92 hvcurveto
          175 15 150 107 183 vvcurveto
          201 -160 119 -305 vhcurveto
          -674 hlineto
          -15 -68 rlineto
          137 -16 16 -18 -19 -89 -225 -1062 rcurveline
          -19 -91 -22 -15 -144 -17 -14 -68 rcurveline
          endchar
        </CharString>
        <CharString name="Geupturncyrillic">
          1119 1347 1358 rmoveto
          87 402 rlineto
          -75 hlineto
          -268 -123 -40 -48 -188 hhcurveto
          -647 151 callsubr
          14 68 rlineto
          -148 18 -22 18 18 86 248 1168 rcurveline
          endchar
        </CharString>
        <CharString name="Gmacron">
          1541 885 34 callsubr
          -662 -1104 -38 callsubr
        </CharString>
        <CharString name="H">
          1569 506 -21 callsubr
          -69 callsubr
          -69 callgsubr
          endchar
        </CharString>
        <CharString name="Hacyrillic">
          1324 324 282 10 callsubr
        </CharString>
        <CharString name="Hardsigncyrillic">
          1513 1582 490 rmoveto
          219 -170 161 -365 1 vhcurveto
          -147 1 81 382 19 89 24 16 144 17 rlinecurve
          14 68 -818 0 -87 -359 rlineto
          62 hlineto
          99 237 56 30 213 9 rrcurveto
          43 2 -249 -1173 rlineto
          -19 -88 -21 -17 -146 -17 -14 -68 rcurveline
          570 hlineto
          423 288 195 295 hvcurveto
          -271 7 rmoveto
          -231 -161 -172 -310 -10 vhcurveto
          -109 -4 151 706 115 -1 rlineto
          201 -3 113 -96 -189 vvcurveto
          endchar
        </CharString>
        <CharString name="Hbar">
          1569 506 -21 callsubr
          -108 -504 -18 -89 -20 -19 -135 -15 rlinecurve
          -14 -68 556 0 14 68 -133 16 -15 18 19 89 rlinecurve
          182 851 156 0 16 80 -155 0 27 131 19 89 23 18 140 16 rlinecurve
          14 68 -557 0 -14 -68 129 -15 11 -19 -19 -89 rlinecurve
          -28 -131 -639 0 28 131 19 89 22 19 133 15 rlinecurve
          14 68 -557 0 -14 -68 135 -16 13 -18 -19 -89 rlinecurve
          -28 -131 -155 0 -17 -80 155 0 -181 -851 46 callsubr
          557 0 15 68 -126 15 -14 19 19 89 rlinecurve
          125 590 rmoveto
          55 261 639 0 -55 -261 rlineto
          endchar
        </CharString>
        <CharString name="Hbrevebelow">
          1569 506 -21 callsubr
          -69 callsubr
          -69 callgsubr
          216 -645 rmoveto
          173 105 120 191 7 hvcurveto
          -67 hlineto
          -101 -18 -71 -59 -122 hhcurveto
          -101 -68 23 callgsubr
        </CharString>
        <CharString name="Hcaron">
          1569 1361 -83 callsubr
          -149 53 callgsubr
          -934 -1668 rmoveto
          107 504 639 0 -69 callsubr
          -69 callgsubr
          endchar
        </CharString>
        <CharString name="Hcedilla">
          1569 227 32 callgsubr
          234 vlineto
          14 68 -126 15 -17 19 19 89 rlinecurve
          107 504 639 0 -69 callsubr
          239 0 -133 -150 -13 -63 rlineto
          2 20 1 4 hhcurveto
          75 43 -31 -52 -48 -40 -32 -66 -56 -48 114 callgsubr
        </CharString>
        <CharString name="Hcircumflex">
          1569 938 1553 rmoveto
          216 148 147 -148 72 0 -127 284 -141 0 -245 -284 rlineto
          -354 -1362 rmoveto
          107 504 639 0 -69 callsubr
          -69 callgsubr
          endchar
        </CharString>
        <CharString name="Hdieresis">
          1569 980 1590 rmoveto
          93 callsubr
          323 hmoveto
          93 callsubr
          -797 -1399 rmoveto
          107 504 639 0 -69 callsubr
          -69 callgsubr
          endchar
        </CharString>
        <CharString name="Hdotaccent">
          1569 1141 1585 65 callgsubr
          -635 -1394 rmoveto
          107 504 639 0 -69 callsubr
          -69 callgsubr
          endchar
        </CharString>
        <CharString name="Hdotbelow">
          1569 506 -21 callsubr
          -69 callsubr
          -69 callgsubr
          218 -380 46 callgsubr
        </CharString>
        <CharString name="I">
          0 callsubr
          -89 callsubr
        </CharString>
        <CharString name="IAcyrillic">
          1397 382 983 rmoveto
          -165 102 -104 160 -42 vhcurveto
          -229 -265 -146 -167 -138 -149 -91 -27 rlinecurve
          -14 -64 315 0 539 628 rlineto
          16 17 -1 18 hhcurveto
          137 hlineto
          -93 -436 -19 -92 -24 -15 -135 -16 -87 callgsubr
          rlineto
          -131 16 -17 15 20 92 225 1062 rcurveline
          19 91 20 16 141 16 15 68 rcurveline
          -564 hlineto
          -457 -247 -178 -283 hvcurveto
          265 -6 rmoveto
          232 153 141 315 11 vhcurveto
          109 3 -138 -650 -130 1 rlineto
          -195 1 -114 92 169 vvcurveto
          endchar
        </CharString>
        <CharString name="IJ">
          1353 1195 256 rmoveto
          213 997 19 89 20 -79 callgsubr
          14 -18 -19 -103 callgsubr
          218 callsubr
          197 138 76 358 rlinecurve
          -689 -65 -86 callsubr
          -89 callsubr
        </CharString>
        <CharString name="IJacute">
          1353 785 -92 callsubr
          366 275 rlineto
          8 vlineto
          442 hmoveto
          -214 -283 75 0 -79 callsubr
          -487 -1580 rmoveto
          213 997 19 89 20 -79 callgsubr
          14 -18 -19 -103 callgsubr
          218 callsubr
          197 138 76 358 rlinecurve
          -689 -65 -86 callsubr
          -89 callsubr
        </CharString>
        <CharString name="IUcyrillic">
          2181 54 hmoveto
          561 hlineto
          14 68 rlineto
          -126 15 -19 18 19 90 107 504 rcurveline
          246 hlineto
          -2 -23 0 -23 -22 vvcurveto
          -373 229 -280 387 444 331 384 460 372 -229 283 -387 -2 vhcurveto
          -393 -2 -305 -300 -65 -389 rrcurveto
          -238 hlineto
          100 473 19 91 24 16 -48 callgsubr
          70 callgsubr
          1406 -2 rmoveto
          -234 -108 202 284 380 172 446 320 234 108 -202 -284 -380 -172 -446 -320 hvcurveto
          endchar
        </CharString>
        <CharString name="Iacute">
          676 785 -92 callsubr
          366 275 rlineto
          8 vlineto
          -506 -1646 -86 callsubr
          -89 callsubr
        </CharString>
        <CharString name="Ibreve">
          676 707 1584 rmoveto
          169 102 115 106 callgsubr
          -67 55 72 10 1 11 2 7 hvcurveto
          -67 hlineto
          -10 -26 -8 -33 -30 vvcurveto
          -121 2 98 -88 141 hhcurveto
          -201 -1393 -86 callsubr
          -89 callsubr
        </CharString>
        <CharString name="Icaron">
          676 912 -83 callsubr
          -148 -146 148 -75 0 126 -283 145 0 245 283 rlineto
          -486 -1668 -86 callsubr
          -89 callsubr
        </CharString>
        <CharString name="Icircumflex">
          676 489 -84 callsubr
          -64 callsubr
          94 -1363 -86 callsubr
          -89 callsubr
        </CharString>
        <CharString name="Icyrillic">
          0 callsubr
          -89 callsubr
        </CharString>
        <CharString name="Idblgrave">
          676 496 -5 callsubr
          27 callsubr
          -323 -1362 -86 callsubr
          -89 callsubr
        </CharString>
        <CharString name="Idieresis">
          676 531 -57 callsubr
          1 hvcurveto
          -1 callsubr
          vhcurveto
          323 hmoveto
          59 50 48 61 -1 callsubr
          hvcurveto
          -348 -1400 -86 callsubr
          -89 callsubr
        </CharString>
        <CharString name="Idieresisacute">
          676 1012 1847 rmoveto
          27 129 -599 -147 -13 -60 rlineto
          74 -214 rmoveto
          52 47 34 46 10 hvcurveto
          45 11 -34 35 -51 99 callgsubr
          49 callsubr
          45 10 -32 35 -52 99 callgsubr
          -303 -1364 -86 callsubr
          -89 callsubr
        </CharString>
        <CharString name="Idotaccent">
          676 693 1586 rmoveto
          63 52 50 64 59 -45 46 -62 -64 -52 -50 -65 -59 46 -45 62 hvcurveto
          -187 -1395 -86 callsubr
          -89 callsubr
        </CharString>
        <CharString name="Idotbelow">
          0 callsubr
          135 -14 13 -20 -39 callsubr
          46 callsubr
          -70 callgsubr
          -229 -380 -87 callsubr
        </CharString>
        <CharString name="Iecyrillic">
          1226 1404 1444 -95 callsubr
        </CharString>
        <CharString name="Igrave">
          676 633 1837 -54 callgsubr
          -232 -1363 -86 callsubr
          -89 callsubr
        </CharString>
        <CharString name="Ihookabove">
          676 725 1879 rmoveto
          -78 -69 -33 -46 -35 hvcurveto
          -12 -53 rlineto
          20 28 40 13 45 hhcurveto
          66 33 -26 -41 -51 -56 -51 -87 -50 hvcurveto
          75 hlineto
          133 48 82 60 81 vvcurveto
          73 -64 56 -101 vhcurveto
          -219 -1688 -86 callsubr
          -89 callsubr
        </CharString>
        <CharString name="Iicyrillic">
          1577 54 hmoveto
          187 callsubr
        </CharString>
        <CharString name="Iinvertedbreve">
          676 701 1882 rmoveto
          -169 -102 -115 -183 -6 hvcurveto
          67 hlineto
          98 18 69 57 118 hhcurveto
          97 66 -54 -72 -11 -1 -11 -2 -7 hvcurveto
          68 hlineto
          10 26 7 33 30 vvcurveto
          121 -1 -99 88 -140 hhcurveto
          -195 -1691 -86 callsubr
          -89 callsubr
        </CharString>
        <CharString name="Iishortcyrillic">
          1577 1125 1591 rmoveto
          163 138 -21 callgsubr
          -68 -46 -52 -69 -103 87 -88 141 vhcurveto
          -1071 -1591 rmoveto
          187 callsubr
        </CharString>
        <CharString name="Imacron">
          676 431 1628 rmoveto
          503 hlineto
          27 128 rlineto
          -503 hlineto
          48 -1565 -86 callsubr
          -89 callsubr
        </CharString>
        <CharString name="Iocyrillic">
          1226 801 -57 callsubr
          1 hvcurveto
          56 -43 44 -57 -60 -49 -48 -62 vhcurveto
          -56 -1 43 -43 58 hhcurveto
          -55 callsubr
          -62 callgsubr
          44 -43 57 hhcurveto
          280 -147 -95 callsubr
        </CharString>
        <CharString name="Iogonek">
          0 callsubr
          rlineto
          135 -14 13 -20 -19 -89 -226 -1062 rcurveline
          -19 -89 -20 -18 -142 -16 -15 -68 rcurveline
          259 hlineto
          -139 -89 -87 -110 -113 vvcurveto
          -99 82 -70 115 79 61 34 44 32 vhcurveto
          14 67 rlineto
          -17 -21 -28 -12 -32 hhcurveto
          -62 -39 59 88 73 30 76 67 69 hvcurveto
          234 hlineto
          15 68 -136 16 -12 18 19 89 rlinecurve
          endchar
        </CharString>
        <CharString name="Iotadieresisgreek">
          676 531 -57 callsubr
          1 hvcurveto
          -1 callsubr
          vhcurveto
          323 hmoveto
          59 50 48 61 -1 callsubr
          hvcurveto
          -348 -1400 -86 callsubr
          -89 callsubr
        </CharString>
        <CharString name="Iotagreek">
          0 callsubr
          -89 callsubr
        </CharString>
        <CharString name="Iotatonosgreek">
          1032 861 191 rmoveto
          226 1062 18 89 21 -23 callgsubr
          -136 16 -12 18 19 89 rlinecurve
          -477 1253 -6 callsubr
          endchar
        </CharString>
        <CharString name="Itilde">
          676 794 1595 rmoveto
          80 1 61 56 21 183 rrcurveto
          -66 hlineto
          -88 -14 -23 -25 -33 hhcurveto
          -24 -19 11 23 -26 hvcurveto
          -26 22 rlineto
          29 -37 -36 18 -46 hhcurveto
          -80 -1 -62 -57 -20 -182 rrcurveto
          66 hlineto
          88 14 23 25 33 hhcurveto
          24 19 -11 -22 26 hvcurveto
          26 -23 rlineto
          -29 37 36 -18 46 hhcurveto
          -288 -1404 -86 callsubr
          -89 callsubr
        </CharString>
        <CharString name="Itildebelow">
          0 callsubr
          135 -14 13 -20 -39 callsubr
          46 callsubr
          -70 callgsubr
          -125 -616 rmoveto
          88 67 140 callsubr
          27 21 -71 callgsubr
        </CharString>
        <CharString name="J">
          677 520 256 70 callsubr
        </CharString>
        <CharString name="Jacute">
          677 778 -92 callsubr
          -79 callsubr
          -486 -1580 70 callsubr
        </CharString>
        <CharString name="Jcircumflex">
          677 483 -84 callsubr
          147 -148 72 0 -126 283 -142 0 -245 -283 rlineto
          115 -1298 70 callsubr
        </CharString>
        <CharString name="Jecyrillic">
          677 520 256 70 callsubr
        </CharString>
        <CharString name="K">
          1355 507 191 -19 callsubr
        </CharString>
        <CharString name="Kaacutecyrillic">
          1355 1203 -92 callsubr
          -40 callsubr
          -923 -1645 -19 callsubr
        </CharString>
        <CharString name="Kacute">
          1355 1203 -92 callsubr
          -40 callsubr
          -923 -1645 -19 callsubr
        </CharString>
        <CharString name="Kacyrillic">
          1355 507 191 -19 callsubr
        </CharString>
        <CharString name="Kappagreek">
          1355 507 191 -19 callsubr
        </CharString>
        <CharString name="Kcaron">
          1355 1330 -83 callsubr
          -68 callsubr
          -903 -1668 -19 callsubr
        </CharString>
        <CharString name="Kcommaaccent">
          130 callsubr
          195 -665 -65 callsubr
          143 callsubr
        </CharString>
        <CharString name="Kdotbelow">
          130 callsubr
          225 -380 -87 callsubr
        </CharString>
        <CharString name="Klinebelow">
          130 callsubr
          -51 -553 -53 callgsubr
        </CharString>
        <CharString name="L">
          -10 callsubr
          endchar
        </CharString>
        <CharString name="Lacute">
          1148 785 -92 callsubr
          -40 callsubr
          69 -1836 rmoveto
          -32 callsubr
          -16 callsubr
          endchar
        </CharString>
        <CharString name="Lambdagreek">
          1400 1254 240 rmoveto
          -163 1206 -172 0 -659 -1184 -86 -155 -31 -24 -125 -15 rlinecurve
          -15 -68 441 0 14 68 -157 21 -11 25 105 194 rlinecurve
          478 891 114 -959 15 -125 -20 -29 -152 -18 rlinecurve
          -15 -68 582 0 14 68 -117 14 -23 26 -17 132 rlinecurve
          endchar
        </CharString>
        <CharString name="Lcaron">
          1148 1111 1102 rmoveto
          262 419 -199 0 -132 -419 rlineto
          39 -1102 rmoveto
          -32 callsubr
          -16 callsubr
          endchar
        </CharString>
        <CharString name="Lcircumflexbelow">
          -10 callsubr
          255 -465 1 callsubr
          8 callsubr
        </CharString>
        <CharString name="Lcommaaccent">
          -10 callsubr
          445 -474 -65 callsubr
          121 callsubr
          16 29 4 26 156 callsubr
        </CharString>
        <CharString name="Ldot">
          -10 callsubr
          1002 707 rmoveto
          76 60 59 76 69 -53 54 -73 -75 -61 -60 -75 -70 54 -53 72 hvcurveto
          endchar
        </CharString>
        <CharString name="Ldotbelow">
          -10 callsubr
          475 -189 -87 callsubr
        </CharString>
        <CharString name="Ldotbelowmacron">
          1148 430 33 callsubr
          623 -1755 rmoveto
          -32 callsubr
          -16 callsubr
          475 -189 -87 callsubr
        </CharString>
        <CharString name="Ljecyrillic">
          2031 51 121 rmoveto
          -86 59 -62 96 205 113 211 489 131 vhcurveto
          74 273 48 191 50 220 rrcurveto
          439 hlineto
          -247 -1167 rlineto
          -19 -88 -23 -17 -156 -17 -14 -68 rcurveline
          582 hlineto
          424 287 195 295 219 -170 162 -365 hvcurveto
          -148 hlineto
          82 383 19 89 24 16 144 17 rlinecurve
          14 68 -1145 212 callsubr
          hvcurveto
          1778 376 rmoveto
          -231 -161 -172 -310 -10 vhcurveto
          -108 -4 149 705 rlineto
          116 hlineto
          200 -2 114 -97 -189 vvcurveto
          endchar
        </CharString>
        <CharString name="Llinebelow">
          -10 callsubr
          199 -362 -53 callgsubr
        </CharString>
        <CharString name="Lslash">
          1148 187 622 rmoveto
          167 47 -102 -478 -18 -88 -21 -18 -142 -17 rlinecurve
          -15 -68 1025 0 -32 callsubr
          142 667 367 105 20 86 -369 -105 89 421 19 89 22 18 150 16 rlinecurve
          15 68 -575 0 -14 -68 135 -15 12 -20 -19 -93 rlinecurve
          -105 -493 -165 -47 rlineto
          endchar
        </CharString>
        <CharString name="M">
          1789 797 1444 15 callsubr
        </CharString>
        <CharString name="Macute">
          1789 1347 -92 callsubr
          -79 callsubr
          -778 -392 15 callsubr
        </CharString>
        <CharString name="Mdotaccent">
          1789 1256 -78 callsubr
          -46 46 -62 -63 -52 -51 -72 callsubr
          -459 -141 15 callsubr
        </CharString>
        <CharString name="Mdotbelow">
          1789 797 1444 rmoveto
          -420 hlineto
          -14 -68 126 -16 15 -33 -26 -108 rlinecurve
          -231 -978 -30 -125 -26 -28 -137 -20 rlinecurve
          -14 -68 422 0 14 68 -135 20 -11 27 27 126 rlinecurve
          210 989 195 -1230 119 0 167 305 528 927 -197 -1043 -16 -88 -22 -17 -142 -16 rlinecurve
          -15 -68 -29 callgsubr
          -206 -511 -87 callsubr
        </CharString>
        <CharString name="Mugreek">
          1789 797 1444 15 callsubr
        </CharString>
        <CharString name="N">
          1486 728 1444 67 callsubr
          endchar
        </CharString>
        <CharString name="Nacute">
          1486 1163 -92 callsubr
          -79 callsubr
          -663 -392 67 callsubr
          endchar
        </CharString>
        <CharString name="Ncaron">
          1486 1291 -83 callsubr
          -149 -147 149 -75 0 127 -284 145 0 245 284 rlineto
          -643 -415 67 callsubr
          endchar
        </CharString>
        <CharString name="Ncircumflexbelow">
          109 callsubr
          -804 -749 1 callsubr
          8 callsubr
        </CharString>
        <CharString name="Ncommaaccent">
          109 callsubr
          -614 -758 rmoveto
          149 95 67 113 106 -77 66 121 callsubr
          -105 callgsubr
        </CharString>
        <CharString name="Ndotaccent">
          1486 1072 -78 callsubr
          -73 callsubr
          -72 callsubr
          -344 -141 67 callsubr
          endchar
        </CharString>
        <CharString name="Ndotbelow">
          109 callsubr
          -584 -473 -87 callsubr
        </CharString>
        <CharString name="Ngrave">
          1486 1012 -43 callsubr
          -389 -109 67 callsubr
          endchar
        </CharString>
        <CharString name="Njecyrillic">
          2114 524 191 rmoveto
          115 544 579 0 -115 -544 rlineto
          -19 -90 -21 -16 -141 -17 -14 -68 rcurveline
          564 hlineto
          423 287 186 280 206 -169 152 -366 hvcurveto
          -156 hlineto
          91 430 19 89 25 16 143 17 rlinecurve
          15 68 -570 0 -14 -68 130 -16 17 -17 -19 -90 rlinecurve
          -91 -429 -579 0 91 429 20 90 23 17 -48 callgsubr
          16 -16 -19 -91 rlinecurve
          -225 -1062 -19 -90 -22 -16 -139 -17 rlinecurve
          -15 -68 561 0 14 68 -126 16 -20 16 20 91 rlinecurve
          1388 281 rmoveto
          -217 -162 -161 -309 -10 vhcurveto
          -108 -4 140 658 124 -1 rlineto
          202 -2 113 -89 -174 vvcurveto
          endchar
        </CharString>
        <CharString name="Nlinebelow">
          109 callsubr
          -860 -646 -81 callsubr
        </CharString>
        <CharString name="Ntilde">
          1486 1173 101 callsubr
          -15 -89 callgsubr
          -25 hvcurveto
          -27 -66 callgsubr
          88 callsubr
          36 36 -18 47 hhcurveto
          -445 -151 67 callsubr
          endchar
        </CharString>
        <CharString name="Nugreek">
          1486 728 1444 67 callsubr
          endchar
        </CharString>
        <CharString name="O">
          1587 885 -23 -100 callsubr
        </CharString>
        <CharString name="OE">
          2008 254 650 rmoveto
          -380 253 -297 412 vhcurveto
          136 78 27 141 hhcurveto
          650 hlineto
          101 405 rlineto
          -58 hlineto
          -104 -253 -93 -52 -266 -11 rrcurveto
          -240 -10 131 617 249 -2 91 -2 19 -37 -7 -164 rlinecurve
          58 hlineto
          104 489 rlineto
          -58 hlineto
          -65 -163 -33 -32 -90 -2 rrcurveto
          -249 -1 123 583 225 -10 246 -10 37 -48 10 -219 rlinecurve
          59 hlineto
          64 366 rlineto
          -721 hlineto
          -139 -77 27 -156 hhcurveto
          -500 -331 -361 -460 hvcurveto
          272 -48 rmoveto
          383 205 393 383 72 57 -10 -16 39 vhcurveto
          -271 -1277 rlineto
          -7 -23 -24 -2 -26 hhcurveto
          -272 -140 228 308 hvcurveto
          endchar
        </CharString>
        <CharString name="Oacute">
          1587 1184 52 callsubr
          76 0 -40 callsubr
          -527 -1859 -100 callsubr
        </CharString>
        <CharString name="Obreve">
          1587 1107 170 callsubr
          -69 -58 -117 hhcurveto
          -98 -66 54 72 11 1 11 58 callsubr
          -33 -30 vvcurveto
          -122 1 99 -88 141 hhcurveto
          -222 -1606 -100 callsubr
        </CharString>
        <CharString name="Ocaron">
          1587 1312 -83 callsubr
          -68 callsubr
          -507 -1882 -100 callsubr
        </CharString>
        <CharString name="Ocircumflex">
          1587 889 -84 callsubr
          -64 callsubr
          73 -1577 -100 callsubr
        </CharString>
        <CharString name="Ocircumflexacute">
          1587 1407 19 callgsubr
          102 -1578 -100 callsubr
        </CharString>
        <CharString name="Ocircumflexdotbelow">
          1587 889 -84 callsubr
          -64 callsubr
          73 -1577 142 callsubr
          -69 -262 -87 callsubr
        </CharString>
        <CharString name="Ocircumflexgrave">
          1587 840 100 callgsubr
          -96 -461 -52 callgsubr
          102 -1578 -100 callsubr
        </CharString>
        <CharString name="Ocircumflexhookabove">
          1587 1382 36 callgsubr
          61 32 -22 -34 -8 hvcurveto
          -7 -34 -38 -23 -75 -17 rrcurveto
          51 -38 121 26 34 callgsubr
          102 -1578 -100 callsubr
        </CharString>
        <CharString name="Ocircumflextilde">
          1587 1234 209 callsubr
          102 -1578 -100 callsubr
        </CharString>
        <CharString name="Ocyrillic">
          1587 885 -23 -100 callsubr
        </CharString>
        <CharString name="Odblgrave">
          1587 896 -5 callsubr
          66 hlineto
          197 284 rmoveto
          -170 -6 hlineto
          145 -278 rlineto
          62 hlineto
          -344 -1576 -100 callsubr
        </CharString>
        <CharString name="Odieresis">
          1587 931 -57 callsubr
          117 callsubr
          -55 callsubr
          117 callsubr
          -369 -1614 -100 callsubr
        </CharString>
        <CharString name="Odieresismacron">
          48 callgsubr
          42 -367 rmoveto
          51 48 34 46 10 hvcurveto
          46 32 callsubr
          32 -34 52 hhcurveto
          327 hmoveto
          52 47 34 46 10 hvcurveto
          81 callgsubr
          32 -34 52 hhcurveto
          -324 -1577 -100 callsubr
        </CharString>
        <CharString name="Odotaccent">
          1587 1093 -78 callsubr
          -73 callsubr
          -72 callsubr
          -208 -1608 -100 callsubr
        </CharString>
        <CharString name="Odotaccentmacron">
          1587 834 37 callgsubr
          42 37 49 -1 hvcurveto
          48 -46 37 -55 -55 -41 -37 -48 vhcurveto
          -49 1 44 -37 56 hhcurveto
          -201 -1572 -100 callsubr
        </CharString>
        <CharString name="Odotbelow">
          1587 885 -23 142 callsubr
          -69 -262 -87 callsubr
        </CharString>
        <CharString name="Ograve">
          1587 1033 -43 callsubr
          -253 -1576 -100 callsubr
        </CharString>
        <CharString name="Ohookabove">
          1587 1125 1879 rmoveto
          -78 -69 -34 -46 -36 hvcurveto
          -12 -52 rlineto
          20 29 40 13 45 hhcurveto
          66 159 callsubr
          -240 -1902 -100 callsubr
        </CharString>
        <CharString name="Ohorn">
          1601 244 636 12 callsubr
        </CharString>
        <CharString name="Ohornacute">
          1601 1185 -92 callsubr
          -79 callsubr
          -1169 -1200 12 callsubr
        </CharString>
        <CharString name="Ohorndotbelow">
          1601 244 636 rmoveto
          -374 -1 243 -285 399 hhcurveto
          462 303 395 436 253 -113 211 -193 110 hvcurveto
          -6 35 39 -3 43 hhcurveto
          176 150 72 150 82 -45 75 -59 41 hvcurveto
          -64 hlineto
          7 -16 4 -28 -27 vvcurveto
          -149 -100 -130 -182 vhcurveto
          -114 -78 24 -147 hhcurveto
          -463 -302 -395 -436 hvcurveto
          273 -75 rmoveto
          -98 callgsubr
          -96 callgsubr
          -416 -210 -394 -300 -210 -140 165 323 vhcurveto
          289 -750 -87 callsubr
        </CharString>
        <CharString name="Ohorngrave">
          1601 1034 -43 callsubr
          -895 -917 12 callsubr
        </CharString>
        <CharString name="Ohornhookabove">
          1601 1125 100 callsubr
          29 39 -65 callgsubr
          -63 56 -102 vhcurveto
          -881 -1243 12 callsubr
        </CharString>
        <CharString name="Ohorntilde">
          1601 1194 -107 callgsubr
          22 hvcurveto
          -67 47 callgsubr
          84 callgsubr
          20 -12 -22 26 hvcurveto
          25 -22 rlineto
          -29 37 36 -18 46 hhcurveto
          -950 -959 12 callsubr
        </CharString>
        <CharString name="Ohungarumlaut">
          1587 1019 1837 -12 callgsubr
          -636 -1860 -100 callsubr
        </CharString>
        <CharString name="Oinvertedbreve">
          1587 1101 1882 rmoveto
          -170 -102 -116 -183 -6 hvcurveto
          68 hlineto
          98 18 68 58 118 hhcurveto
          98 66 -54 -72 160 callsubr
          -216 -1905 -100 callsubr
        </CharString>
        <CharString name="Omacron">
          1587 830 33 callsubr
          27 -1778 -100 callsubr
        </CharString>
        <CharString name="Omacronacute">
          1587 1412 1847 42 callsubr
          -61 callgsubr
          75 -1708 -100 callsubr
        </CharString>
        <CharString name="Omacrongrave">
          1587 845 1847 122 callsubr
          -82 -58 callgsubr
          75 -1708 -100 callsubr
        </CharString>
        <CharString name="Omegagreek">
          1676 147 hmoveto
          587 hlineto
          59 282 -167 72 -98 208 callsubr
          111 334 rlineto
          -54 hlineto
          -111 -158 -99 -29 -346 -2 rrcurveto
          15 72 432 80 233 292 2 306 rlinecurve
          327 3 -267 247 -404 hhcurveto
          -489 -315 -314 -372 -3 hvcurveto
          -3 -269 180 -212 269 -70 rrcurveto
          -18 -87 -345 2 -59 28 -47 159 rlinecurve
          -55 hlineto
          endchar
        </CharString>
        <CharString name="Omegatonosgreek">
          1878 349 hmoveto
          587 hlineto
          60 282 -167 72 -99 208 callsubr
          112 334 rlineto
          -55 hlineto
          -111 -158 -98 -29 -347 -2 rrcurveto
          15 72 432 80 233 292 3 306 rlinecurve
          327 2 -267 247 -403 hhcurveto
          -489 -316 -314 -372 -3 hvcurveto
          -2 -269 180 -212 268 -70 rrcurveto
          -17 -87 -346 2 -59 28 -46 159 rlinecurve
          -56 hlineto
          4 1110 -6 callsubr
          endchar
        </CharString>
        <CharString name="Omicrongreek">
          1587 885 -23 -100 callsubr
        </CharString>
        <CharString name="Omicrontonosgreek">
          1767 1065 -23 rmoveto
          463 303 395 435 375 -243 285 -398 -463 -303 -395 -435 -375 242 -285 399 hvcurveto
          -681 1467 -6 callsubr
          425 -1371 rmoveto
          -210 -140 165 322 400 200 411 310 210 141 -165 -323 -415 -210 -395 -301 hvcurveto
          endchar
        </CharString>
        <CharString name="Oogonek">
          1587 805 -481 178 callsubr
        </CharString>
        <CharString name="Oogonekmacron">
          1587 830 33 callsubr
          -53 -2236 178 callsubr
        </CharString>
        <CharString name="Oslash">
          1587 885 -23 rmoveto
          463 302 171 callsubr
        </CharString>
        <CharString name="Oslashacute">
          1587 1184 52 callsubr
          76 0 -40 callsubr
          -527 -1859 rmoveto
          463 302 171 callsubr
        </CharString>
        <CharString name="Otilde">
          1587 1194 101 callsubr
          -15 -89 callgsubr
          -25 hvcurveto
          -27 -66 callgsubr
          88 callsubr
          36 37 -18 46 hhcurveto
          -309 -1618 -100 callsubr
        </CharString>
        <CharString name="Otildeacute">
          1587 1412 1846 42 callsubr
          359 -212 2 callsubr
          -10 -31 -19 -42 hhcurveto
          -27 -26 -93 callgsubr
          -41 -40 125 callsubr
          76 -101 callgsubr
          40 -10 47 hhcurveto
          -302 -1579 -100 callsubr
        </CharString>
        <CharString name="Otildedieresis">
          1587 952 1792 -85 callgsubr
          -52 hhcurveto
          -9 hlineto
          -52 -47 126 callsubr
          326 hmoveto
          52 47 34 46 10 hvcurveto
          56 callsubr
          -52 -47 126 callsubr
          -73 -236 2 callsubr
          -10 -31 -19 -42 hhcurveto
          -27 -26 -93 callgsubr
          -41 -40 125 callsubr
          76 -101 callgsubr
          40 -10 47 hhcurveto
          -302 -1579 -100 callsubr
        </CharString>
        <CharString name="Otildemacron">
          48 callgsubr
          327 -365 2 callsubr
          -10 -31 -19 -42 hhcurveto
          -27 -26 -93 callgsubr
          -41 -40 125 callsubr
          76 -101 callgsubr
          40 -10 47 hhcurveto
          -302 -1579 -100 callsubr
        </CharString>
        <CharString name="P">
          1292 643 hmoveto
          14 callsubr
        </CharString>
        <CharString name="Pacute">
          1292 1048 -92 callsubr
          367 275 rlineto
          8 vlineto
          -633 -1837 rmoveto
          14 callsubr
        </CharString>
        <CharString name="Pdotaccent">
          1292 956 37 callsubr
          -63 -53 -50 -65 -59 47 -46 61 hvcurveto
          -313 -1585 rmoveto
          14 callsubr
        </CharString>
        <CharString name="Pecyrillic">
          1560 1389 191 rmoveto
          -56 callgsubr
          15 68 -1450 0 -14 -68 133 -17 16 -16 -19 -90 rlinecurve
          -225 -1062 -20 -91 -21 -15 -142 -17 -87 callgsubr
          -125 15 -19 18 20 90 rlinecurve
          249 1166 630 0 -249 -1166 -19 -92 -21 -15 -138 -16 rlinecurve
          -15 216 callsubr
          endchar
        </CharString>
        <CharString name="Phigreek">
          1812 240 712 rmoveto
          -34 -308 219 -172 408 -21 rrcurveto
          -5 -25 -19 -88 -21 -20 -131 -15 rlinecurve
          -13 -65 525 0 14 65 rlineto
          -127 15 -12 20 18 88 5 23 rcurveline
          456 10 318 182 35 333 34 309 -227 170 -400 20 rrcurveto
          5 24 18 88 21 20 131 14 rlinecurve
          13 65 -525 0 -13 -65 127 -14 12 -20 -18 -88 rlinecurve
          -5 -22 -447 -9 -327 -178 -35 -336 rlinecurve
          275 -3 rmoveto
          26 253 153 182 337 8 rrcurveto
          -180 -856 -263 23 -100 147 27 243 rlinecurve
          1087 29 rmoveto
          -27 -255 -152 -182 -339 -8 rrcurveto
          181 856 263 -24 100 -147 -26 -240 rlinecurve
          endchar
        </CharString>
        <CharString name="Pigreek">
          1609 1420 192 rmoveto
          225 1060 20 91 25 17 148 16 rlinecurve
          15 68 -1484 0 -15 -68 145 -17 15 -16 -19 -91 rlinecurve
          -225 -1061 -19 -90 -24 -16 -150 -17 rlinecurve
          -14 -69 585 0 14 69 -139 16 -18 17 19 90 rlinecurve
          247 1165 642 0 -246 -1164 -20 -91 -22 -16 -149 -17 rlinecurve
          -14 -68 585 0 14 68 -142 16 -18 17 19 91 rlinecurve
          endchar
        </CharString>
        <CharString name="Psigreek">
          1760 574 hmoveto
          592 hlineto
          15 68 rlineto
          -153 16 -16 20 19 86 67 318 rcurveline
          334 13 186 119 131 358 75 207 rcurveline
          46 126 33 28 94 7 15 69 rcurveline
          4 -28 -51 4 -55 hhcurveto
          -151 -75 -40 -181 -65 hvcurveto
          -80 -220 -98 -274 -96 -113 -196 -21 rlinecurve
          139 659 19 89 21 20 123 14 rlinecurve
          14 68 -515 0 -15 -68 rlineto
          119 -14 11 -20 -19 -89 -140 -659 rcurveline
          -187 21 -46 113 19 274 14 208 rcurveline
          181 12 -60 52 -157 hhcurveto
          -49 -56 -4 -4 -29 hvcurveto
          -15 -69 93 -7 27 -28 -9 -126 rlinecurve
          -14 -207 -24 -357 133 -120 330 -13 rlinecurve
          -67 -318 -19 -86 -23 -21 -158 -15 rlinecurve
          endchar
        </CharString>
        <CharString name="Q">
          1593 1274 -378 rmoveto
          89 80 22 34 61 hvcurveto
          13 62 rlineto
          -125 -2 -80 30 -145 128 -114 99 rcurveline
          367 83 230 349 380 vvcurveto
          78 callgsubr
          -326 184 -259 311 -62 vhcurveto
          175 -171 rlineto
          -153 157 94 -44 109 hhcurveto
          -407 451 rmoveto
          -210 -141 165 322 400 33 callgsubr
          endchar
        </CharString>
        <CharString name="R">
          1356 1053 hmoveto
          11 callsubr
          endchar
        </CharString>
        <CharString name="Racute">
          1356 1066 -92 callsubr
          -79 callsubr
          -241 -1836 rmoveto
          11 callsubr
          endchar
        </CharString>
        <CharString name="Rcaron">
          1356 1193 -83 callsubr
          -68 callsubr
          -220 -1859 rmoveto
          11 callsubr
          endchar
        </CharString>
        <CharString name="Rcommaaccent">
          1356 1053 hmoveto
          11 callsubr
          -490 -1548 -65 callsubr
          -11 callsubr
          -66 -48 -42 -72 callgsubr
        </CharString>
        <CharString name="Rdblgrave">
          1356 777 -5 callsubr
          27 callsubr
          -57 -1553 rmoveto
          11 callsubr
          endchar
        </CharString>
        <CharString name="Rdotaccent">
          1356 974 37 callsubr
          -64 -52 -51 -72 callsubr
          79 -1585 rmoveto
          11 callsubr
          endchar
        </CharString>
        <CharString name="Rdotbelow">
          1356 1053 hmoveto
          11 callsubr
          -459 -1263 89 callsubr
        </CharString>
        <CharString name="Rdotbelowmacron">
          1356 712 34 callsubr
          314 -1755 rmoveto
          11 callsubr
          -459 -1263 89 callsubr
        </CharString>
        <CharString name="Rhogreek">
          1292 643 hmoveto
          14 callsubr
        </CharString>
        <CharString name="Rinvertedbreve">
          1356 982 118 callsubr
          146 callsubr
          71 -1882 rmoveto
          11 callsubr
          endchar
        </CharString>
        <CharString name="Rlinebelow">
          1356 1053 hmoveto
          11 callsubr
          -735 -1436 -81 callsubr
        </CharString>
        <CharString name="S">
          1132 593 -27 63 callsubr
          endchar
        </CharString>
        <CharString name="Sacute">
          1132 993 -92 callsubr
          -40 callsubr
          -627 -1863 63 callsubr
          endchar
        </CharString>
        <CharString name="Sacutedotaccent">
          1132 938 1759 rmoveto
          55 42 37 49 hvcurveto
          49 -1 -45 36 -56 hhcurveto
          -55 -41 -36 -49 hvcurveto
          -49 1 45 -37 55 hhcurveto
          232 -141 rmoveto
          29 129 -600 -147 -12 -61 rlineto
          6 -1566 63 callsubr
          endchar
        </CharString>
        <CharString name="Scaron">
          1132 1120 -83 callsubr
          -68 callsubr
          -607 -1886 63 callsubr
          endchar
        </CharString>
        <CharString name="Scarondotaccent">
          1132 942 20 callgsubr
          45 -37 55 75 callgsubr
          49 0 299 155 rlineto
          -604 -1725 63 callsubr
          endchar
        </CharString>
        <CharString name="Scedilla">
          1132 480 7 callsubr
          74 81 rlineto
          278 8 235 165 269 vvcurveto
          161 -78 120 -182 120 vhcurveto
          -91 61 rlineto
          -143 93 -52 78 102 vvcurveto
          137 110 87 156 184 110 -117 -222 10 vhcurveto
          61 hlineto
          49 323 rlineto
          62 -76 -160 51 -179 hhcurveto
          -314 -195 -169 -242 -161 89 -117 177 -117 hvcurveto
          91 -61 rlineto
          142 -93 47 -82 -110 vvcurveto
          -158 -133 -91 -158 -192 -139 114 230 -7 vhcurveto
          -61 hlineto
          -53 -325 72 -55 160 -47 155 -12 rlinecurve
          -114 -125 -74 callsubr
          4 hhcurveto
          75 43 -31 -52 -48 -40 43 callgsubr
          endchar
        </CharString>
        <CharString name="Schwa">
          1490 767 -27 rmoveto
          448 305 369 449 407 -227 273 -413 -172 -170 -44 -69 -100 hvcurveto
          -75 -328 rlineto
          61 hlineto
          245 102 158 99 187 hhcurveto
          261 111 -221 -318 -48 -2 -47 -4 -45 hvcurveto
          -990 hlineto
          -21 -66 -13 -72 -70 vvcurveto
          -273 160 -241 394 vhcurveto
          -315 460 rmoveto
          60 7 63 13 52 vhcurveto
          754 hlineto
          -320 -51 -161 -223 -246 hhcurveto
          -216 -100 154 214 hvcurveto
          endchar
        </CharString>
        <CharString name="Scircumflex">
          1132 697 -84 callsubr
          -64 callsubr
          -27 -1581 63 callsubr
          endchar
        </CharString>
        <CharString name="Scommaaccent">
          1132 593 -27 63 callsubr
          -112 -447 -65 callsubr
          121 callsubr
          16 29 4 26 156 callsubr
        </CharString>
        <CharString name="Sdotaccent">
          1132 901 -78 callsubr
          -73 callsubr
          -72 callsubr
          -308 -1612 63 callsubr
          endchar
        </CharString>
        <CharString name="Sdotbelow">
          1132 593 -27 63 callsubr
          -82 -162 -87 callsubr
        </CharString>
        <CharString name="Sdotbelowdotaccent">
          1132 901 -78 callsubr
          -73 callsubr
          -72 callsubr
          -308 -1612 63 callsubr
          -82 -162 -87 callsubr
        </CharString>
        <CharString name="Shacyrillic">
          2279 474 1253 rmoveto
          -225 -1062 -20 -92 -24 -15 -137 -16 rlinecurve
          -14 -68 2161 0 14 68 -131 16 -17 17 20 90 rlinecurve
          225 1062 19 91 22 15 140 17 61 callsubr
          127 119 callsubr
          206 callsubr
          19 92 21 57 callgsubr
        </CharString>
        <CharString name="Shchacyrillic">
          2294 162 callsubr
          1857 hlineto
          189 16 -45 -267 18 hvcurveto
          76 hlineto
          72 399 -204 0 248 1166 19 91 22 15 140 17 61 callsubr
          127 119 callsubr
          206 callsubr
          20 92 20 57 callgsubr
        </CharString>
        <CharString name="Sigmagreek">
          103 callgsubr
          -64 358 -679 -612 -636 -13 -65 1102 0 109 442 rlineto
          -67 hlineto
          -229 -98 -80 -32 -282 hhcurveto
          -432 hlineto
          589 605 6 27 -290 553 380 -10 253 -7 50 -52 6 -212 rlinecurve
          62 hlineto
          endchar
        </CharString>
        <CharString name="Softsigncyrillic">
          1261 190 callsubr
          -270 7 -17 callgsubr
        </CharString>
        <CharString name="T">
          -34 callsubr
          endchar
        </CharString>
        <CharString name="Taugreek">
          -34 callsubr
          endchar
        </CharString>
        <CharString name="Tbar">
          1312 415 700 rmoveto
          262 hlineto
          -108 -510 -18 -87 -23 -19 -160 -16 rlinecurve
          -15 -68 111 callsubr
          108 510 265 0 17 80 -264 0 124 585 52 -2 253 -12 60 -45 -5 -228 rlinecurve
          62 hlineto
          64 366 -1193 0 28 callsubr
          -125 -585 rlineto
          -262 hlineto
          endchar
        </CharString>
        <CharString name="Tcaron">
          1312 1230 -83 callsubr
          -149 53 callgsubr
          250 -415 rmoveto
          -1193 hlineto
          28 callsubr
          97 callsubr
          111 callsubr
          91 callsubr
          endchar
        </CharString>
        <CharString name="Tcedilla">
          1312 565 32 callgsubr
          239 vlineto
          15 68 -155 17 -14 18 18 87 rlinecurve
          91 callsubr
          64 366 -1193 0 28 callsubr
          97 callsubr
          279 0 -134 -150 -74 callsubr
          3 hhcurveto
          75 43 -31 -52 -48 -40 -32 -66 -55 -49 114 callgsubr
        </CharString>
        <CharString name="Tcircumflexbelow">
          -34 callsubr
          -1119 -1543 -20 callsubr
          74 0 -121 -49 callgsubr
        </CharString>
        <CharString name="Tcommaaccent">
          -34 callsubr
          -929 -1552 -65 callsubr
          -11 callsubr
          -66 -48 -42 -72 callgsubr
        </CharString>
        <CharString name="Tdotaccent">
          1312 1010 1585 rmoveto
          64 52 51 64 59 -46 46 -62 -63 -53 -51 -64 -59 47 -46 61 hvcurveto
          549 -141 rmoveto
          -1193 hlineto
          28 callsubr
          97 callsubr
          111 callsubr
          91 callsubr
          endchar
        </CharString>
        <CharString name="Tdotbelow">
          -34 callsubr
          -898 -1267 89 callsubr
        </CharString>
        <CharString name="Tecyrillic">
          -34 callsubr
          endchar
        </CharString>
        <CharString name="Thetagreek">
          1639 887 -27 rmoveto
          447 340 380 446 9 hvcurveto
          10 381 -236 293 -404 -2 -449 -2 -338 -380 -9 -446 rrcurveto
          -379 -10 235 -291 405 hhcurveto
          9 89 rmoveto
          -249 -126 213 329 10 hvcurveto
          381 10 169 397 333 hhcurveto
          251 125 -213 -331 -10 hvcurveto
          -381 -10 -173 -395 -330 hhcurveto
          -283 409 rmoveto
          56 hlineto
          158 59 38 41 86 hhcurveto
          194 hlineto
          85 21 -41 -158 -9 hvcurveto
          56 hlineto
          104 485 rlineto
          -56 hlineto
          -160 -64 -36 -37 -82 hhcurveto
          -195 hlineto
          -82 -20 37 160 5 hvcurveto
          -57 hlineto
          endchar
        </CharString>
        <CharString name="Thorn">
          1313 263 191 rmoveto
          -19 -91 -21 -16 -140 -16 rrcurveto
          -14 -68 562 0 15 68 rlineto
          -128 15 -20 17 19 91 30 140 rcurveline
          158 hlineto
          367 310 160 280 227 -193 137 -317 hvcurveto
          -154 hlineto
          25 118 19 91 24 16 138 15 rlinecurve
          14 69 -563 0 -15 -69 131 -15 17 -16 -19 -91 rlinecurve
          625 -470 rmoveto
          -181 -113 -178 -320 -10 vhcurveto
          -117 -3 137 644 116 -3 rlineto
          184 -5 113 -107 -157 vvcurveto
          endchar
        </CharString>
        <CharString name="Tlinebelow">
          -34 callsubr
          -1174 -1440 -81 callsubr
        </CharString>
        <CharString name="Tsecyrillic">
          1581 162 callsubr
          1144 hlineto
          190 17 -45 -267 18 hvcurveto
          75 hlineto
          72 399 -205 0 248 1166 19 91 21 15 140 17 rlinecurve
          15 68 -561 0 -14 -68 126 119 callsubr
          -630 0 248 1166 19 92 21 57 callgsubr
        </CharString>
        <CharString name="Tshecyrillic">
          1791 1570 1444 rmoveto
          -1207 hlineto
          -87 -366 rlineto
          61 hlineto
          98 233 67 39 -28 callgsubr
          506 rcurveline
          19 72 77 12 89 hhcurveto
          223 80 -125 -238 -51 hvcurveto
          -77 -364 409 0 14 68 rlineto
          -131 15 -15 16 18 91 34 164 rcurveline
          316 64 -157 154 -360 hhcurveto
          -109 -83 -15 -23 -78 hvcurveto
          123 579 100 -4 230 -10 49 -37 1 -236 rlinecurve
          60 hlineto
          endchar
        </CharString>
        <CharString name="U">
          1487 778 -27 -90 callsubr
        </CharString>
        <CharString name="Uacute">
          1487 1231 -92 callsubr
          -79 callsubr
          -681 -1863 -90 callsubr
        </CharString>
        <CharString name="Ubreve">
          1487 1153 80 callsubr
          -67 54 72 11 1 11 2 7 hvcurveto
          -67 hlineto
          -10 -26 -8 120 callsubr
          -375 -1610 -90 callsubr
        </CharString>
        <CharString name="Ubrevecyrillic">
          1425 1106 1591 rmoveto
          164 137 91 183 58 hvcurveto
          -73 22 rlineto
          -137 -47 -105 -81 -124 hhcurveto
          -37 -32 8 14 -25 hvcurveto
          42 10 34 40 49 vvcurveto
          64 -47 49 -59 -67 -47 -52 -69 -103 88 -88 140 vhcurveto
          -874 -1479 181 callsubr
        </CharString>
        <CharString name="Ucaron">
          1487 1358 -83 callsubr
          -68 callsubr
          -660 -1886 -90 callsubr
        </CharString>
        <CharString name="Ucircumflex">
          1487 936 1554 rmoveto
          215 148 147 95 callsubr
          -80 -1581 -90 callsubr
        </CharString>
        <CharString name="Ucircumflexbelow">
          73 callsubr
          -274 -438 1 callsubr
          8 callsubr
        </CharString>
        <CharString name="Ucyrillic">
          1425 232 112 181 callsubr
        </CharString>
        <CharString name="Udblgrave">
          1487 942 -5 callsubr
          27 callsubr
          -497 -1580 -90 callsubr
        </CharString>
        <CharString name="Udieresis">
          1487 978 -57 callsubr
          -4 callsubr
          -55 callsubr
          -4 callsubr
          -523 -1618 -90 callsubr
        </CharString>
        <CharString name="Udieresisacute">
          31 callgsubr
          74 -214 -85 callgsubr
          -51 84 callsubr
          49 callsubr
          56 callsubr
          -51 -48 126 callsubr
          -478 -1581 -90 callsubr
        </CharString>
        <CharString name="Udieresisbelow">
          73 callsubr
          -253 -381 rmoveto
          27 callgsubr
          386 hmoveto
          66 52 51 63 hvcurveto
          60 -1 -47 45 -63 hhcurveto
          -66 -53 -51 -63 1 hvcurveto
          -59 47 -46 64 vhcurveto
          endchar
        </CharString>
        <CharString name="Udieresiscaron">
          1487 1487 1976 rmoveto
          -302 -87 -266 15 callgsubr
          11 -34 34 -51 84 callsubr
          49 callsubr
          56 callsubr
          -51 -48 126 callsubr
          -478 -1581 -90 callsubr
        </CharString>
        <CharString name="Udieresisgrave">
          1487 891 1846 122 callsubr
          31 -422 -85 callgsubr
          -51 84 callsubr
          49 callsubr
          56 callsubr
          -51 -48 126 callsubr
          -478 -1581 -90 callsubr
        </CharString>
        <CharString name="Udieresismacron">
          1487 886 166 callsubr
          47 34 46 10 hvcurveto
          46 11 -34 34 -51 84 callsubr
          49 callsubr
          56 callsubr
          -51 -48 126 callsubr
          -478 -1581 -90 callsubr
        </CharString>
        <CharString name="Udotbelow">
          73 callsubr
          -54 -162 -87 callsubr
        </CharString>
        <CharString name="Ugrave">
          1487 1080 1836 rmoveto
          -207 -8 hlineto
          249 -275 rlineto
          63 hlineto
          -407 -1580 -90 callsubr
        </CharString>
        <CharString name="Uhookabove">
          1487 1171 100 callsubr
          28 40 94 callgsubr
          132 49 82 60 80 vvcurveto
          74 -64 56 -101 vhcurveto
          -393 -1906 -90 callsubr
        </CharString>
        <CharString name="Uhorn">
          1576 314 596 13 callsubr
        </CharString>
        <CharString name="Uhornacute">
          1576 1234 -92 callsubr
          -79 callsubr
          -1148 -1240 13 callsubr
        </CharString>
        <CharString name="Uhorndotbelow">
          1576 314 596 rmoveto
          -420 -90 239 -203 315 hhcurveto
          325 222 210 356 80 hvcurveto
          193 861 rlineto
          -2 13 14 -1 15 hhcurveto
          154 1 103 74 131 vvcurveto
          78 -42 73 -55 39 vhcurveto
          -63 hlineto
          8 -16 3 -28 -27 vvcurveto
          -152 -110 -126 -207 vhcurveto
          -98 hlineto
          -15 60 callsubr
          -122 -134 -652 rcurveline
          -301 -62 -182 -142 110 callsubr
          -2 callgsubr
          258 -1430 165 callsubr
        </CharString>
        <CharString name="Uhorngrave">
          1576 1083 -43 callsubr
          -874 -957 13 callsubr
        </CharString>
        <CharString name="Uhornhookabove">
          1576 1174 100 callsubr
          29 39 -65 callgsubr
          -63 56 -102 vhcurveto
          -860 -1283 13 callsubr
        </CharString>
        <CharString name="Uhorntilde">
          1576 1243 -107 callgsubr
          22 hvcurveto
          -67 47 callgsubr
          84 callgsubr
          19 -12 -22 27 hvcurveto
          25 -22 rlineto
          -29 37 36 -18 46 hhcurveto
          -929 -999 13 callsubr
        </CharString>
        <CharString name="Uhungarumlaut">
          1487 1066 1837 rmoveto
          -128 -284 71 0 236 279 rlineto
          5 vlineto
          127 hmoveto
          -187 -284 75 0 308 279 rlineto
          5 vlineto
          -790 -1864 -90 callsubr
        </CharString>
        <CharString name="Uinvertedbreve">
          1487 1147 118 callsubr
          146 callsubr
          -369 -1909 -90 callsubr
        </CharString>
        <CharString name="Umacron">
          1487 877 34 callsubr
          -126 -1782 -90 callsubr
        </CharString>
        <CharString name="Umacrondieresis">
          1487 999 1792 rmoveto
          52 48 34 46 9 hvcurveto
          46 11 -33 34 -52 hhcurveto
          -9 hlineto
          -52 -48 126 callsubr
          326 hmoveto
          52 47 34 46 10 hvcurveto
          81 callgsubr
          33 -34 51 hhcurveto
          -451 -207 rmoveto
          528 hlineto
          20 100 rlineto
          -527 hlineto
          -98 -1712 -90 callsubr
        </CharString>
        <CharString name="Uogonek">
          1487 731 -481 rmoveto
          80 60 111 callgsubr
          -40 58 85 65 27 69 58 62 hvcurveto
          302 17 207 207 76 341 rrcurveto
          148 663 29 126 23 27 131 21 rlinecurve
          15 68 -421 0 -14 60 callsubr
          -126 -132 -648 rcurveline
          -300 -62 -182 -143 110 callsubr
          40 callgsubr
          117 -20 16 -20 -21 -95 rlinecurve
          -137 -645 -85 -403 216 -203 296 -16 rlinecurve
          -127 -84 -78 -100 -102 vvcurveto
          -99 81 -70 115 vhcurveto
          endchar
        </CharString>
        <CharString name="Upsilondieresisgreek">
          1307 899 -57 callsubr
          -45 callgsubr
          -55 callgsubr
          117 callsubr
          -752 -410 -71 callsubr
        </CharString>
        <CharString name="Upsilongreek">
          1307 470 1181 -71 callsubr
        </CharString>
        <CharString name="Upsilontonosgreek">
          1696 858 2 callgsubr
          -474 263 -6 callsubr
          endchar
        </CharString>
        <CharString name="Uring">
          1487 922 -15 callgsubr
          -56 -47 -28 33 58 vhcurveto
          -286 -1747 -90 callsubr
        </CharString>
        <CharString name="Utilde">
          1487 1240 -107 callgsubr
          21 hvcurveto
          -66 47 callgsubr
          -80 -61 -57 -183 -21 hvcurveto
          67 hlineto
          89 13 23 25 33 85 callgsubr
          -462 -1622 -90 callsubr
        </CharString>
        <CharString name="Utildeacute">
          31 callgsubr
          360 -212 rmoveto
          94 81 55 113 24 hvcurveto
          -77 hlineto
          -45 -9 -31 -19 -42 hhcurveto
          -27 -27 7 13 -37 hvcurveto
          -28 10 rlineto
          14 -41 -40 9 -48 hhcurveto
          -93 -83 -54 -113 -23 hvcurveto
          77 -101 callgsubr
          39 -10 48 hhcurveto
          -456 -1583 -90 callsubr
        </CharString>
        <CharString name="Utildebelow">
          73 callsubr
          50 -398 rmoveto
          88 67 140 callsubr
          26 22 -71 callgsubr
        </CharString>
        <CharString name="V">
          102 callgsubr
          endchar
        </CharString>
        <CharString name="Vdotbelow">
          102 callgsubr
          193 -1366 rmoveto
          -63 -53 -51 -64 -59 46 -46 62 64 52 51 64 59 -47 46 -61 hvcurveto
          endchar
        </CharString>
        <CharString name="Vecyrillic">
          1332 1336 451 9 callsubr
          173 callsubr
          endchar
        </CharString>
        <CharString name="Vtilde">
          1368 1204 101 callsubr
          -14 -24 -25 -32 hhcurveto
          -24 -19 12 22 -26 hvcurveto
          -26 22 rlineto
          30 -37 -36 17 -46 -81 callgsubr
          -764 -418 rmoveto
          191 callsubr
          endchar
        </CharString>
        <CharString name="W">
          2094 435 1177 -18 callsubr
        </CharString>
        <CharString name="Wacute">
          2094 1575 -92 callsubr
          -40 callsubr
          -1367 -659 -18 callsubr
        </CharString>
        <CharString name="Wcircumflex">
          2094 1279 -84 callsubr
          -64 callsubr
          -767 -377 -18 callsubr
        </CharString>
        <CharString name="Wdieresis">
          2094 1321 -57 callsubr
          -78 callgsubr
          -55 callsubr
          -78 callgsubr
          -1209 -414 -18 callsubr
        </CharString>
        <CharString name="Wdotaccent">
          2094 1483 -78 callsubr
          -73 callsubr
          -72 callsubr
          -1048 -408 -18 callsubr
        </CharString>
        <CharString name="Wdotbelow">
          2094 435 1177 rmoveto
          109 -1180 173 0 569 1118 85 -1118 176 0 601 1165 89 174 38 24 118 16 rlinecurve
          14 68 -425 0 -15 -68 139 -18 9 -32 -78 -159 rlinecurve
          -444 -918 -60 926 -10 154 16 27 143 20 rlinecurve
          15 68 -548 0 -15 -68 138 -19 8 -33 -74 -154 rlinecurve
          -444 -921 -64 927 -10 148 19 33 146 19 rlinecurve
          15 68 -569 0 -13 -68 102 -15 33 -25 14 -159 rlinecurve
          556 -1366 -87 callsubr
        </CharString>
        <CharString name="Wgrave">
          2094 1423 -43 callsubr
          -1093 -376 -18 callsubr
        </CharString>
        <CharString name="X">
          1324 324 282 10 callsubr
        </CharString>
        <CharString name="Xdieresis">
          1324 929 -57 callsubr
          -4 callsubr
          -55 callsubr
          -4 callsubr
          -928 -1309 10 callsubr
        </CharString>
        <CharString name="Xdotaccent">
          1324 1090 37 callsubr
          -64 -52 -51 -72 callsubr
          -766 -1303 10 callsubr
        </CharString>
        <CharString name="Xigreek">
          1323 1569 1444 rmoveto
          -1169 hlineto
          -99 -399 rlineto
          63 hlineto
          186 87 84 36 242 hhcurveto
          340 hlineto
          242 68 -36 -186 9 hvcurveto
          64 hlineto
          -801 -358 rmoveto
          250 hlineto
          124 30 -45 -148 -8 hvcurveto
          61 hlineto
          99 470 rlineto
          -60 hlineto
          -147 -56 -49 -44 -123 hhcurveto
          -250 hlineto
          -124 -30 44 147 6 hvcurveto
          -60 hlineto
          -99 -470 rlineto
          60 hlineto
          148 55 50 45 124 hhcurveto
          572 -687 rmoveto
          111 441 rlineto
          -64 hlineto
          -232 -100 -78 -30 -282 hhcurveto
          -284 hlineto
          -283 -64 31 231 -1 hvcurveto
          -64 hlineto
          -76 -441 rlineto
          endchar
        </CharString>
        <CharString name="Xigreek.1">
          1359 79 hmoveto
          1193 hlineto
          111 441 rlineto
          -64 hlineto
          -232 -100 -77 -30 -283 hhcurveto
          -108 hlineto
          107 508 rlineto
          93 hlineto
          124 29 -45 -148 -7 hvcurveto
          60 hlineto
          100 470 rlineto
          -60 hlineto
          -147 -56 -50 -44 -123 hhcurveto
          -91 hlineto
          104 494 rlineto
          137 hlineto
          242 68 -36 -186 9 hvcurveto
          64 hlineto
          69 399 -1178 0 -99 -399 rlineto
          64 hlineto
          186 87 84 36 242 hhcurveto
          136 hlineto
          -104 -494 rlineto
          -93 hlineto
          -124 -30 44 147 7 hvcurveto
          -60 hlineto
          -100 -470 rlineto
          60 hlineto
          148 56 49 45 125 hhcurveto
          92 hlineto
          -108 -508 rlineto
          -110 hlineto
          -283 -63 31 231 -2 hvcurveto
          -64 hlineto
          endchar
        </CharString>
        <CharString name="Y">
          1308 470 1181 -71 callsubr
        </CharString>
        <CharString name="Yacute">
          1307 1152 -92 callsubr
          -79 callsubr
          -910 -655 -71 callsubr
        </CharString>
        <CharString name="Ycircumflex">
          1307 857 -84 callsubr
          -64 callsubr
          -310 -373 -71 callsubr
        </CharString>
        <CharString name="Ydieresis">
          1307 899 -57 callsubr
          -45 callgsubr
          -55 callgsubr
          117 callsubr
          -752 -410 -71 callsubr
        </CharString>
        <CharString name="Ydotaccent">
          1307 1061 -78 callsubr
          -73 callsubr
          -72 callsubr
          -591 -404 -71 callsubr
        </CharString>
        <CharString name="Ydotbelow">
          1307 470 2 callgsubr
          126 -1370 165 callsubr
        </CharString>
        <CharString name="Yericyrillic">
          1892 190 callsubr
          395 -299 rmoveto
          226 1062 19 89 20 -23 callgsubr
          -135 16 -13 18 19 89 rlinecurve
          -665 306 -17 callgsubr
        </CharString>
        <CharString name="Ygrave">
          1307 1001 -43 callsubr
          -636 -372 -71 callsubr
        </CharString>
        <CharString name="Yhookabove">
          1307 1093 1879 rmoveto
          -78 -69 -34 -46 -36 hvcurveto
          -12 -52 rlineto
          20 29 40 13 45 hhcurveto
          66 32 -26 -42 -50 -55 -51 -88 -51 hvcurveto
          76 hlineto
          133 49 82 60 80 vvcurveto
          74 -64 56 -101 vhcurveto
          -623 -698 -71 callsubr
        </CharString>
        <CharString name="Yicyrillic">
          676 531 -57 callsubr
          1 hvcurveto
          -1 callsubr
          vhcurveto
          323 hmoveto
          59 50 48 61 -1 callsubr
          hvcurveto
          -348 -1400 -86 callsubr
          -89 callsubr
        </CharString>
        <CharString name="Ymacron">
          1307 798 33 callsubr
          -356 -574 -71 callsubr
        </CharString>
        <CharString name="Ytilde">
          1307 1162 101 callsubr
          -15 -89 callgsubr
          -25 hvcurveto
          -27 -66 callgsubr
          88 callsubr
          36 36 -18 47 hhcurveto
          -692 -414 -71 callsubr
        </CharString>
        <CharString name="Z">
          1202 1119 hmoveto
          -58 callsubr
          -9 callsubr
        </CharString>
        <CharString name="Zacute">
          1202 1044 -92 callsubr
          -40 callsubr
          -152 -1836 rmoveto
          -58 callsubr
          -9 callsubr
        </CharString>
        <CharString name="Zcaron">
          1202 1171 -83 callsubr
          -68 callsubr
          -132 -1859 rmoveto
          -58 callsubr
          -9 callsubr
        </CharString>
        <CharString name="Zcircumflex">
          1202 748 -84 callsubr
          -64 callsubr
          448 -1554 rmoveto
          -58 callsubr
          -9 callsubr
        </CharString>
        <CharString name="Zdotaccent">
          1202 952 -78 callsubr
          -73 callsubr
          -72 callsubr
          167 -1585 rmoveto
          -58 callsubr
          -9 callsubr
        </CharString>
        <CharString name="Zdotbelow">
          5 callgsubr
          475 -189 46 callgsubr
        </CharString>
        <CharString name="Zecyrillic">
          1276 630 -27 rmoveto
          385 266 185 294 178 -146 103 -212 23 hvcurveto
          242 36 187 122 225 vvcurveto
          208 -173 124 -296 -167 -166 -52 -69 -100 vhcurveto
          -78 -324 rlineto
          61 hlineto
          250 102 148 99 178 hhcurveto
          147 80 -99 -140 -216 -140 -135 -235 hvcurveto
          -148 hlineto
          -19 -86 rlineto
          149 hlineto
          203 110 -88 -179 -188 -118 -174 -265 -3 hvcurveto
          -191 -1 -124 125 -12 216 rrcurveto
          -61 hlineto
          -43 -315 rlineto
          -57 74 164 -62 198 hhcurveto
          endchar
        </CharString>
        <CharString name="Zetagreek">
          1202 1119 hmoveto
          -58 callsubr
          -9 callsubr
        </CharString>
        <CharString name="Zhecyrillic">
          2072 323 hmoveto
          629 697 114 0 -108 -506 -19 -91 -23 -15 -151 -17 rlinecurve
          -14 -68 589 0 14 68 -141 17 -19 15 18 91 rlinecurve
          108 506 116 0 321 -697 316 0 14 64 -63 26 -41 47 -98 207 rlinecurve
          -243 520 296 270 195 179 68 43 132 20 rlinecurve
          14 68 -466 0 -14 -68 146 -15 -4 -40 -147 -143 rlinecurve
          -403 -392 -120 -1 99 468 20 91 25 15 148 17 rlinecurve
          14 68 -588 0 -14 -68 143 -16 17 -16 -19 -91 rlinecurve
          -100 -468 -114 0 -246 394 -95 151 39 32 140 14 rlinecurve
          14 68 -480 0 -13 -68 128 -24 50 -36 126 -181 rlinecurve
          176 -253 -479 -537 rlineto
          -184 -205 -56 -51 -72 -25 -15 -64 rcurveline
          endchar
        </CharString>
        <CharString name="Zlinebelow">
          5 callgsubr
          199 -362 -81 callsubr
        </CharString>
        <CharString name="a">
          1131 -76 callsubr
          -107 callsubr
          -106 callsubr
          -101 callsubr
        </CharString>
        <CharString name="a.dnum">
          710 121 190 rmoveto
          -130 71 -72 89 83 67 50 88 35 vhcurveto
          -1 -4 -4 -21 -5 vvcurveto
          -69 -10 30 -36 65 hhcurveto
          62 64 28 39 31 hvcurveto
          11 50 rlineto
          -12 -18 -25 -6 -19 hhcurveto
          -26 -11 17 38 9 hvcurveto
          84 398 -92 0 -63 -58 rlineto
          37 -18 -45 33 -30 callgsubr
          -46 -48 hhcurveto
          -43 -27 29 79 -2 hvcurveto
          endchar
        </CharString>
        <CharString name="a.numr">
          710 264 864 rmoveto
          -129 71 -73 89 83 67 50 89 35 vhcurveto
          -1 -5 -4 -20 -6 vvcurveto
          -69 -10 30 -36 65 hhcurveto
          62 64 29 38 31 hvcurveto
          11 51 rlineto
          -13 -18 -25 -6 -19 hhcurveto
          -26 -11 18 37 8 hvcurveto
          85 398 -92 0 -63 -58 rlineto
          38 -18 -45 32 -30 callgsubr
          -45 -48 hhcurveto
          -43 -27 29 78 -2 hvcurveto
          endchar
        </CharString>
        <CharString name="a.sups">
          710 303 1048 rmoveto
          -130 71 -72 89 83 67 50 88 36 vhcurveto
          -2 -4 -4 -21 -5 vvcurveto
          -69 -10 31 -36 65 hhcurveto
          61 65 28 39 30 hvcurveto
          11 50 rlineto
          -12 -18 -25 -6 -18 hhcurveto
          -27 -10 17 38 8 hvcurveto
          85 398 -92 0 -63 -58 rlineto
          37 -19 -45 33 -74 hhcurveto
          -175 -121 -164 -201 1 hvcurveto
          168 hmoveto
          122 -2 52 170 111 hhcurveto
          40 28 -17 -20 7 hvcurveto
          -50 -235 rlineto
          -82 -18 -48 -46 -48 hhcurveto
          -43 -28 29 79 -1 hvcurveto
          endchar
        </CharString>
        <CharString name="aacute">
          1131 916 -70 callsubr
          -62 callsubr
          -999 -1163 -105 callsubr
          -107 callsubr
          -106 callsubr
          -101 callsubr
        </CharString>
        <CharString name="abreve">
          1131 819 -61 callsubr
          22 callsubr
          -635 -814 -105 callsubr
          -107 callsubr
          -106 callsubr
          -101 callsubr
        </CharString>
        <CharString name="abreveacute">
          1131 1129 -28 callsubr
          216 -292 -35 callsubr
          -587 -771 -105 callsubr
          -107 callsubr
          -106 callsubr
          -101 callsubr
        </CharString>
        <CharString name="abrevecyrillic">
          1131 783 137 callsubr
          -599 -817 -105 callsubr
          -107 callsubr
          -106 callsubr
          -101 callsubr
        </CharString>
        <CharString name="abrevedotbelow">
          1131 819 -61 callsubr
          22 callsubr
          -635 -814 -105 callsubr
          -107 callsubr
          -106 callsubr
          20 callsubr
          163 callsubr
        </CharString>
        <CharString name="abrevegrave">
          1131 575 -50 callsubr
          164 -536 -35 callsubr
          -587 -771 -105 callsubr
          -107 callsubr
          -106 callsubr
          -101 callsubr
        </CharString>
        <CharString name="abrevehookabove">
          1131 859 1638 rmoveto
          -76 -69 -31 -34 -42 hvcurveto
          -13 83 callgsubr
          -8 callgsubr
          -587 -771 -105 callsubr
          -107 callsubr
          -106 callsubr
          -101 callsubr
        </CharString>
        <CharString name="abrevetilde">
          -24 callgsubr
          -185 -317 -35 callsubr
          -587 -771 -105 callsubr
          -107 callsubr
          -106 callsubr
          -101 callsubr
        </CharString>
        <CharString name="acaron">
          1131 1053 -13 callsubr
          -956 -1171 -105 callsubr
          -107 callsubr
          -106 callsubr
          -101 callsubr
        </CharString>
        <CharString name="acircumflex">
          1131 579 -51 callsubr
          -308 -794 -105 callsubr
          -107 callsubr
          -106 callsubr
          -101 callsubr
        </CharString>
        <CharString name="acircumflexacute">
          1131 1129 -28 callsubr
          -61 -295 -44 callsubr
          -25 callsubr
          -326 -841 -105 callsubr
          -107 callsubr
          -106 callsubr
          -101 callsubr
        </CharString>
        <CharString name="acircumflexdotbelow">
          1131 579 -51 callsubr
          -308 -794 -105 callsubr
          -107 callsubr
          -106 callsubr
          20 callsubr
          163 callsubr
        </CharString>
        <CharString name="acircumflexgrave">
          1131 575 -50 callsubr
          -113 -539 -44 callsubr
          -25 callsubr
          -326 -841 -105 callsubr
          -107 callsubr
          -106 callsubr
          -101 callsubr
        </CharString>
        <CharString name="acircumflexhookabove">
          1131 1081 199 callsubr
          -326 -841 -105 callsubr
          -107 callsubr
          -106 callsubr
          -101 callsubr
        </CharString>
        <CharString name="acircumflextilde">
          -24 callgsubr
          -462 -320 -44 callsubr
          -25 callsubr
          -326 -841 -105 callsubr
          -107 callsubr
          -106 callsubr
          -101 callsubr
        </CharString>
        <CharString name="acute">
          1024 894 -70 callsubr
          -62 callsubr
          endchar
        </CharString>
        <CharString name="acutecmb">
          0 382 -70 callsubr
          -62 callsubr
          endchar
        </CharString>
        <CharString name="acutecmb.short">
          0 354 1390 rmoveto
          -214 -283 75 0 -40 callsubr
          endchar
        </CharString>
        <CharString name="acutedotaccentcmb">
          0 318 86 callsubr
          91 callgsubr
          endchar
        </CharString>
        <CharString name="acutedotaccentcmb.short">
          0 394 1759 rmoveto
          55 42 37 49 hvcurveto
          49 -1 -45 36 -55 hhcurveto
          -55 -42 -36 -49 1 hvcurveto
          -49 45 -37 55 vhcurveto
          233 -141 -41 callgsubr
          endchar
        </CharString>
        <CharString name="acyrillic">
          1131 -76 callsubr
          -107 callsubr
          -106 callsubr
          -101 callsubr
        </CharString>
        <CharString name="adblgrave">
          1131 570 1507 rmoveto
          -216 -7 hlineto
          252 -362 rlineto
          84 hlineto
          79 callgsubr
          -790 -793 -105 callsubr
          -107 callsubr
          -106 callsubr
          -101 callsubr
        </CharString>
        <CharString name="adieresis">
          1131 603 -15 callsubr
          -835 -858 -105 callsubr
          -107 callsubr
          -106 callsubr
          -101 callsubr
        </CharString>
        <CharString name="adieresismacron">
          1131 566 103 callsubr
          12 -437 5 callsubr
          -33 41 -55 hhcurveto
          -9 -26 callsubr
          342 hmoveto
          55 51 -33 callsubr
          -42 callsubr
          -743 -791 -105 callsubr
          -107 callsubr
          -106 callsubr
          -101 callsubr
        </CharString>
        <CharString name="adotaccent">
          1131 811 -46 callsubr
          -73 -74 -61 -60 -75 -70 53 -54 73 hvcurveto
          -627 -850 -105 callsubr
          -107 callsubr
          -106 callsubr
          -101 callsubr
        </CharString>
        <CharString name="adotbelow">
          1131 -76 callsubr
          -107 callsubr
          -106 callsubr
          20 callsubr
          163 callsubr
        </CharString>
        <CharString name="adotmacron">
          1131 564 1445 rmoveto
          554 hlineto
          25 116 rlineto
          6 callgsubr
          -613 -792 -105 callsubr
          -107 callsubr
          -106 callsubr
          -101 callsubr
        </CharString>
        <CharString name="ae">
          1494 264 787 128 callsubr
        </CharString>
        <CharString name="aeacute">
          1494 1131 -80 callsubr
          -63 callsubr
          -1134 -721 128 callsubr
        </CharString>
        <CharString name="aemacron">
          1494 734 -8 callsubr
          -500 -595 128 callsubr
        </CharString>
        <CharString name="agrave">
          1131 769 96 callsubr
          -690 -793 -105 callsubr
          -107 callsubr
          -106 callsubr
          -101 callsubr
        </CharString>
        <CharString name="ahookabove">
          1131 849 102 callsubr
          32 45 154 callsubr
          -665 -1170 -105 callsubr
          -107 callsubr
          -106 callsubr
          -101 callsubr
        </CharString>
        <CharString name="ainvertedbreve">
          1131 816 38 callsubr
          -91 callgsubr
          -632 -1150 -105 callsubr
          -107 callsubr
          -106 callsubr
          -101 callsubr
        </CharString>
        <CharString name="alphagreek">
          1221 475 -21 174 callsubr
        </CharString>
        <CharString name="alphatonosgreek">
          1221 895 1525 rmoveto
          -155 -381 102 0 292 371 rlineto
          10 vlineto
          -659 -1546 174 callsubr
        </CharString>
        <CharString name="amacron">
          1131 518 104 callsubr
          -364 -1037 -105 callsubr
          -107 callsubr
          -106 callsubr
          -101 callsubr
        </CharString>
        <CharString name="ampersand">
          1499 146 334 rmoveto
          -204 151 -157 255 170 139 86 156 151 vhcurveto
          178 -215 319 0 12 56 -97 52 -82 93 -104 127 rlinecurve
          -61 73 164 204 135 167 48 29 116 20 rlinecurve
          14 68 -440 0 -14 -68 154 -17 15 -34 -104 -142 rlinecurve
          -130 -176 -293 355 -4 5 -4 5 -4 5 rlinecurve
          262 94 121 119 143 vvcurveto
          172 -138 121 -238 -253 -152 -161 -196 -5 vhcurveto
          -2 -98 35 -104 87 -127 rrcurveto
          -249 -88 -152 -144 -219 vvcurveto
          505 848 rmoveto
          121 75 74 113 117 58 -98 -110 -124 -70 -98 -154 -74 vhcurveto
          -105 137 -34 88 84 vvcurveto
          -279 -757 rmoveto
          155 100 88 115 62 vhcurveto
          13 -18 14 -17 15 -18 341 -412 rcurveline
          -86 -89 -84 -56 -115 hhcurveto
          -180 -130 129 173 hvcurveto
          endchar
        </CharString>
        <CharString name="anoteleiagreek">
          521 446 733 64 callgsubr
          endchar
        </CharString>
        <CharString name="aogonek">
          1131 -76 callsubr
          -107 callsubr
          15 14 1 2 15 hvcurveto
          -184 -117 -72 -98 -96 vvcurveto
          -95 72 -62 105 81 66 35 43 32 vhcurveto
          15 67 rlineto
          -18 -23 -31 -11 -33 hhcurveto
          -49 -35 82 callgsubr
          -50 -12 -32 hhcurveto
          -48 -16 32 59 12 hvcurveto
          170 788 -125 0 -101 -97 rlineto
          62 -31 -75 56 -127 -75 callgsubr
          -83 callgsubr
          endchar
        </CharString>
        <CharString name="approxequal">
          1196 997 773 63 callgsubr
          112 hlineto
          152 30 84 61 85 151 104 -211 193 hhcurveto
          148 131 104 245 38 hvcurveto
          -112 hlineto
          -151 -29 -85 -61 -85 hhcurveto
          -103 -482 rmoveto
          -150 -104 210 -194 hhcurveto
          -148 -131 -104 -245 -38 hvcurveto
          112 -1 rlineto
          153 30 84 60 86 150 105 104 callgsubr
          -112 hlineto
          -151 -29 -85 -60 -85 hhcurveto
          endchar
        </CharString>
        <CharString name="aring">
          1131 560 -99 callgsubr
          134 166 74 callsubr
          -532 -954 -105 callsubr
          -107 callsubr
          -106 callsubr
          -101 callsubr
        </CharString>
        <CharString name="aringacute">
          1131 1130 1503 -42 callgsubr
          193 callsubr
          -625 -824 -105 callsubr
          -107 callsubr
          -106 callsubr
          -101 callsubr
        </CharString>
        <CharString name="aringbelow">
          1131 -76 callsubr
          -107 callsubr
          -106 callsubr
          20 callsubr
          -86 -655 rmoveto
          -104 2 -47 callgsubr
          95 callgsubr
          5 hvcurveto
          156 -14 rmoveto
          75 -2 52 58 61 hhcurveto
          53 32 -32 -53 3 hvcurveto
          -75 2 -52 -58 -61 hhcurveto
          -53 -33 31 54 -2 hvcurveto
          endchar
        </CharString>
        <CharString name="asciicircum">
          1198 849 1444 rmoveto
          -535 -590 78 -71 493 520 269 -519 94 70 -284 590 rlineto
          endchar
        </CharString>
        <CharString name="asciitilde">
          1196 948 542 63 callgsubr
          111 hlineto
          152 30 85 60 85 151 104 104 callgsubr
          -111 hlineto
          -150 -30 -84 -61 -85 hhcurveto
          endchar
        </CharString>
        <CharString name="asterisk">
          756 668 1472 rmoveto
          -53 -32 -36 -61 -16 1 -18 2 -29 hvcurveto
          17 -182 25 0 93 188 rlineto
          18 36 5 22 19 vvcurveto
          44 -31 33 -45 vhcurveto
          -283 -123 rmoveto
          -47 -29 -38 -39 -36 22 -34 68 -25 hvcurveto
          185 -70 14 21 -96 140 rlineto
          63 -43 -40 18 -34 hhcurveto
          507 -54 rmoveto
          -36 -28 -14 -43 -55 hvcurveto
          -141 -111 9 -22 192 23 rlineto
          97 9 40 33 52 vvcurveto
          42 -32 31 -46 vhcurveto
          -559 -383 rmoveto
          36 27 14 42 56 hvcurveto
          140 111 -8 23 -193 -24 rlineto
          -96 -9 -40 -34 -51 vvcurveto
          -42 32 -30 46 vhcurveto
          583 22 rmoveto
          37 -22 33 -68 24 vhcurveto
          -186 71 -14 -21 97 -140 rlineto
          -63 42 40 -18 35 hhcurveto
          47 29 38 39 hvcurveto
          -359 -201 rmoveto
          53 32 37 61 16 -1 18 -2 29 hvcurveto
          -18 181 -24 0 -93 -187 rlineto
          -18 -37 -5 -21 -19 vvcurveto
          -44 31 -34 45 vhcurveto
          endchar
        </CharString>
        <CharString name="at">
          2016 1459 -297 rmoveto
          2 69 rlineto
          -72 -128 -135 -23 -162 hhcurveto
          -402 -303 285 462 499 375 404 509 420 291 -240 -401 -368 -233 -197 -175 -77 -26 46 84 17 hvcurveto
          154 716 -106 0 -117 -131 rlineto
          95 -28 -74 60 -112 hhcurveto
          -267 -188 -315 -305 -205 88 -126 156 115 108 79 159 77 hvcurveto
          -5 -25 -3 -25 -19 vvcurveto
          -129 -7 104 -65 131 hhcurveto
          296 278 264 416 433 -333 292 -487 -568 -419 -440 -567 -500 348 -329 442 172 179 44 75 93 hvcurveto
          -547 659 rmoveto
          241 114 299 170 81 48 -58 -88 5 vhcurveto
          -69 -324 rlineto
          -148 -31 -98 -125 -102 hhcurveto
          -88 -30 86 117 hvcurveto
          endchar
        </CharString>
        <CharString name="atilde">
          1131 929 71 callsubr
          -745 -841 -105 callsubr
          -107 callsubr
          -106 callsubr
          -101 callsubr
        </CharString>
        <CharString name="austral">
          1372 86 383 rmoveto
          236 hlineto
          -79 -142 -72 -132 -31 -27 -121 -14 rlinecurve
          -14 -68 415 0 15 68 -132 16 -16 26 68 130 rlinecurve
          77 143 538 0 16 -153 13 -120 -18 -26 -147 -16 rlinecurve
          -14 -68 537 0 15 68 -113 13 -19 27 -15 123 rlinecurve
          -18 152 241 0 14 64 -263 0 -26 217 335 0 14 63 -357 0 -87 719 -167 0 -398 -719 -353 0 -14 -63 332 0 -120 -217 rlineto
          -258 hlineto
          516 280 rmoveto
          262 492 54 -492 rlineto
          -466 -280 rmoveto
          116 217 357 0 24 -217 rlineto
          endchar
        </CharString>
        <CharString name="austral.tnum">
          1211 95 445 rmoveto
          -14 -63 205 0 -71 -141 -68 -133 -28 -28 -104 -12 rlinecurve
          -14 -68 373 0 14 68 -120 14 -11 24 66 134 rlinecurve
          69 142 458 0 9 -152 8 -120 -18 -27 -129 -15 rlinecurve
          -14 -68 505 0 14 68 -96 11 -16 28 -10 124 rlinecurve
          -13 151 202 0 14 63 -221 0 -18 216 285 0 14 64 -304 0 -59 721 -177 0 -366 -721 -305 0 -14 -64 287 0 -110 -216 rlineto
          243 280 rmoveto
          236 483 31 -483 rlineto
          -405 -280 rmoveto
          106 216 303 0 14 -216 rlineto
          endchar
        </CharString>
        <CharString name="b">
          39 callsubr
          48 callsubr
          68 callsubr
          endchar
        </CharString>
        <CharString name="backslash">
          669 458 -284 rmoveto
          132 hlineto
          -103 1868 rlineto
          -132 hlineto
          endchar
        </CharString>
        <CharString name="baht">
          -4 callgsubr
          156 -118 108 -245 30 rrcurveto
          48 226 -64 0 -47 -221 rlineto
          2 -27 -28 1 -29 hhcurveto
          -475 hlineto
          -15 -68 rlineto
          136 -15 13 -20 -19 -88 -215 -1003 rcurveline
          -19 -87 -20 -20 -141 -15 -15 -68 rcurveline
          520 hlineto
          14 13 0 13 hhcurveto
          -47 -219 64 0 47 222 rlineto
          368 25 227 154 242 vvcurveto
          -553 883 rmoveto
          99 -3 rlineto
          26 -1 23 -2 22 -4 -112 -529 rcurveline
          -11 -11 -1 -12 hhcurveto
          -138 hlineto
          484 307 rmoveto
          -148 -88 -115 -159 -34 vhcurveto
          108 504 rlineto
          93 -33 46 -70 -104 vvcurveto
          -500 -384 rmoveto
          137 -1 rlineto
          11 12 -1 -1 10 hvcurveto
          -128 -603 rlineto
          -2 -23 -24 -2 -25 hhcurveto
          -102 -3 rlineto
          561 339 rmoveto
          -166 -100 -118 -222 -39 vhcurveto
          125 585 rlineto
          130 -32 67 -97 -133 vvcurveto
          endchar
        </CharString>
        <CharString name="baht.tnum">
          -6 callgsubr
          154 -108 104 -224 30 vhcurveto
          49 227 -64 0 -47 -221 rlineto
          2 -27 -28 1 -29 hhcurveto
          -457 hlineto
          -15 -68 rlineto
          132 -15 13 -20 -18 -88 -215 -1003 rcurveline
          -19 -87 -20 -20 -139 -15 -14 -68 rcurveline
          506 hlineto
          12 12 0 12 hhcurveto
          -47 -219 64 0 47 222 rlineto
          348 25 216 155 241 vvcurveto
          -515 883 rmoveto
          92 -2 rlineto
          26 -1 24 -3 21 -4 -112 -528 rcurveline
          -1 -12 -11 -1 -12 hhcurveto
          -129 hlineto
          453 313 rmoveto
          -147 -80 -117 -144 -37 vhcurveto
          107 500 rlineto
          78 -34 39 -67 -98 vvcurveto
          -470 -390 rmoveto
          126 -1 rlineto
          13 12 -1 -1 12 hvcurveto
          -128 -604 rlineto
          -22 -2 -23 -1 -24 -1 -98 -2 rcurveline
          530 348 rmoveto
          -168 -94 -124 -204 -40 vhcurveto
          124 582 rlineto
          116 -33 58 -94 -123 vvcurveto
          endchar
        </CharString>
        <CharString name="bar">
          669 208 -284 rmoveto
          132 hlineto
          397 1868 rlineto
          -132 hlineto
          endchar
        </CharString>
        <CharString name="bdotaccent">
          1130 667 1642 rmoveto
          76 60 60 76 69 -54 54 127 callsubr
          491 -989 51 callsubr
          48 callsubr
          68 callsubr
          endchar
        </CharString>
        <CharString name="bdotbelow">
          39 callsubr
          48 callsubr
          68 callsubr
          -362 -1066 -82 callsubr
        </CharString>
        <CharString name="becyrillic">
          1129 1143 572 rmoveto
          241 -138 194 -237 -201 -152 -126 -184 -79 vhcurveto
          20 289 110 195 334 25 7 1 107 7 9 1 256 18 95 76 41 195 rrcurveto
          -68 hlineto
          -21 -50 -59 -18 -138 -5 rrcurveto
          -563 -14 -260 -432 -513 vvcurveto
          -309 142 -184 263 324 208 282 311 vhcurveto
          -243 74 rmoveto
          -253 -99 -325 -187 -107 -61 94 179 253 99 325 189 105 61 -94 -179 vhcurveto
          endchar
        </CharString>
        <CharString name="betagreek">
          1137 36 -460 rmoveto
          243 hlineto
          102 556 rlineto
          -63 52 106 -54 119 hhcurveto
          300 191 215 256 7 hvcurveto
          9 201 -108 160 -215 30 227 49 124 138 4 181 rrcurveto
          185 7 -132 120 -225 hhcurveto
          -255 -168 -161 -340 -73 hvcurveto
          245 75 rmoveto
          217 48 57 115 134 hhcurveto
          96 58 -72 -143 -6 hvcurveto
          -5 -194 -103 -127 -212 -3 rrcurveto
          -35 -166 204 -5 91 -98 -5 -196 rlinecurve
          -201 -4 -138 -133 -167 hhcurveto
          -87 -69 31 65 -55 hvcurveto
          39 183 157 717 2 10 rrcurveto
          endchar
        </CharString>
        <CharString name="bitcoin">
          -4 callgsubr
          129 -81 97 -168 46 rrcurveto
          54 248 -64 0 -50 -234 rlineto
          10 -59 -67 6 -75 hhcurveto
          -3 hlineto
          46 218 -64 0 -47 -218 -407 0 -15 -68 136 -15 13 -20 -19 -88 rlinecurve
          -215 -1003 -19 -87 -20 -20 -141 -15 rlinecurve
          -15 -68 409 0 -47 -219 64 0 47 219 rlineto
          47 hlineto
          57 54 3 5 51 hvcurveto
          -49 -227 65 0 49 236 rlineto
          295 48 177 145 214 vvcurveto
          -183 650 rmoveto
          -177 -125 -129 -221 -1 vhcurveto
          -138 hlineto
          114 540 99 -3 rlineto
          181 -6 90 -79 -145 vvcurveto
          -71 -658 rmoveto
          -197 -141 -130 -318 -9 vhcurveto
          -102 -3 132 613 137 -1 rlineto
          192 -1 100 -109 -163 vvcurveto
          endchar
        </CharString>
        <CharString name="bitcoin.tnum">
          -6 callgsubr
          128 -74 93 -154 45 vhcurveto
          53 249 -63 0 -50 -234 rlineto
          11 -56 -63 5 -71 hhcurveto
          -15 hlineto
          46 218 -63 0 -47 -218 -378 0 -15 -68 132 -15 13 -20 -18 -88 rlinecurve
          -215 -1003 -19 -87 -20 -20 -139 -15 rlinecurve
          -14 -68 380 0 -47 -219 63 0 47 219 rlineto
          63 hlineto
          51 49 3 5 46 hvcurveto
          -48 -227 64 0 50 236 rlineto
          282 47 170 146 214 vvcurveto
          -175 656 rmoveto
          -178 -117 -134 -207 -1 vhcurveto
          -129 hlineto
          113 540 92 -3 rlineto
          166 -8 82 -74 -142 vvcurveto
          -72 -655 rmoveto
          -201 -135 -134 -297 -10 vhcurveto
          -98 -3 132 613 126 -1 rlineto
          181 -2 91 -108 -154 vvcurveto
          endchar
        </CharString>
        <CharString name="blinebelow">
          39 callsubr
          48 callsubr
          68 callsubr
          -631 -1013 -81 callsubr
        </CharString>
        <CharString name="braceleft">
          669 668 1039 rmoveto
          58 263 rlineto
          143 31 46 68 164 hhcurveto
          15 71 rlineto
          -48 hlineto
          -230 -143 -100 -199 -44 hvcurveto
          -69 -320 rlineto
          -154 -33 -96 -69 -109 hhcurveto
          -13 -65 rlineto
          110 65 -67 -163 -35 hvcurveto
          -80 -380 rlineto
          -208 -44 91 -143 232 hhcurveto
          48 hlineto
          15 71 rlineto
          -168 -5 115 153 33 hvcurveto
          63 292 rlineto
          45 213 -64 114 -182 34 200 30 103 96 44 205 rrcurveto
          endchar
        </CharString>
        <CharString name="braceright">
          669 442 1039 rmoveto
          -42 -205 62 -96 187 -29 -198 -35 -112 -114 -44 -213 -62 -292 rcurveline
          -153 -32 -54 -115 -168 hhcurveto
          -16 -71 rlineto
          48 hlineto
          233 152 143 208 44 hvcurveto
          81 380 rlineto
          163 34 95 67 110 hhcurveto
          13 65 rlineto
          -108 -66 69 154 32 hvcurveto
          67 320 rlineto
          199 41 -100 100 -231 hhcurveto
          -48 hlineto
          -15 -71 rlineto
          164 18 -68 -143 -30 hvcurveto
          endchar
        </CharString>
        <CharString name="bracketleft">
          669 138 -284 rmoveto
          446 hlineto
          15 72 -257 0 368 1724 257 0 15 72 rlineto
          -446 hlineto
          endchar
        </CharString>
        <CharString name="bracketright">
          669 807 1584 rmoveto
          -446 hlineto
          -15 -72 257 0 -368 -1724 -257 0 -15 -72 rlineto
          446 hlineto
          endchar
        </CharString>
        <CharString name="breve">
          1024 797 -61 callsubr
          22 callsubr
          endchar
        </CharString>
        <CharString name="breveacutecmb">
          -92 callgsubr
          216 -292 -35 callsubr
          endchar
        </CharString>
        <CharString name="breveacutecmb.short">
          0 676 1847 -41 callgsubr
          233 -238 3 callsubr
          83 callsubr
        </CharString>
        <CharString name="brevebelowcmb">
          0 -61 -454 rmoveto
          172 106 120 191 7 hvcurveto
          -67 hlineto
          -101 -19 -70 -59 -122 hhcurveto
          -101 -68 56 75 -1 hvcurveto
          10 1 12 2 7 vhcurveto
          -67 hlineto
          -11 -26 -7 -34 -32 vvcurveto
          -126 1 100 -93 144 hhcurveto
          endchar
        </CharString>
        <CharString name="brevecmb">
          0 285 -61 callsubr
          22 callsubr
          endchar
        </CharString>
        <CharString name="brevecmb.short">
          0 276 1136 rmoveto
          168 103 116 106 callgsubr
          -67 54 72 10 1 12 58 callsubr
          120 callsubr
          endchar
        </CharString>
        <CharString name="brevecyrilliccmb">
          0 249 137 callsubr
          endchar
        </CharString>
        <CharString name="brevecyrilliccmb.short">
          0 322 1571 rmoveto
          164 138 91 183 57 hvcurveto
          -73 23 rlineto
          -138 -47 -105 -81 -123 hhcurveto
          -37 -32 9 13 -26 hvcurveto
          42 11 34 39 49 vvcurveto
          64 -46 49 -60 -67 -47 -51 -70 -103 88 -88 140 vhcurveto
          endchar
        </CharString>
        <CharString name="brevegravecmb">
          0 41 -50 callsubr
          164 -536 -35 callsubr
          endchar
        </CharString>
        <CharString name="brevegravecmb.short">
          0 109 1847 rmoveto
          551 73 callgsubr
          83 callsubr
        </CharString>
</ttFont>
